<svg id="Layer_1" data-name="Layer 1" xmlns="http://www.w3.org/2000/svg" viewBox="0 0 417.23 530.68"><defs><style>.cls-1{fill:#808285;}.cls-2{fill:#6d6e71;}.cls-3{fill:#939598;}.cls-4{fill:#231f20;}.cls-5{fill:#a7a9ac;}.cls-6{fill:#fff;}.cls-7{fill:#bcbec0;}.cls-8{fill:#414042;}.cls-9{fill:#58595b;}.cls-10{fill:#48494a;}</style></defs><title>Artboard 1 copy 2</title><rect class="cls-1" x="282.7" y="176.66" width="3" height="59.6" transform="translate(-56.59 121.28) rotate(-21.96)"/><rect class="cls-1" x="241.41" y="148.18" width="3" height="60.29" transform="matrix(0.02, -1, 1, 0.02, 60.56, 418.22)"/><rect class="cls-1" x="150.42" y="184.93" width="64.45" height="3" transform="translate(-43.18 55.6) rotate(-15.5)"/><rect class="cls-1" x="102.21" y="185.45" width="3" height="74.08" transform="translate(-122.53 127.24) rotate(-42.17)"/><rect class="cls-1" x="73.03" y="141.79" width="3" height="53.59" transform="translate(-26.2 14.22) rotate(-9.28)"/><rect class="cls-1" x="140.84" y="134.88" width="3" height="62.58" transform="translate(-49.78 61.46) rotate(-20.82)"/><rect class="cls-1" x="70.09" y="137.93" width="61.2" height="3" transform="translate(-11.95 9.46) rotate(-5.08)"/><rect class="cls-1" x="114.35" y="157.69" width="3" height="75.23" transform="translate(-79.82 310.53) rotate(-89.82)"/><rect class="cls-1" x="54.04" y="115.74" width="54.54" height="3" transform="translate(-58.88 143.73) rotate(-65.95)"/><rect class="cls-1" x="92.17" y="87.18" width="52.08" height="3" transform="translate(-11.27 17.46) rotate(-8.06)"/><rect class="cls-1" x="136.55" y="61.85" width="78.39" height="3" transform="translate(-4.81 111.31) rotate(-34.7)"/><rect class="cls-1" x="168.68" y="69.37" width="60.43" height="3" transform="translate(75.76 242.39) rotate(-73.94)"/><rect class="cls-1" x="246.26" y="13.34" width="3" height="86.05" transform="translate(111.04 270.54) rotate(-70.27)"/><rect class="cls-1" x="285.41" y="80.65" width="3" height="79.41" transform="translate(116.32 380.56) rotate(-79.51)"/><rect class="cls-1" x="216.88" y="76.29" width="3" height="60.45" transform="translate(66.65 296.28) rotate(-77.36)"/><rect class="cls-1" x="165.7" y="68.12" width="3" height="49.17" transform="translate(26.48 222.11) rotate(-71.61)"/><rect class="cls-1" x="111.08" y="109.52" width="53.46" height="3" transform="translate(-3.78 217.18) rotate(-75.71)"/><rect class="cls-1" x="126.06" y="117.19" width="69.63" height="3" transform="translate(-38.34 101.87) rotate(-31.59)"/><rect class="cls-1" x="200.35" y="99" width="3" height="80.6" transform="translate(-32.04 65.52) rotate(-17.1)"/><rect class="cls-1" x="194.2" y="143.98" width="73.16" height="3" transform="translate(-5.61 281.64) rotate(-62.17)"/><rect class="cls-1" x="235.53" y="92" width="62.42" height="3" transform="translate(15.11 222.24) rotate(-46.41)"/><rect class="cls-1" x="258.52" y="111.45" width="3" height="69.9" transform="translate(-35.83 107.51) rotate(-21.89)"/><rect class="cls-1" x="258.52" y="110.52" width="3" height="69.9" transform="translate(-35.49 107.44) rotate(-21.89)"/><rect class="cls-1" x="285.01" y="95.86" width="3" height="108.08" transform="translate(-18.53 257.2) rotate(-47)"/><rect class="cls-1" x="306.29" y="64.57" width="3" height="66.65" transform="translate(1.02 198.96) rotate(-35.88)"/><rect class="cls-1" x="324.49" y="127.57" width="3" height="59.2" transform="translate(-4.95 10.72) rotate(-1.87)"/><rect class="cls-1" x="282.48" y="208.93" width="56.41" height="3" transform="translate(-34.92 356.59) rotate(-57.03)"/><polygon class="cls-2" points="175.24 378.3 160.24 378.3 160.24 286.88 147.78 276.65 157.3 265.06 175.24 279.79 175.24 378.3"/><polygon class="cls-3" points="198.03 378.3 183.03 378.3 183.03 254.34 168.77 235.17 180.81 226.22 198.03 249.38 198.03 378.3"/><polygon class="cls-4" points="220.28 378.3 205.28 378.3 205.28 241.36 248.9 208.72 257.89 220.73 220.28 248.87 220.28 378.3"/><polygon class="cls-5" points="243.07 378.3 228.07 378.3 228.07 289.44 259.57 257.93 270.17 268.54 243.07 295.65 243.07 378.3"/><circle class="cls-4" cx="153.46" cy="195.42" r="18.83"/><path class="cls-6" d="M153.46,177.59a17.83,17.83,0,1,1-17.83,17.83,17.83,17.83,0,0,1,17.83-17.83m0-2a19.83,19.83,0,1,0,19.83,19.83,19.86,19.86,0,0,0-19.83-19.83Z"/><path class="cls-4" d="M327,200a13.22,13.22,0,1,1,13.21-13.21A13.23,13.23,0,0,1,327,200Z"/><path class="cls-6" d="M327,174.54a12.22,12.22,0,1,1-12.22,12.22A12.21,12.21,0,0,1,327,174.54m0-2a14.22,14.22,0,1,0,14.21,14.22A14.24,14.24,0,0,0,327,172.54Z"/><path class="cls-4" d="M70.21,158.14a16,16,0,1,1,16-16A16,16,0,0,1,70.21,158.14Z"/><path class="cls-6" d="M70.21,127.15a15,15,0,1,1-15,15,15,15,0,0,1,15-15m0-2a17,17,0,1,0,17,17,17,17,0,0,0-17-17Z"/><path class="cls-3" d="M190.53,119.36a18.91,18.91,0,1,1,18.9-18.9A18.93,18.93,0,0,1,190.53,119.36Z"/><path class="cls-6" d="M190.53,82.55a17.91,17.91,0,1,1-17.91,17.91,17.9,17.9,0,0,1,17.91-17.91m0-2a19.91,19.91,0,1,0,19.9,19.91,19.93,19.93,0,0,0-19.9-19.91Z"/><path class="cls-7" d="M246.64,123.36a10.23,10.23,0,1,1,10.22-10.23A10.24,10.24,0,0,1,246.64,123.36Z"/><path class="cls-6" d="M246.64,103.91a9.23,9.23,0,1,1-9.23,9.22,9.22,9.22,0,0,1,9.23-9.22m0-2a11.23,11.23,0,1,0,11.22,11.22,11.24,11.24,0,0,0-11.22-11.22Z"/><path class="cls-5" d="M326,148.52a20.93,20.93,0,1,1,20.93-20.93A21,21,0,0,1,326,148.52Z"/><path class="cls-6" d="M326,107.66A19.93,19.93,0,1,1,306,127.59,19.93,19.93,0,0,1,326,107.66m0-2a21.93,21.93,0,1,0,21.93,21.93A22,22,0,0,0,326,105.66Z"/><path class="cls-8" d="M207.26,63.48A21.64,21.64,0,1,1,228.9,41.84,21.66,21.66,0,0,1,207.26,63.48Z"/><path class="cls-6" d="M207.26,21.21a20.63,20.63,0,1,1-20.63,20.63,20.63,20.63,0,0,1,20.63-20.63m0-2A22.63,22.63,0,1,0,229.9,41.84a22.65,22.65,0,0,0-22.64-22.63Z"/><circle class="cls-4" cx="288.26" cy="70.9" r="14.57"/><path class="cls-6" d="M288.26,57.33A13.57,13.57,0,1,1,274.69,70.9a13.57,13.57,0,0,1,13.57-13.57m0-2A15.57,15.57,0,1,0,303.83,70.9a15.59,15.59,0,0,0-15.57-15.57Z"/><path class="cls-4" d="M295.35,254.63a20.54,20.54,0,1,1,20.53-20.53A20.56,20.56,0,0,1,295.35,254.63Z"/><path class="cls-6" d="M295.35,214.56a19.54,19.54,0,1,1-19.54,19.53,19.54,19.54,0,0,1,19.54-19.53m0-2a21.54,21.54,0,1,0,21.53,21.53,21.56,21.56,0,0,0-21.53-21.53Z"/><path class="cls-9" d="M271.62,190.57A12.4,12.4,0,1,1,284,178.17,12.42,12.42,0,0,1,271.62,190.57Z"/><path class="cls-6" d="M271.61,166.77a11.4,11.4,0,1,1-11.39,11.4,11.4,11.4,0,0,1,11.39-11.4m0-2a13.4,13.4,0,1,0,13.4,13.4,13.41,13.41,0,0,0-13.4-13.4Z"/><path class="cls-4" d="M131.17,148.27a11.56,11.56,0,1,1,11.56-11.55A11.57,11.57,0,0,1,131.17,148.27Z"/><path class="cls-6" d="M131.17,126.16a10.56,10.56,0,1,1-10.56,10.56,10.56,10.56,0,0,1,10.56-10.56m0-2a12.56,12.56,0,1,0,12.56,12.56,12.58,12.58,0,0,0-12.56-12.56Z"/><path class="cls-5" d="M143.52,95.9a10.23,10.23,0,1,1,10.23-10.23A10.24,10.24,0,0,1,143.52,95.9Z"/><path class="cls-6" d="M143.53,76.45a9.23,9.23,0,1,1-9.23,9.22,9.22,9.22,0,0,1,9.23-9.22m0-2a11.23,11.23,0,1,0,11.22,11.22,11.24,11.24,0,0,0-11.22-11.22Z"/><path class="cls-5" d="M128.58,262.71a12.78,12.78,0,1,1,12.78-12.77A12.79,12.79,0,0,1,128.58,262.71Z"/><path class="cls-6" d="M128.58,238.16a11.78,11.78,0,1,1-11.77,11.78,11.77,11.77,0,0,1,11.77-11.78m0-2a13.78,13.78,0,1,0,13.78,13.78,13.79,13.79,0,0,0-13.78-13.78Z"/><circle class="cls-7" cx="91.68" cy="92.33" r="15.15"/><path class="cls-6" d="M91.68,78.18A14.15,14.15,0,1,1,77.54,92.33,14.14,14.14,0,0,1,91.68,78.18m0-2a16.15,16.15,0,1,0,16.15,16.15A16.16,16.16,0,0,0,91.68,76.18Z"/><path class="cls-8" d="M77.6,211.07a15.65,15.65,0,1,1,15.65-15.65A15.67,15.67,0,0,1,77.6,211.07Z"/><path class="cls-6" d="M77.6,180.77a14.65,14.65,0,1,1-14.66,14.65A14.65,14.65,0,0,1,77.6,180.77m0-2a16.65,16.65,0,1,0,16.65,16.65A16.67,16.67,0,0,0,77.6,178.77Z"/><path class="cls-2" d="M213.7,200.91a23.09,23.09,0,1,1,23.09-23.09A23.12,23.12,0,0,1,213.7,200.91Z"/><path class="cls-6" d="M213.7,155.73a22.09,22.09,0,1,1-22.09,22.09,22.09,22.09,0,0,1,22.09-22.09m0-2a24.09,24.09,0,1,0,24.09,24.09,24.11,24.11,0,0,0-24.09-24.09Z"/><path class="cls-10" d="M30.2,442.13V410.29H41.56c9.25,0,11.78,6.44,11.78,15.46s-2.4,16.38-11.78,16.38Zm11.36-28.71H33.74V439h7.82c6.62,0,8.14-6.35,8.14-13.25S48.18,413.42,41.56,413.42Z"/><path class="cls-10" d="M59.27,409.92h3.45v4H59.27Zm0,9.2h3.45v23H59.27Z"/><path class="cls-10" d="M68.33,446c0-2.67,1.24-3.91,3.63-5.7a3.77,3.77,0,0,1-1.28-3.18c0-.87,1.56-3.63,1.56-3.63-1.93-.88-3.63-2.72-3.63-7,0-5.66,3.49-7.87,8.6-7.87a23.67,23.67,0,0,1,4.78.6l6.81-.18V422l-4.37-.09c.88.87,1.52,2.16,1.52,4.6,0,6-3,7.78-8.88,7.78a19.7,19.7,0,0,1-2.25-.19,13.83,13.83,0,0,0-.83,2.62c0,1.84.37,2.12,5.56,2.12,6.54,0,8.88,1.29,8.88,6.76,0,5.2-3.72,7.32-10.21,7.32C71,452.94,68.33,451.33,68.33,446Zm6-4.32c-1.93,1.42-2.58,2.25-2.58,4,0,3.18,1.34,4.33,6.54,4.33,4.6,0,6.67-1.24,6.67-4.28,0-3.5-1.47-3.86-5.66-3.86C77.67,441.9,74.31,441.67,74.31,441.67Zm8.19-15.14c0-3.63-1.43-5.06-5.29-5.06-3.59,0-5.15,1.43-5.15,5.06s1.56,5,5.15,5C81.07,431.54,82.5,430.16,82.5,426.53Z"/><path class="cls-10" d="M93,409.92h3.45v4H93Zm0,9.2h3.45v23H93Z"/><path class="cls-10" d="M107.66,422.11v11c0,5,.32,6.44,3.31,6.44,1.29,0,4.1-.28,4.1-.28l.23,2.86a40.94,40.94,0,0,1-4.7.5c-4.73,0-6.35-1.79-6.35-8.42v-12.1H101v-3h3.26v-7h3.41v7H115v3Z"/><path class="cls-10" d="M135.44,437.85c.1,1.33,1.2,1.84,2.67,2l-.13,2.72c-2.44,0-4.1-.46-5.48-1.85a23.41,23.41,0,0,1-8.28,1.85c-4.19,0-6.49-2.4-6.49-7,0-4.42,2.3-6.35,7-6.81l7.22-.69v-2c0-3.22-1.38-4.37-4.14-4.37-3.22,0-8.69.6-8.69.6l-.14-2.63a55.83,55.83,0,0,1,9-1c5.2,0,7.4,2.4,7.4,7.41Zm-10.25-6.53c-2.81.27-3.91,1.6-3.91,4.13s1.15,4.24,3.49,4.24a24.25,24.25,0,0,0,7.22-1.43v-7.59Z"/><path class="cls-10" d="M142.53,409.09H146v33h-3.45Z"/><path class="cls-10" d="M183.33,427.73H167.14v14.4h-3.55V410.29h3.55v14.26h16.19V410.29h3.5v31.84h-3.5Z"/><path class="cls-10" d="M211.85,419.12v23H208.4v-1.61a15.53,15.53,0,0,1-6.81,2.07c-6.44,0-7.78-3-7.78-11.46v-12h3.45v12c0,6.35.56,8.42,4.84,8.42a14,14,0,0,0,6.3-1.7V419.12Z"/><path class="cls-10" d="M218.47,442.13v-23h3.4v1.61a15.44,15.44,0,0,1,6.72-2.07c3.08,0,4.79.69,6,2.35a19.15,19.15,0,0,1,8.19-2.35c6.26,0,7.78,3,7.78,11.32v12.15h-3.45V430.07c0-6.07-.69-8.33-4.84-8.33a15.13,15.13,0,0,0-6.48,1.71,26.22,26.22,0,0,1,.6,6.71v12h-3.45V430.26c0-6.35-.65-8.52-4.84-8.52a13.72,13.72,0,0,0-6.16,1.71v18.68Z"/><path class="cls-10" d="M273.17,437.85c.09,1.33,1.19,1.84,2.66,2l-.13,2.72c-2.44,0-4.1-.46-5.48-1.85a23.41,23.41,0,0,1-8.28,1.85c-4.19,0-6.49-2.4-6.49-7,0-4.42,2.3-6.35,7-6.81l7.23-.69v-2c0-3.22-1.38-4.37-4.14-4.37-3.23,0-8.7.6-8.7.6l-.14-2.63a55.83,55.83,0,0,1,9-1c5.2,0,7.41,2.4,7.41,7.41Zm-10.26-6.53c-2.81.27-3.91,1.6-3.91,4.13s1.15,4.24,3.49,4.24a24.35,24.35,0,0,0,7.23-1.43v-7.59Z"/><path class="cls-10" d="M280,442.13v-23h3.41v1.61a17.43,17.43,0,0,1,7.13-2.07c6.35,0,7.77,3.13,7.77,11.32v12.15h-3.4V430.07c0-6.07-.69-8.33-5-8.33a15.73,15.73,0,0,0-6.49,1.71v18.68Z"/><path class="cls-10" d="M304.67,409.92h3.45v4h-3.45Zm0,9.2h3.45v23h-3.45Z"/><path class="cls-10" d="M319.35,422.11v11c0,5,.32,6.44,3.31,6.44,1.29,0,4.09-.28,4.09-.28l.23,2.86a40.67,40.67,0,0,1-4.69.5c-4.74,0-6.35-1.79-6.35-8.42v-12.1h-3.26v-3h3.26v-7h3.41v7h7.31v3Z"/><path class="cls-10" d="M330.89,409.92h3.45v4h-3.45Zm0,9.2h3.45v23h-3.45Z"/><path class="cls-10" d="M357.94,439.14l.09,2.71a79.67,79.67,0,0,1-9,.74c-6.85,0-9.11-4-9.11-11.83,0-8.74,3.77-12.1,9.62-12.1,6.12,0,9.24,3.22,9.24,10.77l-.18,2.62H343.45c0,4.92,1.52,7.5,6,7.5C352.93,439.55,357.94,439.14,357.94,439.14Zm-2.58-9.85c0-5.7-1.74-7.73-5.79-7.73s-6.12,2.16-6.17,7.73Z"/><path class="cls-10" d="M379.47,422.48a75,75,0,0,0-8.05-.74c-2.86,0-5,.79-5,3.5,0,2.16,1.11,2.76,6,3.59,5.75,1,7.92,2.12,7.92,6.58,0,5.38-3.41,7.18-8.93,7.18a64.71,64.71,0,0,1-8.1-.88l.19-3s5.24.78,7.59.78c3.77,0,5.8-.82,5.8-3.95,0-2.4-1.2-3-6.22-3.78C365.44,431,363,430,363,425.38c0-5.06,4.1-6.72,8.28-6.72a58.52,58.52,0,0,1,8.33.88Z"/><path class="cls-10" d="M35.37,485.13v12.2H31.83V465.49H43.61c6.67,0,10.16,2.94,10.16,9.66,0,4.69-1.84,8-5.84,9.25l6.12,12.93H50.14l-5.75-12.2Zm8.24-16.51H35.37V482h8.28c4.79,0,6.49-2.86,6.49-6.86C50.14,470.78,48.07,468.62,43.61,468.62Z"/><path class="cls-10" d="M76.13,494.34l.09,2.71a79.67,79.67,0,0,1-9,.74c-6.85,0-9.11-4-9.11-11.83,0-8.74,3.77-12.1,9.62-12.1,6.12,0,9.24,3.22,9.24,10.77l-.18,2.62H61.64c0,4.92,1.52,7.5,6,7.5C71.12,494.75,76.13,494.34,76.13,494.34Zm-2.58-9.85c0-5.7-1.74-7.73-5.79-7.73s-6.12,2.16-6.17,7.73Z"/><path class="cls-10" d="M97.66,477.68a76,76,0,0,0-8-.73c-2.86,0-5,.78-5,3.49,0,2.16,1.11,2.76,6,3.59,5.75,1,7.91,2.12,7.91,6.58,0,5.38-3.4,7.18-8.92,7.18a64.71,64.71,0,0,1-8.1-.88l.19-3s5.24.78,7.59.78c3.77,0,5.79-.82,5.79-3.95,0-2.4-1.19-3-6.21-3.77-5.19-.83-7.68-1.8-7.68-6.4,0-5.06,4.1-6.72,8.28-6.72a58.52,58.52,0,0,1,8.33.88Z"/><path class="cls-10" d="M120.75,494.34l.09,2.71a79.67,79.67,0,0,1-9,.74c-6.85,0-9.11-4-9.11-11.83,0-8.74,3.77-12.1,9.62-12.1,6.11,0,9.24,3.22,9.24,10.77l-.18,2.62H106.26c0,4.92,1.52,7.5,6,7.5C115.73,494.75,120.75,494.34,120.75,494.34Zm-2.58-9.85c0-5.7-1.75-7.73-5.79-7.73s-6.12,2.16-6.17,7.73Z"/><path class="cls-10" d="M143.24,493.05c.09,1.33,1.2,1.84,2.67,2l-.14,2.72c-2.44,0-4.09-.46-5.47-1.84a23.51,23.51,0,0,1-8.28,1.84c-4.19,0-6.49-2.4-6.49-7,0-4.42,2.3-6.35,7-6.81l7.22-.69v-2c0-3.22-1.38-4.37-4.14-4.37-3.22,0-8.69.6-8.69.6l-.14-2.62a55.31,55.31,0,0,1,9-1c5.19,0,7.4,2.4,7.4,7.41ZM133,486.51c-2.8.28-3.91,1.61-3.91,4.14s1.15,4.24,3.5,4.24a24.34,24.34,0,0,0,7.22-1.43v-7.59Z"/><path class="cls-10" d="M150.05,474.32h3.4v3.13a25.88,25.88,0,0,1,8.42-3.63v3.49a33.65,33.65,0,0,0-8.37,3.13v16.89h-3.45Z"/><path class="cls-10" d="M180.36,474.55l-.13,2.81s-3.69-.41-5.43-.41c-5.29,0-6.72,2.3-6.72,8.46,0,6.81,1.06,9.29,6.76,9.29,1.75,0,5.43-.41,5.43-.41l.14,2.85a60.55,60.55,0,0,1-6.4.65c-7.31,0-9.47-3.36-9.47-12.38,0-8.33,2.71-11.55,9.57-11.55A53.41,53.41,0,0,1,180.36,474.55Z"/><path class="cls-10" d="M185.56,497.33v-33H189v11.32a19.42,19.42,0,0,1,7.08-1.75c6.31,0,7.78,3.13,7.78,11.32v12.15h-3.45V485.27c0-6.07-.69-8.32-4.92-8.32a18.92,18.92,0,0,0-6.49,1.38v19Z"/><path class="cls-10" d="M221,465.49h3.54v31.84H221Z"/><path class="cls-10" d="M231.7,497.33v-23h3.4v1.61a17.49,17.49,0,0,1,7.13-2.07c6.35,0,7.78,3.13,7.78,11.32v12.15H246.6V485.27c0-6.07-.69-8.32-5-8.32a15.73,15.73,0,0,0-6.48,1.7v18.68Z"/><path class="cls-10" d="M271.67,477.68a76,76,0,0,0-8.05-.73c-2.85,0-5,.78-5,3.49,0,2.16,1.11,2.76,6,3.59,5.75,1,7.91,2.12,7.91,6.58,0,5.38-3.41,7.18-8.93,7.18a64.46,64.46,0,0,1-8.09-.88l.18-3s5.24.78,7.59.78c3.77,0,5.8-.82,5.8-3.95,0-2.4-1.2-3-6.21-3.77-5.2-.83-7.69-1.8-7.69-6.4,0-5.06,4.1-6.72,8.29-6.72a58.3,58.3,0,0,1,8.32.88Z"/><path class="cls-10" d="M282.39,477.31v11c0,5,.32,6.44,3.31,6.44,1.29,0,4.09-.28,4.09-.28l.23,2.86a40.67,40.67,0,0,1-4.69.5c-4.74,0-6.35-1.79-6.35-8.42v-12.1h-3.26v-3H279v-7h3.41v7h7.31v3Z"/><path class="cls-10" d="M293.93,465.12h3.45v4h-3.45Zm0,9.2h3.45v23h-3.45Z"/><path class="cls-10" d="M308.61,477.31v11c0,5,.32,6.44,3.31,6.44,1.29,0,4.09-.28,4.09-.28l.23,2.86a40.67,40.67,0,0,1-4.69.5c-4.74,0-6.35-1.79-6.35-8.42v-12.1h-3.26v-3h3.26v-7h3.41v7h7.31v3Z"/><path class="cls-10" d="M338,474.32v23H334.5v-1.61a15.52,15.52,0,0,1-6.8,2.07c-6.44,0-7.78-3-7.78-11.46v-12h3.45v12c0,6.35.55,8.42,4.83,8.42a13.91,13.91,0,0,0,6.3-1.7V474.32Z"/><path class="cls-10" d="M349.18,477.31v11c0,5,.32,6.44,3.31,6.44,1.29,0,4.09-.28,4.09-.28l.23,2.86a40.67,40.67,0,0,1-4.69.5c-4.74,0-6.35-1.79-6.35-8.42v-12.1h-3.26v-3h3.26v-7h3.41v7h7.31v3Z"/><path class="cls-10" d="M377.7,494.34l.09,2.71a79.67,79.67,0,0,1-9,.74c-6.86,0-9.11-4-9.11-11.83,0-8.74,3.77-12.1,9.62-12.1,6.11,0,9.24,3.22,9.24,10.77l-.18,2.62H363.21c0,4.92,1.51,7.5,6,7.5C372.68,494.75,377.7,494.34,377.7,494.34Zm-2.58-9.85c0-5.7-1.75-7.73-5.79-7.73s-6.12,2.16-6.17,7.73Z"/></svg>