<svg id="Layer_1" data-name="Layer 1" xmlns="http://www.w3.org/2000/svg" viewBox="0 0 595.5 541.62"><defs><style>.cls-1{fill:#fff;}.cls-2{fill:#c2cccb;}.cls-3{fill:#9bbb4f;}.cls-4{fill:#00b3be;}.cls-5{fill:#ef3e3a;}.cls-6{fill:#6155a4;}.cls-7{fill:#231f20;}.cls-8{fill:#cf232c;}.cls-9{fill:#eb9522;}.cls-10{fill:#766f65;}</style></defs><title>Artboard 11</title><circle class="cls-1" cx="294.48" cy="268.05" r="217.28"/><circle class="cls-1" cx="294.48" cy="268.05" r="236.41"/><rect class="cls-2" x="395.81" y="238.34" width="3" height="70.6" transform="translate(-73.13 166.76) rotate(-21.76)"/><rect class="cls-2" x="347.34" y="204.87" width="3" height="70.78" transform="translate(102.73 584.99) rotate(-89.03)"/><rect class="cls-2" x="240.22" y="248.37" width="75.73" height="3" transform="translate(-57.11 84.31) rotate(-15.66)"/><rect class="cls-2" x="183.92" y="248.92" width="3" height="87.48" transform="translate(-148 198.52) rotate(-41.88)"/><rect class="cls-2" x="149.65" y="196.93" width="3" height="63.57" transform="translate(-34.56 27.05) rotate(-9.18)"/><rect class="cls-2" x="229.26" y="188.77" width="3" height="74.15" transform="translate(-64.77 95.77) rotate(-20.63)"/><rect class="cls-2" x="145.93" y="192.61" width="71.86" height="3" transform="translate(-16.64 17.06) rotate(-5.14)"/><rect class="cls-2" x="198.16" y="216.24" width="3" height="88.32" transform="translate(-61.38 459.23) rotate(-89.82)"/><rect class="cls-2" x="126.82" y="166.28" width="64.6" height="3" transform="translate(-58.62 245.62) rotate(-66.19)"/><rect class="cls-2" x="171.85" y="132.4" width="61.16" height="3" transform="translate(-16.92 30) rotate(-8.14)"/><rect class="cls-2" x="223.81" y="102.35" width="92.34" height="3" transform="translate(-10.74 173.66) rotate(-35)"/><rect class="cls-2" x="261.34" y="111.28" width="71.64" height="3" transform="matrix(0.27, -0.96, 0.96, 0.27, 107.25, 367.64)"/><rect class="cls-2" x="353.03" y="45" width="3" height="101.15" transform="translate(143.86 396.31) rotate(-70.07)"/><rect class="cls-2" x="398.99" y="124.86" width="3" height="93.27" transform="translate(158.26 533.61) rotate(-79.4)"/><rect class="cls-2" x="318.53" y="119.57" width="3" height="71" transform="translate(98.05 432.9) rotate(-77.23)"/><rect class="cls-2" x="258.45" y="109.78" width="3" height="57.78" transform="translate(45.7 340.91) rotate(-71.43)"/><rect class="cls-2" x="193.76" y="158.91" width="63.38" height="3" transform="translate(14.85 339.88) rotate(-75.87)"/><rect class="cls-2" x="211.53" y="168.01" width="81.98" height="3" transform="translate(-51.43 158.74) rotate(-31.84)"/><rect class="cls-2" x="299.13" y="146.19" width="3" height="95.54" transform="translate(-43.46 95.99) rotate(-16.94)"/><rect class="cls-2" x="291.3" y="199.79" width="86.59" height="3" transform="translate(1.17 404.51) rotate(-62.39)"/><rect class="cls-2" x="339.97" y="138.13" width="73.69" height="3" transform="translate(16.82 318.2) rotate(-46.71)"/><rect class="cls-2" x="367.43" y="160.98" width="3" height="82.81" transform="translate(-48.67 150.64) rotate(-21.68)"/><rect class="cls-2" x="367.43" y="159.88" width="3" height="82.81" transform="translate(-48.27 150.56) rotate(-21.68)"/><rect class="cls-2" x="398.53" y="142.78" width="3" height="127.51" transform="translate(-24.64 356) rotate(-46.7)"/><rect class="cls-2" x="423.51" y="105.45" width="3" height="78.79" transform="translate(-4.9 274.43) rotate(-35.59)"/><rect class="cls-2" x="444.88" y="180.05" width="3" height="70.23" transform="matrix(1, -0.03, 0.03, 1, -6.71, 14.52)"/><rect class="cls-2" x="395.05" y="276.85" width="66.72" height="3" transform="translate(-37.14 488.76) rotate(-57.33)"/><polygon class="cls-3" points="269.38 477.51 251.77 477.51 251.77 369.05 237.15 356.91 248.33 343.16 269.38 360.64 269.38 477.51"/><polygon class="cls-4" points="296.14 477.51 278.53 477.51 278.53 330.45 261.8 307.7 275.93 297.08 296.14 324.56 296.14 477.51"/><polygon class="cls-5" points="322.26 477.51 304.65 477.51 304.65 315.05 355.87 276.32 366.42 290.57 322.26 323.96 322.26 477.51"/><polygon class="cls-6" points="349.02 477.51 331.41 477.51 331.41 372.08 368.39 334.71 380.85 347.29 349.02 379.45 349.02 477.51"/><ellipse class="cls-7" cx="243.82" cy="260.54" rx="22.11" ry="22.34"/><path class="cls-1" d="M243.82,239.39a21.16,21.16,0,1,1-20.93,21.15,21,21,0,0,1,20.93-21.15m0-2.37a23.53,23.53,0,1,0,23.28,23.52A23.43,23.43,0,0,0,243.82,237Z"/><ellipse class="cls-7" cx="447.51" cy="250.26" rx="15.52" ry="15.68"/><path class="cls-1" d="M447.51,235.77a14.49,14.49,0,1,1-14.34,14.49,14.43,14.43,0,0,1,14.34-14.49m0-2.37a16.87,16.87,0,1,0,16.69,16.86,16.79,16.79,0,0,0-16.69-16.86Z"/><path class="cls-7" d="M146.08,216.31a19,19,0,1,1,18.78-19A18.9,18.9,0,0,1,146.08,216.31Z"/><path class="cls-1" d="M146.08,179.54a17.8,17.8,0,1,1-17.61,17.79,17.71,17.71,0,0,1,17.61-17.79m0-2.37A20.17,20.17,0,1,0,166,197.33a20.08,20.08,0,0,0-19.95-20.16Z"/><ellipse class="cls-4" cx="287.34" cy="147.88" rx="22.2" ry="22.43"/><path class="cls-1" d="M287.34,126.63a21.25,21.25,0,1,1-21,21.25,21.13,21.13,0,0,1,21-21.25m0-2.37a23.62,23.62,0,1,0,23.37,23.62,23.52,23.52,0,0,0-23.37-23.62Z"/><path class="cls-8" d="M353.21,175.05a12.14,12.14,0,1,1,12-12.14A12.08,12.08,0,0,1,353.21,175.05Z"/><path class="cls-1" d="M353.21,152a10.95,10.95,0,1,1-10.83,10.94A10.89,10.89,0,0,1,353.21,152m0-2.37a13.32,13.32,0,1,0,13.18,13.31,13.26,13.26,0,0,0-13.18-13.31Z"/><ellipse class="cls-6" cx="446.33" cy="180.07" rx="24.57" ry="24.83"/><path class="cls-1" d="M446.33,156.42a23.65,23.65,0,1,1-23.4,23.65,23.53,23.53,0,0,1,23.4-23.65m0-2.37a26,26,0,1,0,25.75,26,25.91,25.91,0,0,0-25.75-26Z"/><ellipse class="cls-9" cx="306.99" cy="78.33" rx="25.4" ry="25.67"/><path class="cls-1" d="M307,53.85a24.48,24.48,0,1,1-24.23,24.48A24.35,24.35,0,0,1,307,53.85m0-2.37a26.86,26.86,0,1,0,26.57,26.85A26.75,26.75,0,0,0,307,51.48Z"/><path class="cls-5" d="M402.08,130.09a17.29,17.29,0,1,1,17.1-17.28A17.21,17.21,0,0,1,402.08,130.09Z"/><path class="cls-1" d="M402.08,96.71a16.1,16.1,0,1,1-15.93,16.1,16,16,0,0,1,15.93-16.1m0-2.37a18.47,18.47,0,1,0,18.28,18.47,18.39,18.39,0,0,0-18.28-18.47Z"/><path class="cls-5" d="M410.4,330.79a24.37,24.37,0,1,1,24.11-24.36A24.26,24.26,0,0,1,410.4,330.79Z"/><path class="cls-1" d="M410.4,283.25a23.18,23.18,0,1,1-22.94,23.18,23.05,23.05,0,0,1,22.94-23.18m0-2.37a25.55,25.55,0,1,0,25.28,25.55,25.45,25.45,0,0,0-25.28-25.55Z"/><ellipse class="cls-10" cx="382.54" cy="240.07" rx="14.55" ry="14.71"/><path class="cls-1" d="M382.54,226.55a13.52,13.52,0,1,1-13.38,13.52,13.45,13.45,0,0,1,13.38-13.52m0-2.37a15.9,15.9,0,1,0,15.73,15.89,15.83,15.83,0,0,0-15.73-15.89Z"/><path class="cls-5" d="M217.65,204.61a13.72,13.72,0,1,1,13.57-13.71A13.66,13.66,0,0,1,217.65,204.61Z"/><path class="cls-1" d="M217.65,178.37a12.53,12.53,0,1,1-12.39,12.53,12.46,12.46,0,0,1,12.39-12.53m0-2.37a14.9,14.9,0,1,0,14.74,14.9A14.83,14.83,0,0,0,217.65,176Z"/><ellipse class="cls-6" cx="232.16" cy="130.33" rx="12" ry="12.13"/><path class="cls-1" d="M232.16,119.39a10.95,10.95,0,1,1-10.83,10.94,10.89,10.89,0,0,1,10.83-10.94m0-2.37a13.32,13.32,0,1,0,13.17,13.31A13.26,13.26,0,0,0,232.16,117Z"/><path class="cls-6" d="M214.61,340.38a15.16,15.16,0,1,1,15-15.16A15.1,15.1,0,0,1,214.61,340.38Z"/><path class="cls-1" d="M214.61,311.25a14,14,0,1,1-13.82,14,13.9,13.9,0,0,1,13.82-14m0-2.37a16.35,16.35,0,1,0,16.18,16.34,16.27,16.27,0,0,0-16.18-16.34Z"/><ellipse class="cls-8" cx="171.29" cy="138.23" rx="17.79" ry="17.97"/><path class="cls-1" d="M171.29,121.45a16.79,16.79,0,1,1-16.61,16.78,16.69,16.69,0,0,1,16.61-16.78m0-2.38a19.16,19.16,0,1,0,19,19.16,19.09,19.09,0,0,0-19-19.16Z"/><ellipse class="cls-9" cx="154.75" cy="260.54" rx="18.38" ry="18.57"/><path class="cls-1" d="M154.75,243.16a17.39,17.39,0,1,1-17.2,17.38,17.29,17.29,0,0,1,17.2-17.38m0-2.37a19.76,19.76,0,1,0,19.55,19.75,19.67,19.67,0,0,0-19.55-19.75Z"/><path class="cls-3" d="M314.54,267.05a27.4,27.4,0,1,1,27.11-27.39A27.28,27.28,0,0,1,314.54,267.05Z"/><path class="cls-1" d="M314.54,213.45a26.21,26.21,0,1,1-25.93,26.21,26.07,26.07,0,0,1,25.93-26.21m0-2.38a28.59,28.59,0,1,0,28.29,28.59,28.47,28.47,0,0,0-28.29-28.59Z"/></svg>