<svg id="Layer_1" data-name="Layer 1" xmlns="http://www.w3.org/2000/svg" viewBox="0 0 857.42 408.22"><defs><style>.cls-1{fill:#808285;}.cls-2{fill:#6d6e71;}.cls-3{fill:#939598;}.cls-4{fill:#231f20;}.cls-5{fill:#a7a9ac;}.cls-6{fill:#fff;}.cls-7{fill:#bcbec0;}.cls-8{fill:#414042;}.cls-9{fill:#58595b;}.cls-10{fill:#48494a;}</style></defs><title>Artboard 1 copy 5</title><rect class="cls-1" x="266.14" y="176.66" width="3" height="59.6" transform="translate(-57.79 115.09) rotate(-21.96)"/><rect class="cls-1" x="224.86" y="148.18" width="3" height="60.29" transform="matrix(0.02, -1, 1, 0.02, 44.28, 401.67)"/><rect class="cls-1" x="133.86" y="184.93" width="64.45" height="3" transform="translate(-43.74 51.11) rotate(-15.48)"/><rect class="cls-1" x="85.66" y="185.45" width="3" height="74.08" transform="translate(-126.81 116.12) rotate(-42.17)"/><rect class="cls-1" x="56.47" y="141.79" width="3" height="53.59" transform="translate(-26.42 11.55) rotate(-9.28)"/><rect class="cls-1" x="124.28" y="134.88" width="3" height="62.58" transform="translate(-50.86 55.57) rotate(-20.82)"/><rect class="cls-1" x="53.53" y="137.93" width="61.2" height="3" transform="translate(-12.01 8) rotate(-5.08)"/><rect class="cls-1" x="97.79" y="157.69" width="3" height="75.23" transform="translate(-96.33 293.98) rotate(-89.82)"/><rect class="cls-1" x="37.49" y="115.74" width="54.55" height="3" transform="translate(-68.69 128.6) rotate(-65.95)"/><rect class="cls-1" x="75.61" y="87.18" width="52.08" height="3" transform="translate(-11.41 15.1) rotate(-8.05)"/><rect class="cls-1" x="119.99" y="61.85" width="78.39" height="3" transform="translate(-7.74 101.93) rotate(-34.71)"/><rect class="cls-1" x="152.12" y="69.37" width="60.43" height="3" transform="translate(63.78 226.48) rotate(-73.94)"/><rect class="cls-1" x="229.7" y="13.34" width="3" height="86.05" transform="translate(100.08 254.96) rotate(-70.27)"/><rect class="cls-1" x="268.85" y="80.65" width="3" height="79.41" transform="translate(102.78 364.28) rotate(-79.51)"/><rect class="cls-1" x="200.32" y="76.29" width="3" height="60.45" transform="translate(53.71 280.13) rotate(-77.36)"/><rect class="cls-1" x="149.14" y="68.12" width="3" height="49.17" transform="translate(15.14 206.4) rotate(-71.61)"/><rect class="cls-1" x="94.52" y="109.53" width="53.46" height="3" transform="translate(-16.26 201.12) rotate(-75.71)"/><rect class="cls-1" x="109.5" y="117.19" width="69.63" height="3" transform="translate(-40.8 93.25) rotate(-31.61)"/><rect class="cls-1" x="183.79" y="99" width="3" height="80.6" transform="translate(-32.77 60.66) rotate(-17.1)"/><rect class="cls-1" x="177.65" y="143.98" width="73.16" height="3" transform="translate(-14.44 266.99) rotate(-62.17)"/><rect class="cls-1" x="218.98" y="92" width="62.42" height="3" transform="translate(9.99 210.3) rotate(-46.42)"/><rect class="cls-1" x="241.97" y="111.45" width="3" height="69.9" transform="translate(-37.03 101.34) rotate(-21.89)"/><rect class="cls-1" x="241.97" y="110.52" width="3" height="69.9" transform="translate(-36.68 101.27) rotate(-21.89)"/><rect class="cls-1" x="268.46" y="95.86" width="3" height="108.08" transform="translate(-23.79 245.09) rotate(-47)"/><rect class="cls-1" x="289.73" y="64.57" width="3" height="66.65" transform="translate(-2.12 189.25) rotate(-35.88)"/><rect class="cls-1" x="307.94" y="127.57" width="3" height="59.2" transform="translate(-4.96 10.18) rotate(-1.87)"/><rect class="cls-1" x="265.93" y="208.93" width="56.41" height="3" transform="translate(-42.46 342.7) rotate(-57.03)"/><polygon class="cls-2" points="158.68 378.3 143.68 378.3 143.68 286.88 131.22 276.65 140.74 265.06 158.68 279.79 158.68 378.3"/><polygon class="cls-3" points="181.47 378.3 166.47 378.3 166.47 254.34 152.21 235.17 164.25 226.22 181.47 249.38 181.47 378.3"/><polygon class="cls-4" points="203.72 378.3 188.72 378.3 188.72 241.36 232.35 208.72 241.33 220.73 203.72 248.87 203.72 378.3"/><polygon class="cls-5" points="226.51 378.3 211.51 378.3 211.51 289.44 243.01 257.93 253.62 268.54 226.51 295.65 226.51 378.3"/><circle class="cls-4" cx="136.91" cy="195.42" r="18.83"/><path class="cls-6" d="M136.91,177.59a17.83,17.83,0,1,1-17.83,17.83,17.84,17.84,0,0,1,17.83-17.83m0-2a19.83,19.83,0,1,0,19.83,19.83,19.85,19.85,0,0,0-19.83-19.83Z"/><path class="cls-4" d="M310.4,200a13.22,13.22,0,1,1,13.22-13.21A13.22,13.22,0,0,1,310.4,200Z"/><path class="cls-6" d="M310.4,174.54a12.22,12.22,0,1,1-12.21,12.22,12.22,12.22,0,0,1,12.21-12.22m0-2a14.22,14.22,0,1,0,14.22,14.22,14.23,14.23,0,0,0-14.22-14.22Z"/><path class="cls-4" d="M53.65,158.14a16,16,0,1,1,16-16A16,16,0,0,1,53.65,158.14Z"/><path class="cls-6" d="M53.65,127.15a15,15,0,1,1-15,15,15,15,0,0,1,15-15m0-2a17,17,0,1,0,17,17,17,17,0,0,0-17-17Z"/><path class="cls-3" d="M174,119.36a18.91,18.91,0,1,1,18.91-18.9A18.93,18.93,0,0,1,174,119.36Z"/><path class="cls-6" d="M174,82.55a17.91,17.91,0,1,1-17.91,17.91A17.91,17.91,0,0,1,174,82.55m0-2a19.91,19.91,0,1,0,19.91,19.91A19.93,19.93,0,0,0,174,80.55Z"/><circle class="cls-7" cx="230.08" cy="113.13" r="10.23"/><path class="cls-6" d="M230.08,103.91a9.23,9.23,0,1,1-9.23,9.22,9.23,9.23,0,0,1,9.23-9.22m0-2a11.23,11.23,0,1,0,11.23,11.22,11.24,11.24,0,0,0-11.23-11.22Z"/><path class="cls-5" d="M309.39,148.52a20.93,20.93,0,1,1,20.94-20.93A21,21,0,0,1,309.39,148.52Z"/><path class="cls-6" d="M309.39,107.66a19.93,19.93,0,1,1-19.93,19.93,19.93,19.93,0,0,1,19.93-19.93m0-2a21.93,21.93,0,1,0,21.93,21.93,22,22,0,0,0-21.93-21.93Z"/><path class="cls-8" d="M190.71,63.48a21.64,21.64,0,1,1,21.63-21.64A21.67,21.67,0,0,1,190.71,63.48Z"/><path class="cls-6" d="M190.71,21.21a20.63,20.63,0,1,1-20.64,20.63,20.63,20.63,0,0,1,20.64-20.63m0-2a22.63,22.63,0,1,0,22.63,22.63,22.66,22.66,0,0,0-22.63-22.63Z"/><circle class="cls-4" cx="271.7" cy="70.9" r="14.57"/><path class="cls-6" d="M271.7,57.33A13.57,13.57,0,1,1,258.14,70.9,13.56,13.56,0,0,1,271.7,57.33m0-2A15.57,15.57,0,1,0,287.27,70.9,15.58,15.58,0,0,0,271.7,55.33Z"/><path class="cls-4" d="M278.79,254.63a20.54,20.54,0,1,1,20.53-20.53A20.56,20.56,0,0,1,278.79,254.63Z"/><path class="cls-6" d="M278.79,214.56a19.54,19.54,0,1,1-19.54,19.53,19.53,19.53,0,0,1,19.54-19.53m0-2a21.54,21.54,0,1,0,21.53,21.53,21.56,21.56,0,0,0-21.53-21.53Z"/><path class="cls-9" d="M255.06,190.57a12.4,12.4,0,1,1,12.39-12.4A12.42,12.42,0,0,1,255.06,190.57Z"/><path class="cls-6" d="M255.06,166.77a11.4,11.4,0,1,1-11.4,11.4,11.4,11.4,0,0,1,11.4-11.4m0-2a13.4,13.4,0,1,0,13.39,13.4,13.41,13.41,0,0,0-13.39-13.4Z"/><path class="cls-4" d="M114.61,148.27a11.56,11.56,0,1,1,11.56-11.55A11.56,11.56,0,0,1,114.61,148.27Z"/><path class="cls-6" d="M114.61,126.16a10.56,10.56,0,1,1-10.55,10.56,10.56,10.56,0,0,1,10.55-10.56m0-2a12.56,12.56,0,1,0,12.56,12.56,12.57,12.57,0,0,0-12.56-12.56Z"/><path class="cls-5" d="M127,95.9a10.23,10.23,0,1,1,10.22-10.23A10.24,10.24,0,0,1,127,95.9Z"/><path class="cls-6" d="M127,76.45a9.23,9.23,0,1,1-9.23,9.22A9.22,9.22,0,0,1,127,76.45m0-2a11.23,11.23,0,1,0,11.22,11.22A11.24,11.24,0,0,0,127,74.45Z"/><path class="cls-5" d="M112,262.71a12.78,12.78,0,1,1,12.77-12.77A12.79,12.79,0,0,1,112,262.71Z"/><path class="cls-6" d="M112,238.16a11.78,11.78,0,1,1-11.78,11.78A11.77,11.77,0,0,1,112,238.16m0-2a13.78,13.78,0,1,0,13.77,13.78A13.79,13.79,0,0,0,112,236.16Z"/><path class="cls-7" d="M75.13,107.48A15.15,15.15,0,1,1,90.28,92.33,15.17,15.17,0,0,1,75.13,107.48Z"/><path class="cls-6" d="M75.13,78.18A14.15,14.15,0,1,1,61,92.33,14.15,14.15,0,0,1,75.13,78.18m0-2A16.15,16.15,0,1,0,91.28,92.33,16.16,16.16,0,0,0,75.13,76.18Z"/><path class="cls-8" d="M61,211.07a15.65,15.65,0,1,1,15.65-15.65A15.67,15.67,0,0,1,61,211.07Z"/><path class="cls-6" d="M61,180.77a14.65,14.65,0,1,1-14.65,14.65A14.65,14.65,0,0,1,61,180.77m0-2a16.65,16.65,0,1,0,16.65,16.65A16.67,16.67,0,0,0,61,178.77Z"/><path class="cls-2" d="M197.14,200.91a23.09,23.09,0,1,1,23.09-23.09A23.12,23.12,0,0,1,197.14,200.91Z"/><path class="cls-6" d="M197.14,155.73a22.09,22.09,0,1,1-22.09,22.09,22.09,22.09,0,0,1,22.09-22.09m0-2a24.09,24.09,0,1,0,24.09,24.09,24.12,24.12,0,0,0-24.09-24.09Z"/><path class="cls-10" d="M393.3,109.57V52.14h20.5C430.48,52.14,435,63.76,435,80c0,16.43-4.31,29.54-21.24,29.54Zm20.5-51.78H399.69v46.14H413.8c11.95,0,14.69-11.45,14.69-23.9S425.75,57.79,413.8,57.79Z"/><path class="cls-10" d="M445.75,51.48H452V58.7h-6.23Zm0,16.6H452v41.49h-6.23Z"/><path class="cls-10" d="M462.1,116.55c0-4.82,2.24-7.06,6.56-10.29-1.49-1-2.32-3.16-2.32-5.73,0-1.58,2.82-6.56,2.82-6.56-3.49-1.57-6.56-4.89-6.56-12.53,0-10.21,6.31-14.19,15.52-14.19a42.88,42.88,0,0,1,8.63,1.08L499,68v5.31l-7.89-.17c1.58,1.58,2.74,3.9,2.74,8.3,0,10.79-5.39,14-16,14a34,34,0,0,1-4.06-.34,24.84,24.84,0,0,0-1.5,4.73c0,3.32.67,3.82,10,3.82,11.79,0,16,2.33,16,12.2,0,9.38-6.72,13.2-18.42,13.2C466.83,129.08,462.1,126.17,462.1,116.55Zm10.79-7.81c-3.48,2.58-4.64,4.07-4.64,7.31,0,5.73,2.4,7.8,11.78,7.8,8.3,0,12-2.24,12-7.72,0-6.31-2.65-7-10.2-7C479,109.16,472.89,108.74,472.89,108.74Zm14.78-27.3c0-6.56-2.58-9.13-9.55-9.13-6.47,0-9.29,2.57-9.29,9.13s2.82,9,9.29,9C485.09,90.49,487.67,88,487.67,81.44Z"/><path class="cls-10" d="M506.59,51.48h6.23V58.7h-6.23Zm0,16.6h6.23v41.49h-6.23Z"/><path class="cls-10" d="M533.07,73.47V93.31c0,9,.58,11.62,6,11.62,2.33,0,7.39-.5,7.39-.5l.41,5.14a72.09,72.09,0,0,1-8.46.92c-8.55,0-11.46-3.24-11.46-15.19V73.47H521V68.08h5.89V55.38h6.15v12.7h13.19v5.39Z"/><path class="cls-10" d="M583.2,101.86c.16,2.4,2.15,3.32,4.81,3.65l-.25,4.89c-4.4,0-7.38-.83-9.88-3.31,0,0-7.46,3.31-14.93,3.31s-11.71-4.31-11.71-12.69c0-8,4.15-11.46,12.7-12.29l13-1.24V80.61c0-5.81-2.49-7.88-7.47-7.88-5.81,0-15.68,1.08-15.68,1.08l-.25-4.74a100.85,100.85,0,0,1,16.27-1.82c9.37,0,13.36,4.31,13.36,13.36ZM564.69,90.07c-5.06.5-7.06,2.91-7.06,7.47,0,4.82,2.08,7.64,6.31,7.64,6.14,0,13-2.58,13-2.58V88.91Z"/><path class="cls-10" d="M596,50h6.23v59.58H596Z"/><path class="cls-10" d="M428.9,173.2H399.69v26H393.3V141.74h6.39v25.73H428.9V141.74h6.31v57.44H428.9Z"/><path class="cls-10" d="M480.36,157.68v41.5h-6.22v-2.91S467.91,200,461.85,200c-11.61,0-14-5.4-14-20.67V157.68h6.22v21.58c0,11.45,1,15.18,8.72,15.18a25.17,25.17,0,0,0,11.37-3.07V157.68Z"/><path class="cls-10" d="M492.32,199.18v-41.5h6.14v2.9s6.22-3.73,12.11-3.73c5.56,0,8.64,1.24,10.79,4.23,0,0,7.39-4.23,14.78-4.23,11.28,0,14,5.39,14,20.42v21.91h-6.22V177.43c0-11-1.25-15-8.72-15a27.44,27.44,0,0,0-11.7,3.07c.75,1.91,1.08,7.14,1.08,12.12v21.58h-6.22V177.76c0-11.45-1.17-15.35-8.72-15.35a24.83,24.83,0,0,0-11.12,3.07v33.7Z"/><path class="cls-10" d="M591,191.46c.17,2.4,2.16,3.32,4.81,3.65l-.25,4.9c-4.39,0-7.38-.83-9.87-3.32,0,0-7.47,3.32-14.94,3.32s-11.7-4.32-11.7-12.7c0-8,4.15-11.46,12.7-12.29l13-1.24v-3.57c0-5.81-2.49-7.88-7.47-7.88-5.81,0-15.69,1.07-15.69,1.07l-.25-4.73a100.85,100.85,0,0,1,16.27-1.82c9.38,0,13.36,4.31,13.36,13.36Zm-18.51-11.79c-5.06.5-7,2.91-7,7.47,0,4.81,2.07,7.64,6.31,7.64,6.14,0,13-2.58,13-2.58V178.51Z"/><path class="cls-10" d="M603.29,199.18v-41.5h6.14v2.9s6.72-3.73,12.86-3.73c11.45,0,14,5.64,14,20.42v21.91h-6.15V177.43c0-11-1.24-15-9-15a28.43,28.43,0,0,0-11.7,3.07v33.7Z"/><path class="cls-10" d="M647.86,141.08h6.22v7.22h-6.22Zm0,16.6h6.22v41.5h-6.22Z"/><path class="cls-10" d="M674.33,163.07v19.84c0,9,.58,11.62,6,11.62,2.32,0,7.38-.5,7.38-.5l.42,5.15a72.83,72.83,0,0,1-8.47.91c-8.55,0-11.45-3.24-11.45-15.19V163.07H662.3v-5.39h5.89V145h6.14v12.7h13.2v5.39Z"/><path class="cls-10" d="M695.17,141.08h6.22v7.22h-6.22Zm0,16.6h6.22v41.5h-6.22Z"/><path class="cls-10" d="M744,193.78l.16,4.9A144.43,144.43,0,0,1,728,200c-12.37,0-16.43-7.23-16.43-21.33,0-15.77,6.8-21.83,17.34-21.83,11,0,16.68,5.81,16.68,19.42l-.33,4.73H717.82c0,8.88,2.74,13.53,10.88,13.53C734.92,194.53,744,193.78,744,193.78ZM739.32,176c0-10.29-3.15-13.94-10.46-13.94-7.05,0-11,3.9-11.12,13.94Z"/><path class="cls-10" d="M782.81,163.74a135.59,135.59,0,0,0-14.52-1.33c-5.15,0-9,1.41-9,6.31,0,3.9,2,5,10.79,6.47,10.37,1.74,14.27,3.82,14.27,11.87,0,9.71-6.14,12.95-16.1,12.95a116.8,116.8,0,0,1-14.6-1.58l.33-5.4s9.46,1.41,13.69,1.41c6.81,0,10.46-1.49,10.46-7.13,0-4.32-2.16-5.4-11.2-6.81C757.5,179,753,177.27,753,169c0-9.13,7.39-12.12,14.94-12.12a106,106,0,0,1,15,1.58Z"/><path class="cls-10" d="M399.69,266.78v22H393.3V231.34h21.24c12,0,18.34,5.32,18.34,17.43,0,8.47-3.31,14.36-10.54,16.68l11,23.33h-7.05l-10.38-22ZM414.54,237H399.69v24.15h14.94c8.63,0,11.7-5.15,11.7-12.37C426.33,240.89,422.59,237,414.54,237Z"/><path class="cls-10" d="M473.22,283.38l.17,4.9a144.43,144.43,0,0,1-16.18,1.33c-12.37,0-16.44-7.23-16.44-21.33,0-15.77,6.81-21.83,17.35-21.83,11,0,16.68,5.81,16.68,19.42l-.33,4.73H447.08c0,8.88,2.74,13.53,10.87,13.53C464.18,284.13,473.22,283.38,473.22,283.38Zm-4.64-17.76c0-10.29-3.16-13.94-10.46-13.94-7.05,0-11,3.9-11.12,13.94Z"/><path class="cls-10" d="M512.07,253.34A135.59,135.59,0,0,0,497.54,252c-5.14,0-9,1.41-9,6.31,0,3.9,2,5,10.79,6.47,10.37,1.74,14.27,3.82,14.27,11.87,0,9.71-6.14,12.95-16.1,12.95A117.05,117.05,0,0,1,482.85,288l.34-5.4s9.46,1.41,13.69,1.41c6.81,0,10.46-1.49,10.46-7.13,0-4.32-2.16-5.4-11.21-6.81-9.38-1.49-13.86-3.24-13.86-11.53,0-9.13,7.39-12.12,14.94-12.12a105.76,105.76,0,0,1,15,1.58Z"/><path class="cls-10" d="M553.73,283.38l.17,4.9a144.43,144.43,0,0,1-16.18,1.33c-12.37,0-16.44-7.23-16.44-21.33,0-15.77,6.81-21.83,17.35-21.83,11,0,16.68,5.81,16.68,19.42L555,270.6H527.59c0,8.88,2.74,13.53,10.87,13.53C544.69,284.13,553.73,283.38,553.73,283.38Zm-4.64-17.76c0-10.29-3.16-13.94-10.46-13.94-7.06,0-11,3.9-11.12,13.94Z"/><path class="cls-10" d="M594.32,281.06c.17,2.4,2.16,3.32,4.81,3.65l-.25,4.9c-4.39,0-7.38-.83-9.87-3.32,0,0-7.47,3.32-14.94,3.32s-11.7-4.32-11.7-12.7c0-8,4.15-11.46,12.7-12.29l13-1.24v-3.57c0-5.81-2.49-7.88-7.47-7.88-5.81,0-15.69,1.08-15.69,1.08l-.25-4.73A100.32,100.32,0,0,1,581,246.45c9.38,0,13.36,4.31,13.36,13.36Zm-18.51-11.79c-5.06.5-7,2.91-7,7.47,0,4.82,2.07,7.64,6.31,7.64,6.14,0,13-2.58,13-2.58V268.11Z"/><path class="cls-10" d="M606.61,247.28h6.14v5.64s7.22-5,15.18-6.55v6.3a60.18,60.18,0,0,0-15.1,5.65v30.46h-6.22Z"/><path class="cls-10" d="M661.3,247.69l-.25,5.07s-6.64-.75-9.79-.75c-9.55,0-12.12,4.15-12.12,15.27,0,12.28,1.91,16.76,12.2,16.76,3.16,0,9.79-.74,9.79-.74l.25,5.14a109.15,109.15,0,0,1-11.53,1.17c-13.2,0-17.1-6.06-17.1-22.33,0-15,4.9-20.83,17.26-20.83A96.71,96.71,0,0,1,661.3,247.69Z"/><path class="cls-10" d="M670.68,288.78V229.19h6.23V249.6s6.63-3.15,12.78-3.15c11.37,0,14,5.64,14,20.41v21.92h-6.22V267c0-10.95-1.25-15-8.88-15a34.13,34.13,0,0,0-11.7,2.49v34.28Z"/><path class="cls-10" d="M393.3,320.94h6.39v57.44H393.3Z"/><path class="cls-10" d="M412.64,378.38v-41.5h6.14v2.9s6.72-3.73,12.86-3.73c11.45,0,14,5.64,14,20.42v21.91h-6.14V356.63c0-10.95-1.25-15-9-15a28.43,28.43,0,0,0-11.7,3.07v33.7Z"/><path class="cls-10" d="M484.76,342.94a135.59,135.59,0,0,0-14.52-1.33c-5.15,0-9.05,1.41-9.05,6.31,0,3.9,2,5,10.79,6.47,10.37,1.74,14.27,3.82,14.27,11.87,0,9.71-6.14,12.95-16.1,12.95a116.8,116.8,0,0,1-14.6-1.58l.33-5.4a137.17,137.17,0,0,0,13.69,1.42c6.81,0,10.46-1.5,10.46-7.14,0-4.32-2.16-5.4-11.2-6.81-9.38-1.49-13.87-3.23-13.87-11.53,0-9.13,7.39-12.12,14.94-12.12a106,106,0,0,1,15,1.58Z"/><path class="cls-10" d="M504.1,342.27v19.84c0,9,.58,11.62,6,11.62,2.32,0,7.38-.5,7.38-.5l.42,5.15a72.83,72.83,0,0,1-8.47.91c-8.55,0-11.45-3.24-11.45-15.19V342.27h-5.89v-5.39H498v-12.7h6.14v12.7h13.2v5.39Z"/><path class="cls-10" d="M524.93,320.28h6.23v7.22h-6.23Zm0,16.6h6.23v41.5h-6.23Z"/><path class="cls-10" d="M551.41,342.27v19.84c0,9,.58,11.62,6,11.62,2.33,0,7.39-.5,7.39-.5l.42,5.15a72.83,72.83,0,0,1-8.47.91c-8.55,0-11.45-3.24-11.45-15.19V342.27h-5.89v-5.39h5.89v-12.7h6.14v12.7h13.2v5.39Z"/><path class="cls-10" d="M604.36,336.88v41.5h-6.22v-2.91s-6.23,3.74-12.29,3.74c-11.61,0-14-5.4-14-20.67V336.88h6.22v21.58c0,11.45,1,15.19,8.72,15.19a25.11,25.11,0,0,0,11.37-3.08V336.88Z"/><path class="cls-10" d="M624.61,342.27v19.84c0,9,.59,11.62,6,11.62,2.32,0,7.39-.5,7.39-.5l.41,5.15a72.85,72.85,0,0,1-8.46.91c-8.55,0-11.46-3.24-11.46-15.19V342.27h-5.89v-5.39h5.89v-12.7h6.14v12.7h13.2v5.39Z"/><path class="cls-10" d="M676.07,373l.17,4.9a144.45,144.45,0,0,1-16.19,1.33c-12.36,0-16.43-7.22-16.43-21.33,0-15.77,6.81-21.83,17.35-21.83,11,0,16.68,5.81,16.68,19.42l-.33,4.73H649.93c0,8.88,2.74,13.53,10.87,13.53C667,373.73,676.07,373,676.07,373Zm-4.65-17.76c0-10.29-3.15-13.94-10.45-13.94-7.06,0-11,3.9-11.12,13.94Z"/></svg>