<svg id="Layer_1" data-name="Layer 1" xmlns="http://www.w3.org/2000/svg" viewBox="0 0 857.42 408.22"><defs><style>.cls-1{font-size:62px;fill:#434343;}.cls-1,.cls-18{font-family:Titillium-Regular, Titillium;}.cls-2{letter-spacing:-0.01em;}.cls-3{letter-spacing:-0.01em;}.cls-4,.cls-5,.cls-6,.cls-7,.cls-8{fill:none;stroke-miterlimit:10;}.cls-4{stroke:#c2cccb;stroke-width:3px;}.cls-5{stroke:#9bbb4f;}.cls-5,.cls-6,.cls-7,.cls-8{stroke-width:15px;}.cls-6{stroke:#00b3be;}.cls-7{stroke:#ef3e3a;}.cls-8{stroke:#6155a4;}.cls-9{fill:#231f20;}.cls-10,.cls-18{fill:#fff;}.cls-11{fill:#00b3be;}.cls-12{fill:#cf232c;}.cls-13{fill:#6155a4;}.cls-14{fill:#eb9522;}.cls-15{fill:#ef3e3a;}.cls-16{fill:#766f65;}.cls-17{fill:#9bbb4f;}.cls-18{font-size:82.98px;}.cls-19{letter-spacing:-0.01em;}.cls-20{letter-spacing:-0.01em;}</style></defs><title>Artboard 1 copy 4</title><text class="cls-1" transform="translate(-650.91 298.15)">Digital Humanities<tspan class="cls-2" x="0" y="74.4">R</tspan><tspan x="37.63" y="74.4">esea</tspan><tspan class="cls-3" x="160.15" y="74.4">r</tspan><tspan x="180.98" y="74.4">ch Institute</tspan></text><line class="cls-4" x1="256.5" y1="178.82" x2="278.79" y2="234.1"/><line class="cls-4" x1="196.22" y1="177.82" x2="256.5" y2="178.82"/><line class="cls-4" x1="135.03" y1="195.04" x2="197.14" y2="177.82"/><line class="cls-4" x1="62.29" y1="195.04" x2="112.03" y2="249.94"/><line class="cls-4" x1="53.65" y1="142.14" x2="62.29" y2="195.04"/><line class="cls-4" x1="114.66" y1="136.93" x2="136.91" y2="195.42"/><line class="cls-4" x1="53.65" y1="142.14" x2="114.61" y2="136.72"/><line class="cls-4" x1="61.68" y1="195.19" x2="136.91" y2="195.42"/><line class="cls-4" x1="75.87" y1="92.33" x2="53.65" y2="142.14"/><line class="cls-4" x1="127.44" y1="85.02" x2="75.87" y2="92.33"/><line class="cls-4" x1="191.4" y1="41.03" x2="126.97" y2="85.67"/><line class="cls-4" x1="173.97" y1="99.91" x2="190.71" y2="41.84"/><line class="cls-4" x1="271.7" y1="70.9" x2="190.71" y2="41.84"/><line class="cls-4" x1="231.31" y1="113.13" x2="309.39" y2="127.59"/><line class="cls-4" x1="172.33" y1="99.9" x2="231.31" y2="113.13"/><line class="cls-4" x1="127.32" y1="84.94" x2="173.97" y2="100.46"/><line class="cls-4" x1="127.85" y1="85.12" x2="114.66" y2="136.93"/><line class="cls-4" x1="173.97" y1="100.46" x2="114.66" y2="136.93"/><line class="cls-4" x1="197.14" y1="177.82" x2="173.44" y2="100.78"/><line class="cls-4" x1="197.14" y1="177.82" x2="231.31" y2="113.13"/><line class="cls-4" x1="228.67" y1="116.11" x2="271.7" y2="70.9"/><line class="cls-4" x1="230.44" y1="113.97" x2="256.5" y2="178.82"/><line class="cls-4" x1="230.44" y1="113.04" x2="256.5" y2="177.9"/><line class="cls-4" x1="230.44" y1="113.04" x2="309.48" y2="186.76"/><line class="cls-4" x1="271.7" y1="70.9" x2="310.77" y2="124.9"/><line class="cls-4" x1="308.47" y1="127.59" x2="310.4" y2="186.76"/><line class="cls-4" x1="309.48" y1="186.76" x2="278.79" y2="234.1"/><polyline class="cls-5" points="135.98 270.85 151.18 283.33 151.18 378.3"/><polyline class="cls-6" points="173.97 378.3 173.97 251.86 158.23 230.7"/><polyline class="cls-7" points="196.22 378.3 196.22 245.12 236.84 214.73"/><polyline class="cls-8" points="219.01 378.3 219.01 292.54 248.31 263.24"/><circle class="cls-9" cx="136.91" cy="195.42" r="18.83"/><path class="cls-10" d="M136.91,177.59a17.83,17.83,0,1,1-17.83,17.83,17.84,17.84,0,0,1,17.83-17.83m0-2a19.83,19.83,0,1,0,19.83,19.83,19.85,19.85,0,0,0-19.83-19.83Z"/><path class="cls-9" d="M310.4,200a13.22,13.22,0,1,1,13.22-13.21A13.22,13.22,0,0,1,310.4,200Z"/><path class="cls-10" d="M310.4,174.54a12.22,12.22,0,1,1-12.21,12.22,12.22,12.22,0,0,1,12.21-12.22m0-2a14.22,14.22,0,1,0,14.22,14.22,14.23,14.23,0,0,0-14.22-14.22Z"/><path class="cls-9" d="M53.65,158.14a16,16,0,1,1,16-16A16,16,0,0,1,53.65,158.14Z"/><path class="cls-10" d="M53.65,127.15a15,15,0,1,1-15,15,15,15,0,0,1,15-15m0-2a17,17,0,1,0,17,17,17,17,0,0,0-17-17Z"/><path class="cls-11" d="M174,119.37a18.91,18.91,0,1,1,18.91-18.91A18.93,18.93,0,0,1,174,119.37Z"/><path class="cls-10" d="M174,82.55a17.91,17.91,0,1,1-17.91,17.91A17.91,17.91,0,0,1,174,82.55m0-2a19.91,19.91,0,1,0,19.91,19.91A19.93,19.93,0,0,0,174,80.55Z"/><path class="cls-12" d="M230.08,123.36a10.23,10.23,0,1,1,10.23-10.23A10.23,10.23,0,0,1,230.08,123.36Z"/><path class="cls-10" d="M230.08,103.91a9.23,9.23,0,1,1-9.23,9.22,9.23,9.23,0,0,1,9.23-9.22m0-2a11.23,11.23,0,1,0,11.23,11.22,11.24,11.24,0,0,0-11.23-11.22Z"/><path class="cls-13" d="M309.39,148.52a20.93,20.93,0,1,1,20.93-20.93A21,21,0,0,1,309.39,148.52Z"/><path class="cls-10" d="M309.39,107.66a19.93,19.93,0,1,1-19.93,19.93,19.93,19.93,0,0,1,19.93-19.93m0-2a21.93,21.93,0,1,0,21.93,21.93,22,22,0,0,0-21.93-21.93Z"/><path class="cls-14" d="M190.71,63.48a21.64,21.64,0,1,1,21.63-21.64A21.67,21.67,0,0,1,190.71,63.48Z"/><path class="cls-10" d="M190.71,21.21a20.63,20.63,0,1,1-20.64,20.63,20.63,20.63,0,0,1,20.64-20.63m0-2a22.63,22.63,0,1,0,22.63,22.63,22.66,22.66,0,0,0-22.63-22.63Z"/><path class="cls-15" d="M271.7,85.46A14.57,14.57,0,1,1,286.27,70.9,14.57,14.57,0,0,1,271.7,85.46Z"/><path class="cls-10" d="M271.7,57.33A13.57,13.57,0,1,1,258.14,70.9,13.56,13.56,0,0,1,271.7,57.33m0-2A15.57,15.57,0,1,0,287.27,70.9,15.58,15.58,0,0,0,271.7,55.33Z"/><path class="cls-15" d="M278.79,254.63a20.54,20.54,0,1,1,20.53-20.53A20.56,20.56,0,0,1,278.79,254.63Z"/><path class="cls-10" d="M278.79,214.56a19.54,19.54,0,1,1-19.54,19.54,19.53,19.53,0,0,1,19.54-19.54m0-2a21.54,21.54,0,1,0,21.53,21.54,21.56,21.56,0,0,0-21.53-21.54Z"/><path class="cls-16" d="M255.06,190.56a12.4,12.4,0,1,1,12.39-12.39A12.41,12.41,0,0,1,255.06,190.56Z"/><path class="cls-10" d="M255.06,166.77a11.4,11.4,0,1,1-11.4,11.4,11.4,11.4,0,0,1,11.4-11.4m0-2a13.4,13.4,0,1,0,13.39,13.4,13.41,13.41,0,0,0-13.39-13.4Z"/><path class="cls-15" d="M114.61,148.27a11.56,11.56,0,1,1,11.56-11.55A11.56,11.56,0,0,1,114.61,148.27Z"/><path class="cls-10" d="M114.61,126.16a10.56,10.56,0,1,1-10.55,10.56,10.56,10.56,0,0,1,10.55-10.56m0-2a12.56,12.56,0,1,0,12.56,12.56,12.57,12.57,0,0,0-12.56-12.56Z"/><path class="cls-13" d="M127,95.9a10.23,10.23,0,1,1,10.22-10.23A10.24,10.24,0,0,1,127,95.9Z"/><path class="cls-10" d="M127,76.45a9.23,9.23,0,1,1-9.23,9.22A9.22,9.22,0,0,1,127,76.45m0-2a11.23,11.23,0,1,0,11.22,11.22A11.24,11.24,0,0,0,127,74.45Z"/><path class="cls-13" d="M112,262.71a12.78,12.78,0,1,1,12.77-12.77A12.79,12.79,0,0,1,112,262.71Z"/><path class="cls-10" d="M112,238.16a11.78,11.78,0,1,1-11.78,11.78A11.77,11.77,0,0,1,112,238.16m0-2a13.78,13.78,0,1,0,13.77,13.78A13.79,13.79,0,0,0,112,236.16Z"/><path class="cls-12" d="M75.13,107.48A15.15,15.15,0,1,1,90.28,92.33,15.17,15.17,0,0,1,75.13,107.48Z"/><path class="cls-10" d="M75.13,78.18A14.15,14.15,0,1,1,61,92.33,14.15,14.15,0,0,1,75.13,78.18m0-2A16.15,16.15,0,1,0,91.28,92.33,16.16,16.16,0,0,0,75.13,76.18Z"/><path class="cls-14" d="M61,211.07a15.65,15.65,0,1,1,15.65-15.65A15.67,15.67,0,0,1,61,211.07Z"/><path class="cls-10" d="M61,180.77a14.65,14.65,0,1,1-14.65,14.65A14.65,14.65,0,0,1,61,180.77m0-2a16.65,16.65,0,1,0,16.65,16.65A16.67,16.67,0,0,0,61,178.77Z"/><path class="cls-17" d="M197.14,200.91a23.09,23.09,0,1,1,23.09-23.09A23.12,23.12,0,0,1,197.14,200.91Z"/><path class="cls-10" d="M197.14,155.73a22.09,22.09,0,1,1-22.09,22.09,22.09,22.09,0,0,1,22.09-22.09m0-2a24.09,24.09,0,1,0,24.09,24.09,24.12,24.12,0,0,0-24.09-24.09Z"/><text class="cls-18" transform="translate(386.24 109.56)">Digital<tspan x="0" y="87.97">Humanities</tspan><tspan class="cls-19" x="0" y="175.95">R</tspan><tspan x="50.37" y="175.95">esea</tspan><tspan class="cls-20" x="214.33" y="175.95">r</tspan><tspan x="242.21" y="175.95">ch</tspan><tspan x="0" y="263.92">Institute</tspan></text></svg>