<svg id="Layer_1" data-name="Layer 1" xmlns="http://www.w3.org/2000/svg" viewBox="0 0 857.42 408.22"><defs><style>.cls-1{fill:#c2cccb;}.cls-2{fill:#9bbb4f;}.cls-3{fill:#00b3be;}.cls-4{fill:#ef3e3a;}.cls-5{fill:#6155a4;}.cls-6{fill:#231f20;}.cls-7{fill:#fff;}.cls-8{fill:#cf232c;}.cls-9{fill:#eb9522;}.cls-10{fill:#766f65;}</style></defs><title>Artboard 1 copy 4</title><rect class="cls-1" x="266.14" y="176.66" width="3" height="59.6" transform="translate(-57.79 115.09) rotate(-21.96)"/><rect class="cls-1" x="224.86" y="148.18" width="3" height="60.29" transform="matrix(0.02, -1, 1, 0.02, 44.28, 401.67)"/><rect class="cls-1" x="133.86" y="184.93" width="64.45" height="3" transform="translate(-43.74 51.11) rotate(-15.48)"/><rect class="cls-1" x="85.66" y="185.45" width="3" height="74.08" transform="translate(-126.81 116.12) rotate(-42.17)"/><rect class="cls-1" x="56.47" y="141.79" width="3" height="53.59" transform="translate(-26.42 11.55) rotate(-9.28)"/><rect class="cls-1" x="124.28" y="134.88" width="3" height="62.58" transform="translate(-50.86 55.57) rotate(-20.82)"/><rect class="cls-1" x="53.53" y="137.93" width="61.2" height="3" transform="translate(-12.01 8) rotate(-5.08)"/><rect class="cls-1" x="97.79" y="157.69" width="3" height="75.23" transform="translate(-96.33 293.98) rotate(-89.82)"/><rect class="cls-1" x="37.49" y="115.74" width="54.54" height="3" transform="translate(-68.69 128.64) rotate(-65.97)"/><rect class="cls-1" x="75.61" y="87.18" width="52.08" height="3" transform="translate(-11.41 15.1) rotate(-8.05)"/><rect class="cls-1" x="119.99" y="61.85" width="78.39" height="3" transform="translate(-7.74 101.96) rotate(-34.72)"/><rect class="cls-1" x="152.12" y="69.37" width="60.43" height="3" transform="translate(63.73 226.44) rotate(-73.92)"/><rect class="cls-1" x="229.7" y="13.34" width="3" height="86.05" transform="translate(100.08 254.96) rotate(-70.27)"/><rect class="cls-1" x="268.85" y="80.65" width="3" height="79.41" transform="translate(102.78 364.28) rotate(-79.51)"/><rect class="cls-1" x="200.32" y="76.29" width="3" height="60.45" transform="translate(53.71 280.13) rotate(-77.36)"/><rect class="cls-1" x="149.14" y="68.12" width="3" height="49.17" transform="translate(15.14 206.4) rotate(-71.61)"/><rect class="cls-1" x="94.52" y="109.52" width="53.46" height="3" transform="translate(-16.26 201.12) rotate(-75.71)"/><rect class="cls-1" x="109.5" y="117.19" width="69.63" height="3" transform="translate(-40.8 93.22) rotate(-31.6)"/><rect class="cls-1" x="183.79" y="99" width="3" height="80.6" transform="translate(-32.77 60.66) rotate(-17.1)"/><rect class="cls-1" x="177.65" y="143.97" width="73.16" height="3" transform="translate(-14.48 266.93) rotate(-62.15)"/><rect class="cls-1" x="218.98" y="92" width="62.42" height="3" transform="translate(9.99 210.3) rotate(-46.42)"/><rect class="cls-1" x="241.97" y="111.45" width="3" height="69.9" transform="translate(-37.03 101.34) rotate(-21.89)"/><rect class="cls-1" x="241.97" y="110.52" width="3" height="69.9" transform="translate(-36.68 101.27) rotate(-21.89)"/><rect class="cls-1" x="268.46" y="95.86" width="3" height="108.08" transform="translate(-23.79 245.09) rotate(-47)"/><rect class="cls-1" x="289.73" y="64.57" width="3" height="66.65" transform="translate(-2.12 189.26) rotate(-35.88)"/><rect class="cls-1" x="307.94" y="127.58" width="3" height="59.2" transform="translate(-4.96 10.18) rotate(-1.87)"/><rect class="cls-1" x="265.93" y="208.93" width="56.41" height="3" transform="translate(-42.43 342.79) rotate(-57.05)"/><polygon class="cls-2" points="158.68 378.3 143.68 378.3 143.68 286.88 131.22 276.65 140.74 265.06 158.68 279.79 158.68 378.3"/><polygon class="cls-3" points="181.47 378.3 166.47 378.3 166.47 254.34 152.21 235.17 164.25 226.22 181.47 249.38 181.47 378.3"/><polygon class="cls-4" points="203.72 378.3 188.72 378.3 188.72 241.36 232.35 208.72 241.33 220.73 203.72 248.87 203.72 378.3"/><polygon class="cls-5" points="226.51 378.3 211.51 378.3 211.51 289.44 243.01 257.94 253.62 268.54 226.51 295.65 226.51 378.3"/><circle class="cls-6" cx="136.91" cy="195.42" r="18.83"/><path class="cls-7" d="M136.91,177.59a17.83,17.83,0,1,1-17.83,17.83,17.84,17.84,0,0,1,17.83-17.83m0-2a19.83,19.83,0,1,0,19.83,19.83,19.85,19.85,0,0,0-19.83-19.83Z"/><path class="cls-6" d="M310.4,200a13.22,13.22,0,1,1,13.22-13.21A13.22,13.22,0,0,1,310.4,200Z"/><path class="cls-7" d="M310.4,174.54a12.22,12.22,0,1,1-12.21,12.22,12.22,12.22,0,0,1,12.21-12.22m0-2a14.22,14.22,0,1,0,14.22,14.22,14.23,14.23,0,0,0-14.22-14.22Z"/><path class="cls-6" d="M53.65,158.14a16,16,0,1,1,16-16A16,16,0,0,1,53.65,158.14Z"/><path class="cls-7" d="M53.65,127.15a15,15,0,1,1-15,15,15,15,0,0,1,15-15m0-2a17,17,0,1,0,17,17,17,17,0,0,0-17-17Z"/><path class="cls-3" d="M174,119.37a18.91,18.91,0,1,1,18.91-18.91A18.93,18.93,0,0,1,174,119.37Z"/><path class="cls-7" d="M174,82.55a17.91,17.91,0,1,1-17.91,17.91A17.91,17.91,0,0,1,174,82.55m0-2a19.91,19.91,0,1,0,19.91,19.91A19.93,19.93,0,0,0,174,80.55Z"/><path class="cls-8" d="M230.08,123.36a10.23,10.23,0,1,1,10.23-10.23A10.23,10.23,0,0,1,230.08,123.36Z"/><path class="cls-7" d="M230.08,103.91a9.23,9.23,0,1,1-9.23,9.22,9.23,9.23,0,0,1,9.23-9.22m0-2a11.23,11.23,0,1,0,11.23,11.22,11.24,11.24,0,0,0-11.23-11.22Z"/><path class="cls-5" d="M309.39,148.52a20.93,20.93,0,1,1,20.93-20.93A21,21,0,0,1,309.39,148.52Z"/><path class="cls-7" d="M309.39,107.66a19.93,19.93,0,1,1-19.93,19.93,19.93,19.93,0,0,1,19.93-19.93m0-2a21.93,21.93,0,1,0,21.93,21.93,22,22,0,0,0-21.93-21.93Z"/><path class="cls-9" d="M190.71,63.48a21.64,21.64,0,1,1,21.63-21.64A21.67,21.67,0,0,1,190.71,63.48Z"/><path class="cls-7" d="M190.71,21.21a20.63,20.63,0,1,1-20.64,20.63,20.63,20.63,0,0,1,20.64-20.63m0-2a22.63,22.63,0,1,0,22.63,22.63,22.66,22.66,0,0,0-22.63-22.63Z"/><path class="cls-4" d="M271.7,85.46A14.57,14.57,0,1,1,286.27,70.9,14.57,14.57,0,0,1,271.7,85.46Z"/><path class="cls-7" d="M271.7,57.33A13.57,13.57,0,1,1,258.14,70.9,13.56,13.56,0,0,1,271.7,57.33m0-2A15.57,15.57,0,1,0,287.27,70.9,15.58,15.58,0,0,0,271.7,55.33Z"/><path class="cls-4" d="M278.79,254.63a20.54,20.54,0,1,1,20.53-20.53A20.56,20.56,0,0,1,278.79,254.63Z"/><path class="cls-7" d="M278.79,214.56a19.54,19.54,0,1,1-19.54,19.54,19.53,19.53,0,0,1,19.54-19.54m0-2a21.54,21.54,0,1,0,21.53,21.54,21.56,21.56,0,0,0-21.53-21.54Z"/><path class="cls-10" d="M255.06,190.56a12.4,12.4,0,1,1,12.39-12.39A12.41,12.41,0,0,1,255.06,190.56Z"/><path class="cls-7" d="M255.06,166.77a11.4,11.4,0,1,1-11.4,11.4,11.4,11.4,0,0,1,11.4-11.4m0-2a13.4,13.4,0,1,0,13.39,13.4,13.41,13.41,0,0,0-13.39-13.4Z"/><path class="cls-4" d="M114.61,148.27a11.56,11.56,0,1,1,11.56-11.55A11.56,11.56,0,0,1,114.61,148.27Z"/><path class="cls-7" d="M114.61,126.16a10.56,10.56,0,1,1-10.55,10.56,10.56,10.56,0,0,1,10.55-10.56m0-2a12.56,12.56,0,1,0,12.56,12.56,12.57,12.57,0,0,0-12.56-12.56Z"/><path class="cls-5" d="M127,95.9a10.23,10.23,0,1,1,10.22-10.23A10.24,10.24,0,0,1,127,95.9Z"/><path class="cls-7" d="M127,76.45a9.23,9.23,0,1,1-9.23,9.22A9.22,9.22,0,0,1,127,76.45m0-2a11.23,11.23,0,1,0,11.22,11.22A11.24,11.24,0,0,0,127,74.45Z"/><path class="cls-5" d="M112,262.71a12.78,12.78,0,1,1,12.77-12.77A12.79,12.79,0,0,1,112,262.71Z"/><path class="cls-7" d="M112,238.16a11.78,11.78,0,1,1-11.78,11.78A11.77,11.77,0,0,1,112,238.16m0-2a13.78,13.78,0,1,0,13.77,13.78A13.79,13.79,0,0,0,112,236.16Z"/><path class="cls-8" d="M75.13,107.48A15.15,15.15,0,1,1,90.28,92.33,15.17,15.17,0,0,1,75.13,107.48Z"/><path class="cls-7" d="M75.13,78.18A14.15,14.15,0,1,1,61,92.33,14.15,14.15,0,0,1,75.13,78.18m0-2A16.15,16.15,0,1,0,91.28,92.33,16.16,16.16,0,0,0,75.13,76.18Z"/><path class="cls-9" d="M61,211.07a15.65,15.65,0,1,1,15.65-15.65A15.67,15.67,0,0,1,61,211.07Z"/><path class="cls-7" d="M61,180.77a14.65,14.65,0,1,1-14.65,14.65A14.65,14.65,0,0,1,61,180.77m0-2a16.65,16.65,0,1,0,16.65,16.65A16.67,16.67,0,0,0,61,178.77Z"/><path class="cls-2" d="M197.14,200.91a23.09,23.09,0,1,1,23.09-23.09A23.12,23.12,0,0,1,197.14,200.91Z"/><path class="cls-7" d="M197.14,155.73a22.09,22.09,0,1,1-22.09,22.09,22.09,22.09,0,0,1,22.09-22.09m0-2a24.09,24.09,0,1,0,24.09,24.09,24.12,24.12,0,0,0-24.09-24.09Z"/><path class="cls-6" d="M393.3,109.56V52.14h20.49C430.47,52.14,435,63.76,435,80c0,16.43-4.31,29.54-21.24,29.54Zm20.49-51.78h-14.1v46.14h14.1c11.95,0,14.69-11.45,14.69-23.9S425.74,57.78,413.79,57.78Z"/><path class="cls-6" d="M445.74,51.48H452V58.7h-6.22Zm0,16.59H452v41.49h-6.22Z"/><path class="cls-6" d="M462.08,116.53c0-4.81,2.25-7,6.56-10.29-1.49-1-2.32-3.15-2.32-5.72,0-1.58,2.82-6.56,2.82-6.56-3.49-1.58-6.56-4.9-6.56-12.53,0-10.2,6.31-14.19,15.52-14.19a42.88,42.88,0,0,1,8.63,1.08L499,68V73.3l-7.88-.17c1.57,1.58,2.73,3.9,2.73,8.3,0,10.79-5.39,14-16,14a34.29,34.29,0,0,1-4.07-.33,24.71,24.71,0,0,0-1.49,4.73c0,3.32.66,3.82,10,3.82,11.78,0,16,2.32,16,12.2,0,9.37-6.73,13.19-18.43,13.19C466.81,129.06,462.08,126.16,462.08,116.53Zm10.79-7.8c-3.48,2.57-4.65,4.07-4.65,7.3,0,5.73,2.41,7.8,11.79,7.8,8.3,0,12-2.24,12-7.71,0-6.31-2.66-7-10.21-7C478.93,109.15,472.87,108.73,472.87,108.73Zm14.77-27.3c0-6.55-2.57-9.13-9.54-9.13-6.47,0-9.29,2.58-9.29,9.13s2.82,9,9.29,9C485.07,90.48,487.64,88,487.64,81.43Z"/><path class="cls-6" d="M506.56,51.48h6.22V58.7h-6.22Zm0,16.59h6.22v41.49h-6.22Z"/><path class="cls-6" d="M533,73.47V93.3c0,9,.58,11.61,6,11.61,2.33,0,7.39-.49,7.39-.49l.41,5.14a72.57,72.57,0,0,1-8.46.91c-8.55,0-11.45-3.23-11.45-15.18V73.47H521v-5.4h5.89V55.38H533V68.07h13.19v5.4Z"/><path class="cls-6" d="M583.15,101.84c.17,2.41,2.16,3.32,4.81,3.65l-.25,4.9c-4.39,0-7.38-.83-9.87-3.32,0,0-7.47,3.32-14.94,3.32s-11.7-4.31-11.7-12.7c0-8,4.15-11.45,12.7-12.28l13-1.24V80.6c0-5.81-2.49-7.88-7.47-7.88-5.81,0-15.68,1.08-15.68,1.08l-.25-4.73a100.13,100.13,0,0,1,16.26-1.83c9.38,0,13.36,4.32,13.36,13.36Zm-18.5-11.78c-5.07.5-7.06,2.91-7.06,7.47,0,4.81,2.08,7.63,6.31,7.63,6.14,0,13-2.57,13-2.57V88.9Z"/><path class="cls-6" d="M595.93,50h6.22v59.58h-6.22Z"/><path class="cls-6" d="M428.89,171.56h-29.2v26H393.3V140.11h6.39v25.73h29.2V140.11h6.31v57.43h-6.31Z"/><path class="cls-6" d="M480.34,156.05v41.49h-6.22v-2.91s-6.23,3.73-12.28,3.73c-11.62,0-14-5.39-14-20.66V156.05H454v21.57c0,11.45,1,15.19,8.71,15.19a25.17,25.17,0,0,0,11.37-3.07V156.05Z"/><path class="cls-6" d="M492.29,197.54V156.05h6.14V159s6.22-3.73,12.11-3.73c5.56,0,8.63,1.24,10.79,4.23,0,0,7.39-4.23,14.77-4.23,11.29,0,14,5.39,14,20.41v21.91H543.9V175.79c0-10.95-1.24-15-8.71-15a27.44,27.44,0,0,0-11.7,3.07c.75,1.9,1.08,7.13,1.08,12.11v21.58h-6.23V176.13c0-11.45-1.16-15.35-8.71-15.35a24.83,24.83,0,0,0-11.12,3.07v33.69Z"/><path class="cls-6" d="M591,189.82c.17,2.4,2.16,3.32,4.81,3.65l-.25,4.89c-4.39,0-7.38-.82-9.87-3.31,0,0-7.47,3.31-14.94,3.31S559,194.05,559,185.67c0-8,4.15-11.45,12.7-12.28l13-1.25v-3.56c0-5.81-2.49-7.89-7.47-7.89-5.81,0-15.68,1.08-15.68,1.08l-.25-4.73a100.65,100.65,0,0,1,16.26-1.82c9.38,0,13.36,4.31,13.36,13.36ZM572.45,178c-5.07.49-7.06,2.9-7.06,7.46,0,4.82,2.08,7.64,6.31,7.64,6.14,0,13-2.58,13-2.58V176.87Z"/><path class="cls-6" d="M603.23,197.54V156.05h6.14V159s6.72-3.73,12.86-3.73c11.45,0,14,5.64,14,20.41v21.91h-6.14V175.79c0-10.95-1.25-15-9-15a28.43,28.43,0,0,0-11.7,3.07v33.69Z"/><path class="cls-6" d="M647.79,139.45H654v7.22h-6.22Zm0,16.6H654v41.49h-6.22Z"/><path class="cls-6" d="M674.26,161.44v19.83c0,9,.58,11.62,6,11.62,2.33,0,7.39-.5,7.39-.5l.41,5.15a72.85,72.85,0,0,1-8.46.91c-8.55,0-11.45-3.24-11.45-15.19V161.44h-5.89v-5.39h5.89v-12.7h6.14v12.7h13.19v5.39Z"/><path class="cls-6" d="M695.09,139.45h6.22v7.22h-6.22Zm0,16.6h6.22v41.49h-6.22Z"/><path class="cls-6" d="M743.88,192.14,744,197a145.23,145.23,0,0,1-16.18,1.32c-12.36,0-16.43-7.21-16.43-21.32,0-15.77,6.81-21.82,17.35-21.82,11,0,16.68,5.8,16.68,19.41l-.34,4.73H717.74c0,8.88,2.74,13.53,10.87,13.53C734.83,192.89,743.88,192.14,743.88,192.14Zm-4.65-17.76c0-10.28-3.15-13.94-10.45-13.94-7.06,0-11,3.9-11.12,13.94Z"/><path class="cls-6" d="M782.71,162.1a136.59,136.59,0,0,0-14.52-1.32c-5.14,0-9,1.41-9,6.3,0,3.9,2,5,10.78,6.47,10.37,1.75,14.28,3.82,14.28,11.87,0,9.71-6.15,12.94-16.1,12.94a117.77,117.77,0,0,1-14.61-1.57l.34-5.39s9.45,1.41,13.69,1.41c6.8,0,10.45-1.5,10.45-7.14,0-4.32-2.16-5.39-11.2-6.8-9.38-1.5-13.86-3.24-13.86-11.54,0-9.13,7.39-12.11,14.94-12.11a106.61,106.61,0,0,1,15,1.57Z"/><path class="cls-6" d="M399.69,263.52v22H393.3V228.09h21.24c12,0,18.34,5.31,18.34,17.43,0,8.46-3.32,14.35-10.54,16.67l11,23.32h-7.05l-10.37-22Zm14.85-29.79H399.69v24.15h14.93c8.63,0,11.7-5.15,11.7-12.36C426.32,237.63,422.59,233.73,414.54,233.73Z"/><path class="cls-6" d="M473.21,280.12l.16,4.89a144.43,144.43,0,0,1-16.18,1.33c-12.36,0-16.43-7.22-16.43-21.33,0-15.76,6.81-21.82,17.34-21.82,11,0,16.68,5.81,16.68,19.42l-.33,4.73H447.07c0,8.88,2.74,13.52,10.87,13.52C464.16,280.86,473.21,280.12,473.21,280.12Zm-4.65-17.76c0-10.29-3.15-13.94-10.46-13.94-7.05,0-11,3.9-11.12,13.94Z"/><path class="cls-6" d="M512,250.08a135.59,135.59,0,0,0-14.52-1.33c-5.15,0-9,1.41-9,6.31,0,3.9,2,5,10.79,6.47,10.37,1.74,14.27,3.82,14.27,11.87,0,9.7-6.14,12.94-16.1,12.94a116.8,116.8,0,0,1-14.6-1.58l.33-5.39s9.46,1.41,13.69,1.41c6.81,0,10.46-1.49,10.46-7.14,0-4.31-2.16-5.39-11.2-6.8-9.38-1.49-13.86-3.24-13.86-11.53,0-9.13,7.38-12.12,14.94-12.12a105.74,105.74,0,0,1,15,1.58Z"/><path class="cls-6" d="M553.69,280.12l.17,4.89a144.43,144.43,0,0,1-16.18,1.33c-12.36,0-16.43-7.22-16.43-21.33,0-15.76,6.8-21.82,17.34-21.82,11,0,16.68,5.81,16.68,19.42l-.33,4.73H527.56c0,8.88,2.73,13.52,10.87,13.52C544.65,280.86,553.69,280.12,553.69,280.12Zm-4.64-17.76c0-10.29-3.16-13.94-10.46-13.94-7.05,0-11,3.9-11.12,13.94Z"/><path class="cls-6" d="M594.27,277.79c.17,2.41,2.16,3.32,4.81,3.65l-.25,4.9c-4.39,0-7.38-.83-9.87-3.32,0,0-7.47,3.32-14.94,3.32s-11.7-4.31-11.7-12.7c0-8,4.15-11.45,12.7-12.28l13-1.24v-3.57c0-5.81-2.49-7.88-7.47-7.88-5.81,0-15.68,1.08-15.68,1.08l-.25-4.73a100.13,100.13,0,0,1,16.26-1.83c9.38,0,13.36,4.32,13.36,13.36ZM575.77,266c-5.07.5-7.06,2.9-7.06,7.47,0,4.81,2.08,7.63,6.31,7.63,6.14,0,13-2.57,13-2.57V264.85Z"/><path class="cls-6" d="M606.55,244h6.14v5.64s7.22-5,15.19-6.55v6.31a60.09,60.09,0,0,0-15.11,5.64v30.45h-6.22Z"/><path class="cls-6" d="M661.23,244.44,661,249.5s-6.63-.75-9.79-.75c-9.54,0-12.11,4.15-12.11,15.27,0,12.28,1.91,16.76,12.2,16.76,3.15,0,9.79-.75,9.79-.75l.25,5.15a110.35,110.35,0,0,1-11.54,1.16c-13.19,0-17.09-6.06-17.09-22.32,0-15,4.9-20.83,17.26-20.83A96,96,0,0,1,661.23,244.44Z"/><path class="cls-6" d="M670.61,285.51V225.93h6.22v20.42s6.64-3.16,12.78-3.16c11.37,0,14,5.64,14,20.41v21.91h-6.22V263.77c0-10.95-1.24-15-8.88-15a34.13,34.13,0,0,0-11.7,2.49v34.27Z"/><path class="cls-6" d="M393.3,316.06h6.39v57.43H393.3Z"/><path class="cls-6" d="M412.63,373.49V332h6.14v2.9s6.72-3.73,12.86-3.73c11.45,0,14,5.64,14,20.41v21.91h-6.14V351.75c0-11-1.24-15-9-15a28.43,28.43,0,0,0-11.7,3.07v33.69Z"/><path class="cls-6" d="M484.74,338.05a136.59,136.59,0,0,0-14.52-1.32c-5.15,0-9.05,1.41-9.05,6.3,0,3.9,2,5,10.79,6.47,10.37,1.75,14.27,3.82,14.27,11.87,0,9.71-6.14,12.94-16.1,12.94a117.52,117.52,0,0,1-14.6-1.57l.33-5.39s9.46,1.41,13.69,1.41c6.81,0,10.46-1.5,10.46-7.14,0-4.32-2.16-5.39-11.21-6.8-9.37-1.5-13.85-3.24-13.85-11.54,0-9.13,7.38-12.11,14.93-12.11a106.41,106.41,0,0,1,15,1.57Z"/><path class="cls-6" d="M504.07,337.39v19.83c0,9,.58,11.62,6,11.62,2.33,0,7.39-.5,7.39-.5l.41,5.15a72.57,72.57,0,0,1-8.46.91c-8.54,0-11.45-3.24-11.45-15.19V337.39H492V332h5.89V319.3h6.14V332h13.19v5.39Z"/><path class="cls-6" d="M524.9,315.4h6.22v7.22H524.9Zm0,16.6h6.22v41.49H524.9Z"/><path class="cls-6" d="M551.37,337.39v19.83c0,9,.58,11.62,6,11.62,2.33,0,7.39-.5,7.39-.5l.41,5.15a72.85,72.85,0,0,1-8.46.91c-8.55,0-11.45-3.24-11.45-15.19V337.39h-5.89V332h5.89V319.3h6.14V332h13.19v5.39Z"/><path class="cls-6" d="M604.31,332v41.49h-6.22v-2.91s-6.23,3.73-12.28,3.73c-11.62,0-14-5.39-14-20.66V332H578v21.57c0,11.45,1,15.19,8.71,15.19a25.17,25.17,0,0,0,11.37-3.07V332Z"/><path class="cls-6" d="M624.56,337.39v19.83c0,9,.58,11.62,6,11.62,2.32,0,7.39-.5,7.39-.5l.41,5.15a72.85,72.85,0,0,1-8.46.91c-8.55,0-11.45-3.24-11.45-15.19V337.39h-5.9V332h5.9V319.3h6.14V332h13.19v5.39Z"/><path class="cls-6" d="M676,368.09l.17,4.9A145.5,145.5,0,0,1,660,374.31c-12.36,0-16.43-7.21-16.43-21.32,0-15.77,6.8-21.82,17.34-21.82,11,0,16.68,5.81,16.68,19.41l-.33,4.73H649.87c0,8.88,2.73,13.53,10.87,13.53C667,368.84,676,368.09,676,368.09Zm-4.64-17.76c0-10.28-3.16-13.94-10.46-13.94-7,0-11,3.9-11.12,13.94Z"/></svg>