<svg id="Layer_1" data-name="Layer 1" xmlns="http://www.w3.org/2000/svg" viewBox="0 0 816.55 421.17"><defs><style>.cls-1{fill:#c2cccb;}.cls-2{fill:#9bbb4f;}.cls-3{fill:#00b3be;}.cls-4{fill:#ef3e3a;}.cls-5{fill:#6155a4;}.cls-6{fill:#231f20;}.cls-7{fill:#fff;}.cls-8{fill:#cf232c;}.cls-9{fill:#eb9522;}.cls-10{fill:#766f65;}.cls-11{fill:#434343;}</style></defs><title>Artboard 1 copy 6</title><rect class="cls-1" x="237.16" y="161" width="3" height="59.6" transform="translate(-54.04 103.11) rotate(-21.96)"/><rect class="cls-1" x="195.87" y="132.52" width="3" height="60.29" transform="matrix(0.02, -1, 1, 0.02, 31.44, 357.29)"/><rect class="cls-1" x="104.88" y="169.27" width="64.45" height="3" transform="translate(-40.61 42.8) rotate(-15.48)"/><rect class="cls-1" x="56.67" y="169.79" width="3" height="74.08" transform="translate(-123.8 92.61) rotate(-42.18)"/><rect class="cls-1" x="27.48" y="126.14" width="3" height="53.59" transform="translate(-24.27 6.67) rotate(-9.28)"/><rect class="cls-1" x="95.3" y="119.22" width="3" height="62.58" transform="translate(-47.19 44.24) rotate(-20.82)"/><rect class="cls-1" x="24.54" y="122.27" width="61.2" height="3" transform="translate(-10.74 5.37) rotate(-5.08)"/><rect class="cls-1" x="68.81" y="142.03" width="3" height="75.23" transform="translate(-109.56 249.38) rotate(-89.82)"/><rect class="cls-1" x="8.5" y="100.08" width="54.54" height="3" transform="translate(-71.57 92.89) rotate(-65.97)"/><rect class="cls-1" x="46.62" y="71.52" width="52.08" height="3" transform="translate(-9.5 10.89) rotate(-8.05)"/><rect class="cls-1" x="91.01" y="46.19" width="78.39" height="3" transform="translate(-3.98 82.66) rotate(-34.72)"/><rect class="cls-1" x="123.14" y="53.71" width="60.43" height="3" transform="translate(57.82 187.27) rotate(-73.92)"/><rect class="cls-1" x="200.72" y="-2.32" width="3" height="86.05" transform="translate(95.62 217.31) rotate(-70.27)"/><rect class="cls-1" x="239.87" y="65" width="3" height="79.41" transform="translate(94.47 322.97) rotate(-79.51)"/><rect class="cls-1" x="171.33" y="60.64" width="3" height="60.45" transform="translate(46.35 239.61) rotate(-77.36)"/><rect class="cls-1" x="120.16" y="52.46" width="3" height="49.17" transform="translate(10.16 168.17) rotate(-71.61)"/><rect class="cls-1" x="65.54" y="93.87" width="53.46" height="3" transform="translate(-22.92 161.24) rotate(-75.71)"/><rect class="cls-1" x="80.51" y="101.53" width="69.63" height="3" transform="translate(-36.89 75.71) rotate(-31.6)"/><rect class="cls-1" x="154.8" y="83.34" width="3" height="80.6" transform="translate(-29.45 51.44) rotate(-17.1)"/><rect class="cls-1" x="148.66" y="128.32" width="73.16" height="3" transform="translate(-16.08 232.96) rotate(-62.15)"/><rect class="cls-1" x="189.99" y="76.34" width="62.42" height="3" transform="translate(12.33 184.44) rotate(-46.42)"/><rect class="cls-1" x="212.98" y="95.79" width="3" height="69.9" transform="translate(-33.28 89.4) rotate(-21.89)"/><rect class="cls-1" x="212.98" y="94.87" width="3" height="69.9" transform="translate(-32.94 89.33) rotate(-21.89)"/><rect class="cls-1" x="239.47" y="80.2" width="3" height="108.08" transform="translate(-21.55 218.91) rotate(-47)"/><rect class="cls-1" x="260.75" y="48.91" width="3" height="66.65" transform="translate(1.56 169.3) rotate(-35.88)"/><rect class="cls-1" x="278.95" y="111.92" width="3" height="59.2" transform="translate(-4.47 9.22) rotate(-1.87)"/><rect class="cls-1" x="236.94" y="193.27" width="56.41" height="3" transform="translate(-42.51 311.33) rotate(-57.05)"/><polygon class="cls-2" points="129.69 362.64 114.69 362.64 114.69 271.22 102.24 260.99 111.76 249.4 129.69 264.13 129.69 362.64"/><polygon class="cls-3" points="152.48 362.64 137.48 362.64 137.48 238.69 123.23 219.51 135.26 210.56 152.48 233.72 152.48 362.64"/><polygon class="cls-4" points="174.73 362.64 159.73 362.64 159.73 225.7 203.36 193.06 212.35 205.07 174.73 233.21 174.73 362.64"/><polygon class="cls-5" points="197.53 362.64 182.53 362.64 182.53 273.78 214.03 242.28 224.63 252.88 197.53 279.99 197.53 362.64"/><circle class="cls-6" cx="107.92" cy="179.77" r="18.83"/><path class="cls-7" d="M107.92,161.94a17.83,17.83,0,1,1-17.83,17.82,17.82,17.82,0,0,1,17.83-17.82m0-2a19.83,19.83,0,1,0,19.83,19.82,19.85,19.85,0,0,0-19.83-19.82Z"/><path class="cls-6" d="M281.42,184.31a13.22,13.22,0,1,1,13.21-13.21A13.23,13.23,0,0,1,281.42,184.31Z"/><path class="cls-7" d="M281.42,158.88A12.22,12.22,0,1,1,269.2,171.1a12.22,12.22,0,0,1,12.22-12.22m0-2a14.22,14.22,0,1,0,14.21,14.22,14.24,14.24,0,0,0-14.21-14.22Z"/><path class="cls-6" d="M24.66,142.48a16,16,0,1,1,16-16A16,16,0,0,1,24.66,142.48Z"/><path class="cls-7" d="M24.66,111.49a15,15,0,1,1-15,15,15,15,0,0,1,15-15m0-2a17,17,0,1,0,17,17,17,17,0,0,0-17-17Z"/><path class="cls-3" d="M145,103.71A18.91,18.91,0,1,1,163.89,84.8,18.93,18.93,0,0,1,145,103.71Z"/><path class="cls-7" d="M145,66.89a17.91,17.91,0,1,1-17.9,17.91A17.91,17.91,0,0,1,145,66.89m0-2A19.91,19.91,0,1,0,164.89,84.8,19.93,19.93,0,0,0,145,64.89Z"/><path class="cls-8" d="M201.09,107.7a10.23,10.23,0,1,1,10.23-10.23A10.24,10.24,0,0,1,201.09,107.7Z"/><path class="cls-7" d="M201.09,88.25a9.23,9.23,0,1,1-9.22,9.22,9.22,9.22,0,0,1,9.22-9.22m0-2a11.23,11.23,0,1,0,11.23,11.22,11.23,11.23,0,0,0-11.23-11.22Z"/><path class="cls-5" d="M280.41,132.86a20.93,20.93,0,1,1,20.93-20.93A21,21,0,0,1,280.41,132.86Z"/><path class="cls-7" d="M280.41,92a19.93,19.93,0,1,1-19.93,19.93A19.93,19.93,0,0,1,280.41,92m0-2a21.93,21.93,0,1,0,21.93,21.93A22,22,0,0,0,280.41,90Z"/><path class="cls-9" d="M161.72,47.82a21.64,21.64,0,1,1,21.64-21.64A21.66,21.66,0,0,1,161.72,47.82Z"/><path class="cls-7" d="M161.72,5.55a20.64,20.64,0,1,1-20.63,20.63A20.64,20.64,0,0,1,161.72,5.55m0-2a22.64,22.64,0,1,0,22.64,22.63A22.65,22.65,0,0,0,161.72,3.55Z"/><path class="cls-4" d="M242.72,69.8a14.57,14.57,0,1,1,14.56-14.56A14.58,14.58,0,0,1,242.72,69.8Z"/><path class="cls-7" d="M242.72,41.67a13.57,13.57,0,1,1-13.57,13.57,13.57,13.57,0,0,1,13.57-13.57m0-2a15.57,15.57,0,1,0,15.56,15.57,15.58,15.58,0,0,0-15.56-15.57Z"/><path class="cls-4" d="M249.8,239a20.54,20.54,0,1,1,20.54-20.53A20.55,20.55,0,0,1,249.8,239Z"/><path class="cls-7" d="M249.8,198.9a19.54,19.54,0,1,1-19.53,19.54A19.54,19.54,0,0,1,249.8,198.9m0-2a21.54,21.54,0,1,0,21.54,21.54A21.56,21.56,0,0,0,249.8,196.9Z"/><path class="cls-10" d="M226.07,174.91a12.4,12.4,0,1,1,12.4-12.4A12.41,12.41,0,0,1,226.07,174.91Z"/><path class="cls-7" d="M226.07,151.12a11.4,11.4,0,1,1-11.39,11.39,11.39,11.39,0,0,1,11.39-11.39m0-2a13.4,13.4,0,1,0,13.4,13.39,13.4,13.4,0,0,0-13.4-13.39Z"/><path class="cls-4" d="M85.63,132.61a11.56,11.56,0,1,1,11.55-11.55A11.56,11.56,0,0,1,85.63,132.61Z"/><path class="cls-7" d="M85.63,110.5a10.56,10.56,0,1,1-10.56,10.56A10.55,10.55,0,0,1,85.63,110.5m0-2a12.56,12.56,0,1,0,12.55,12.56A12.57,12.57,0,0,0,85.63,108.5Z"/><path class="cls-5" d="M98,80.24A10.23,10.23,0,1,1,108.21,70,10.23,10.23,0,0,1,98,80.24Z"/><path class="cls-7" d="M98,60.79A9.23,9.23,0,1,1,88.76,70,9.22,9.22,0,0,1,98,60.79m0-2A11.23,11.23,0,1,0,109.21,70,11.23,11.23,0,0,0,98,58.79Z"/><path class="cls-5" d="M83,247.06a12.78,12.78,0,1,1,12.78-12.78A12.8,12.8,0,0,1,83,247.06Z"/><path class="cls-7" d="M83,222.5a11.78,11.78,0,1,1-11.78,11.78A11.79,11.79,0,0,1,83,222.5m0-2a13.78,13.78,0,1,0,13.78,13.78A13.79,13.79,0,0,0,83,220.5Z"/><path class="cls-8" d="M46.14,91.82A15.15,15.15,0,1,1,61.29,76.67,15.17,15.17,0,0,1,46.14,91.82Z"/><path class="cls-7" d="M46.14,62.52A14.15,14.15,0,1,1,32,76.67,14.15,14.15,0,0,1,46.14,62.52m0-2A16.15,16.15,0,1,0,62.29,76.67,16.17,16.17,0,0,0,46.14,60.52Z"/><path class="cls-9" d="M32.05,195.42A15.66,15.66,0,1,1,47.7,179.77,15.67,15.67,0,0,1,32.05,195.42Z"/><path class="cls-7" d="M32.05,165.11A14.66,14.66,0,1,1,17.4,179.76a14.65,14.65,0,0,1,14.65-14.65m0-2A16.66,16.66,0,1,0,48.7,179.76a16.67,16.67,0,0,0-16.65-16.65Z"/><path class="cls-2" d="M168.16,185.25a23.09,23.09,0,1,1,23.09-23.09A23.12,23.12,0,0,1,168.16,185.25Z"/><path class="cls-7" d="M168.16,140.07a22.09,22.09,0,1,1-22.1,22.09,22.09,22.09,0,0,1,22.1-22.09m0-2a24.09,24.09,0,1,0,24.09,24.09,24.12,24.12,0,0,0-24.09-24.09Z"/><path class="cls-11" d="M332.93,282.49v-42.9h15.32c12.46,0,15.87,8.68,15.87,20.83s-3.23,22.07-15.87,22.07Zm15.32-38.69H337.71v34.47h10.54c8.93,0,11-8.55,11-17.85S357.18,243.8,348.25,243.8Z"/><path class="cls-11" d="M372.12,239.09h4.65v5.39h-4.65Zm0,12.4h4.65v31h-4.65Z"/><path class="cls-11" d="M384.33,287.7c0-3.6,1.68-5.27,4.9-7.69-1.12-.75-1.74-2.36-1.74-4.28,0-1.18,2.11-4.9,2.11-4.9-2.6-1.18-4.9-3.66-4.9-9.36,0-7.62,4.72-10.6,11.6-10.6a31.81,31.81,0,0,1,6.44.81l9.18-.25v4l-5.89-.13c1.18,1.18,2.05,2.92,2.05,6.2,0,8.06-4,10.48-12,10.48a27.25,27.25,0,0,1-3-.25,18.61,18.61,0,0,0-1.11,3.53c0,2.48.49,2.86,7.5,2.86,8.8,0,12,1.73,12,9.11,0,7-5,9.86-13.76,9.86C387.87,297.06,384.33,294.89,384.33,287.7Zm8.06-5.83c-2.6,1.92-3.47,3-3.47,5.45,0,4.28,1.8,5.83,8.8,5.83,6.2,0,9-1.67,9-5.76,0-4.72-2-5.21-7.62-5.21C396.92,282.18,392.39,281.87,392.39,281.87Zm11-20.4c0-4.9-1.93-6.82-7.13-6.82-4.84,0-6.95,1.92-6.95,6.82s2.11,6.76,6.95,6.76C401.5,268.23,403.43,266.37,403.43,261.47Z"/><path class="cls-11" d="M417.56,239.09h4.65v5.39h-4.65Zm0,12.4h4.65v31h-4.65Z"/><path class="cls-11" d="M437.34,255.52v14.82c0,6.75.43,8.68,4.46,8.68,1.74,0,5.52-.38,5.52-.38l.31,3.85a54.31,54.31,0,0,1-6.32.68c-6.39,0-8.56-2.42-8.56-11.35v-16.3h-4.4v-4h4.4V242h4.59v9.49h9.86v4Z"/><path class="cls-11" d="M474.79,276.72c.12,1.8,1.61,2.48,3.59,2.73l-.18,3.66c-3.29,0-5.52-.62-7.38-2.48a31.69,31.69,0,0,1-11.16,2.48c-5.64,0-8.74-3.23-8.74-9.49,0-5.95,3.1-8.55,9.48-9.17l9.74-.93v-2.67c0-4.34-1.86-5.89-5.58-5.89-4.34,0-11.72.81-11.72.81l-.19-3.54a75.32,75.32,0,0,1,12.16-1.36c7,0,10,3.22,10,10ZM461,267.92c-3.78.37-5.27,2.17-5.27,5.58,0,3.59,1.55,5.7,4.71,5.7a32.93,32.93,0,0,0,9.74-1.92V267.05Z"/><path class="cls-11" d="M484.34,238H489v44.52h-4.65Z"/><path class="cls-11" d="M539.33,263.08H517.5v19.41h-4.77v-42.9h4.77v19.22h21.83V239.59H544v42.9h-4.71Z"/><path class="cls-11" d="M577.77,251.49v31h-4.65v-2.17s-4.65,2.79-9.18,2.79c-8.68,0-10.48-4-10.48-15.44V251.49h4.65v16.12c0,8.55.75,11.34,6.51,11.34a18.85,18.85,0,0,0,8.5-2.29V251.49Z"/><path class="cls-11" d="M586.69,282.49v-31h4.59v2.17s4.65-2.79,9.05-2.79c4.16,0,6.45.93,8.06,3.16,0,0,5.52-3.16,11-3.16,8.43,0,10.48,4,10.48,15.25v16.37h-4.65V266.24c0-8.18-.93-11.22-6.51-11.22a20.43,20.43,0,0,0-8.74,2.3c.55,1.42.8,5.33.8,9.05v16.12h-4.65v-16c0-8.55-.87-11.47-6.51-11.47a18.53,18.53,0,0,0-8.31,2.3v25.17Z"/><path class="cls-11" d="M660.41,276.72c.13,1.8,1.61,2.48,3.6,2.73l-.19,3.66c-3.28,0-5.52-.62-7.38-2.48a31.69,31.69,0,0,1-11.16,2.48c-5.64,0-8.74-3.23-8.74-9.49,0-5.95,3.1-8.55,9.49-9.17l9.73-.93v-2.67c0-4.34-1.86-5.89-5.58-5.89-4.34,0-11.72.81-11.72.81l-.18-3.54a75.3,75.3,0,0,1,12.15-1.36c7,0,10,3.22,10,10Zm-13.82-8.8c-3.79.37-5.27,2.17-5.27,5.58,0,3.59,1.55,5.7,4.71,5.7a32.83,32.83,0,0,0,9.73-1.92V267.05Z"/><path class="cls-11" d="M669.59,282.49v-31h4.59v2.17s5-2.79,9.61-2.79c8.55,0,10.47,4.22,10.47,15.25v16.37h-4.58V266.24c0-8.18-.93-11.22-6.7-11.22a21.19,21.19,0,0,0-8.74,2.3v25.17Z"/><path class="cls-11" d="M702.88,239.09h4.65v5.39h-4.65Zm0,12.4h4.65v31h-4.65Z"/><path class="cls-11" d="M722.66,255.52v14.82c0,6.75.43,8.68,4.46,8.68,1.74,0,5.52-.38,5.52-.38l.31,3.85a54.31,54.31,0,0,1-6.32.68c-6.39,0-8.56-2.42-8.56-11.35v-16.3h-4.4v-4h4.4V242h4.59v9.49h9.85v4Z"/><path class="cls-11" d="M738.22,239.09h4.65v5.39h-4.65Zm0,12.4h4.65v31h-4.65Z"/><path class="cls-11" d="M774.68,278.46l.12,3.66a108.36,108.36,0,0,1-12.09,1c-9.24,0-12.28-5.4-12.28-15.94,0-11.77,5.09-16.3,13-16.3,8.25,0,12.46,4.34,12.46,14.51l-.25,3.53H755.15c0,6.63,2,10.11,8.12,10.11C767.92,279,774.68,278.46,774.68,278.46Zm-3.48-13.27c0-7.69-2.35-10.41-7.81-10.41-5.27,0-8.24,2.91-8.31,10.41Z"/><path class="cls-11" d="M803.69,256a100.65,100.65,0,0,0-10.85-1c-3.84,0-6.76,1.06-6.76,4.71,0,2.92,1.49,3.73,8.06,4.84,7.75,1.3,10.67,2.85,10.67,8.87,0,7.25-4.59,9.67-12,9.67a87.28,87.28,0,0,1-10.91-1.18l.25-4s7.06,1.05,10.23,1.05c5.08,0,7.81-1.11,7.81-5.33,0-3.22-1.62-4-8.37-5.08-7-1.12-10.36-2.42-10.36-8.62,0-6.82,5.52-9.05,11.16-9.05a79.1,79.1,0,0,1,11.22,1.18Z"/><path class="cls-11" d="M337.77,340.25v16.64h-4.84V313.44H349c9.1,0,13.87,4,13.87,13.19,0,6.4-2.51,10.86-8,12.62l8.35,17.64h-5.34l-7.85-16.64ZM349,317.71H337.77V336h11.3c6.53,0,8.85-3.89,8.85-9.35C357.92,320.66,355.1,317.71,349,317.71Z"/><path class="cls-11" d="M393.4,352.81l.12,3.7a108.94,108.94,0,0,1-12.24,1c-9.36,0-12.43-5.47-12.43-16.14,0-11.93,5.15-16.51,13.12-16.51,8.35,0,12.62,4.39,12.62,14.69l-.25,3.58H373.62c0,6.72,2.07,10.23,8.22,10.23C386.55,353.37,393.4,352.81,393.4,352.81Zm-3.52-13.44c0-7.78-2.39-10.55-7.91-10.55-5.34,0-8.35,3-8.41,10.55Z"/><path class="cls-11" d="M422.78,330.08a103.26,103.26,0,0,0-11-1c-3.89,0-6.84,1.06-6.84,4.77,0,2.95,1.5,3.76,8.16,4.89,7.85,1.32,10.8,2.89,10.8,9,0,7.35-4.65,9.8-12.18,9.8a88.08,88.08,0,0,1-11.05-1.2l.25-4.08s7.16,1.07,10.36,1.07c5.15,0,7.91-1.13,7.91-5.4,0-3.26-1.63-4.08-8.48-5.15-7.09-1.13-10.48-2.45-10.48-8.72,0-6.91,5.59-9.17,11.3-9.17a80.35,80.35,0,0,1,11.36,1.19Z"/><path class="cls-11" d="M454.29,352.81l.13,3.7a108.94,108.94,0,0,1-12.24,1c-9.36,0-12.43-5.47-12.43-16.14,0-11.93,5.15-16.51,13.12-16.51,8.35,0,12.62,4.39,12.62,14.69l-.25,3.58H434.52c0,6.72,2.07,10.23,8.22,10.23C447.45,353.37,454.29,352.81,454.29,352.81Zm-3.51-13.44c0-7.78-2.39-10.55-7.91-10.55-5.34,0-8.35,3-8.41,10.55Z"/><path class="cls-11" d="M485,351.05c.12,1.82,1.63,2.51,3.64,2.76l-.19,3.71c-3.33,0-5.59-.63-7.47-2.52a32,32,0,0,1-11.3,2.52c-5.72,0-8.85-3.27-8.85-9.61,0-6,3.13-8.66,9.6-9.29l9.86-.94V335c0-4.4-1.89-6-5.65-6-4.4,0-11.87.82-11.87.82l-.19-3.58a76.18,76.18,0,0,1,12.31-1.38C482,324.87,485,328.13,485,335Zm-14-8.92c-3.83.38-5.34,2.2-5.34,5.65,0,3.65,1.57,5.78,4.77,5.78a33.21,33.21,0,0,0,9.86-1.95V341.26Z"/><path class="cls-11" d="M494.29,325.5h4.64v4.27a35.46,35.46,0,0,1,11.49-5v4.77A45.34,45.34,0,0,0,499,333.85v23h-4.71Z"/><path class="cls-11" d="M535.66,325.81l-.19,3.83s-5-.56-7.4-.56c-7.22,0-9.17,3.13-9.17,11.55,0,9.29,1.44,12.68,9.23,12.68,2.38,0,7.41-.57,7.41-.57l.19,3.9a83.25,83.25,0,0,1-8.73.88c-10,0-12.93-4.59-12.93-16.89,0-11.37,3.7-15.76,13-15.76A73,73,0,0,1,535.66,325.81Z"/><path class="cls-11" d="M542.76,356.89V311.81h4.71v15.45a26.48,26.48,0,0,1,9.67-2.39c8.6,0,10.6,4.27,10.6,15.44v16.58H563V340.44c0-8.29-.95-11.36-6.72-11.36a25.82,25.82,0,0,0-8.85,1.88v25.93Z"/><path class="cls-11" d="M591.1,313.44h4.83v43.45H591.1Z"/><path class="cls-11" d="M605.73,356.89V325.5h4.64v2.19s5.09-2.82,9.73-2.82c8.67,0,10.61,4.27,10.61,15.44v16.58h-4.64V340.44c0-8.29-.94-11.36-6.78-11.36a21.49,21.49,0,0,0-8.85,2.32v25.49Z"/><path class="cls-11" d="M660.29,330.08a103.26,103.26,0,0,0-11-1c-3.89,0-6.84,1.06-6.84,4.77,0,2.95,1.5,3.76,8.16,4.89,7.85,1.32,10.8,2.89,10.8,9,0,7.35-4.65,9.8-12.18,9.8a88.08,88.08,0,0,1-11-1.2l.25-4.08a103.92,103.92,0,0,0,10.36,1.07c5.14,0,7.91-1.13,7.91-5.4,0-3.26-1.64-4.08-8.48-5.15-7.09-1.13-10.48-2.45-10.48-8.72,0-6.91,5.58-9.17,11.3-9.17a80.35,80.35,0,0,1,11.36,1.19Z"/><path class="cls-11" d="M674.91,329.58v15c0,6.85.45,8.79,4.53,8.79,1.75,0,5.58-.37,5.58-.37l.32,3.89a55.08,55.08,0,0,1-6.41.69c-6.46,0-8.66-2.45-8.66-11.49V329.58h-4.46V325.5h4.46v-9.61h4.64v9.61h10v4.08Z"/><path class="cls-11" d="M690.67,312.94h4.71v5.46h-4.71Zm0,12.56h4.71v31.39h-4.71Z"/><path class="cls-11" d="M710.7,329.58v15c0,6.85.44,8.79,4.52,8.79,1.76,0,5.59-.37,5.59-.37l.31,3.89a54.82,54.82,0,0,1-6.4.69c-6.47,0-8.66-2.45-8.66-11.49V329.58H701.6V325.5h4.46v-9.61h4.64v9.61h10v4.08Z"/><path class="cls-11" d="M750.76,325.5v31.39h-4.71v-2.2s-4.71,2.83-9.29,2.83c-8.79,0-10.61-4.09-10.61-15.64V325.5h4.71v16.32c0,8.66.75,11.49,6.59,11.49a19.07,19.07,0,0,0,8.6-2.32V325.5Z"/><path class="cls-11" d="M766.08,329.58v15c0,6.85.44,8.79,4.52,8.79,1.76,0,5.58-.37,5.58-.37l.32,3.89a55.1,55.1,0,0,1-6.4.69c-6.47,0-8.67-2.45-8.67-11.49V329.58H757V325.5h4.46v-9.61h4.65v9.61h10v4.08Z"/><path class="cls-11" d="M805,352.81l.13,3.7a108.94,108.94,0,0,1-12.24,1c-9.36,0-12.43-5.47-12.43-16.14,0-11.93,5.14-16.51,13.12-16.51,8.35,0,12.62,4.39,12.62,14.69l-.26,3.58H785.23c0,6.72,2.07,10.23,8.22,10.23C798.16,353.37,805,352.81,805,352.81Zm-3.51-13.44c0-7.78-2.39-10.55-7.91-10.55-5.34,0-8.35,3-8.42,10.55Z"/><path class="cls-11" d="M332.46,387.7H346v2.19H334.93v7.69h9.14v2.15h-9.14v8H346V410H332.46Z"/><path class="cls-11" d="M350.86,393.88l3.92,6.3,3.92-6.3h2.64l-5.11,8,5.08,8.1h-2.64l-3.89-6.27L350.86,410h-2.64l5-8-5-8Z"/><path class="cls-11" d="M364.37,393.88h2.38V395a10.91,10.91,0,0,1,4.82-1.48c4.05,0,5.82,2.48,5.82,8.17,0,6.3-2.06,8.55-7,8.55a20.61,20.61,0,0,1-3.6-.35v7.17h-2.41Zm2.41,3.12v10.84a24.93,24.93,0,0,0,3.47.35c3.54,0,4.7-1.83,4.7-6.46,0-4.41-1.38-6-3.73-6A10.45,10.45,0,0,0,366.78,397Z"/><path class="cls-11" d="M392.67,407c.07.93.84,1.29,1.87,1.42l-.1,1.89a5,5,0,0,1-3.83-1.28,16.47,16.47,0,0,1-5.79,1.28c-2.92,0-4.53-1.67-4.53-4.92,0-3.08,1.61-4.44,4.92-4.76l5.05-.48v-1.38c0-2.25-1-3.06-2.9-3.06-2.25,0-6.08.42-6.08.42l-.09-1.83a38.86,38.86,0,0,1,6.3-.71c3.64,0,5.18,1.67,5.18,5.18Zm-7.17-4.57c-2,.2-2.74,1.13-2.74,2.9s.81,3,2.45,3a17,17,0,0,0,5.05-1V402Z"/><path class="cls-11" d="M397.43,410V393.88h2.38V395a12.23,12.23,0,0,1,5-1.45c4.44,0,5.43,2.19,5.43,7.91V410h-2.38v-8.42c0-4.25-.48-5.83-3.47-5.83a11,11,0,0,0-4.54,1.19V410Z"/><path class="cls-11" d="M427.06,410h-2.39v-1.09a11.51,11.51,0,0,1-4.88,1.41c-3.16,0-5.79-1.28-5.79-8.23,0-5.66,1.83-8.49,6.72-8.49a26.31,26.31,0,0,1,3.95.42v-7.11h2.39Zm-2.39-3V396a26.42,26.42,0,0,0-3.82-.39c-3.38,0-4.38,2.22-4.38,6.4,0,5.21,1.71,6.08,3.61,6.08A11.64,11.64,0,0,0,424.67,406.94Z"/><path class="cls-11" d="M431.72,387.45h2.41v2.8h-2.41Zm0,6.43h2.41V410h-2.41Z"/><path class="cls-11" d="M438.76,410V393.88h2.38V395a12.23,12.23,0,0,1,5-1.45c4.44,0,5.44,2.19,5.44,7.91V410h-2.39v-8.42c0-4.25-.48-5.83-3.47-5.83a11,11,0,0,0-4.53,1.19V410Z"/><path class="cls-11" d="M455.33,412.67c0-1.87.87-2.74,2.54-4a2.63,2.63,0,0,1-.9-2.22,10.39,10.39,0,0,1,1.09-2.54c-1.35-.62-2.54-1.9-2.54-4.86,0-4,2.45-5.5,6-5.5a16.6,16.6,0,0,1,3.34.42l4.76-.13v2.06l-3.05-.07a4.19,4.19,0,0,1,1.06,3.22c0,4.18-2.09,5.44-6.21,5.44a14.83,14.83,0,0,1-1.58-.13,9.47,9.47,0,0,0-.58,1.83c0,1.29.26,1.48,3.9,1.48,4.56,0,6.2.9,6.2,4.73,0,3.63-2.6,5.11-7.14,5.11C457.16,417.52,455.33,416.4,455.33,412.67Zm4.18-3c-1.35,1-1.8,1.58-1.8,2.83,0,2.22.93,3,4.57,3,3.21,0,4.66-.87,4.66-3,0-2.44-1-2.7-4-2.7C461.86,409.8,459.51,409.64,459.51,409.64Zm5.73-10.58c0-2.54-1-3.54-3.7-3.54-2.51,0-3.61,1-3.61,3.54s1.1,3.5,3.61,3.5C464.24,402.56,465.24,401.6,465.24,399.06Z"/><path class="cls-11" d="M493.51,409.61a33.72,33.72,0,0,1-6.15.67c-6.66,0-8.13-4-8.13-11.38,0-7.53,1.44-11.52,8.13-11.52a32.68,32.68,0,0,1,6.15.71l-.1,2.09a39.25,39.25,0,0,0-5.79-.58c-4.95,0-5.82,3-5.82,9.3s.8,9.17,5.89,9.17a35,35,0,0,0,5.72-.58Z"/><path class="cls-11" d="M509.88,401.73c0,5.85-1.45,8.55-6.89,8.55s-6.88-2.7-6.88-8.55c0-5.53,1.8-8.17,6.88-8.17S509.88,396.2,509.88,401.73Zm-2.48,0c0-4.47-1-6.08-4.41-6.08s-4.4,1.61-4.4,6.08.61,6.46,4.4,6.46S507.4,406.3,507.4,401.73Z"/><path class="cls-11" d="M513.8,410V393.88h2.38V395a10.83,10.83,0,0,1,4.7-1.45c2.15,0,3.34.48,4.18,1.64a13.37,13.37,0,0,1,5.73-1.64c4.37,0,5.43,2.09,5.43,7.91V410h-2.41v-8.42c0-4.25-.48-5.83-3.38-5.83a10.6,10.6,0,0,0-4.53,1.19,18.24,18.24,0,0,1,.42,4.7V410H523.9v-8.3c0-4.43-.45-6-3.37-6a9.59,9.59,0,0,0-4.31,1.19V410Z"/><path class="cls-11" d="M540.69,410V393.88h2.38V395a10.83,10.83,0,0,1,4.7-1.45c2.16,0,3.35.48,4.18,1.64a13.37,13.37,0,0,1,5.73-1.64c4.37,0,5.43,2.09,5.43,7.91V410H560.7v-8.42c0-4.25-.48-5.83-3.38-5.83a10.6,10.6,0,0,0-4.53,1.19,18.24,18.24,0,0,1,.42,4.7V410h-2.42v-8.3c0-4.43-.45-6-3.37-6a9.59,9.59,0,0,0-4.31,1.19V410Z"/><path class="cls-11" d="M580,393.88V410h-2.41v-1.12a10.88,10.88,0,0,1-4.76,1.44c-4.5,0-5.44-2.09-5.44-8v-8.4h2.42v8.36c0,4.44.38,5.89,3.37,5.89a9.77,9.77,0,0,0,4.41-1.19V393.88Z"/><path class="cls-11" d="M584.66,410V393.88H587V395a12.23,12.23,0,0,1,5-1.45c4.44,0,5.44,2.19,5.44,7.91V410h-2.39v-8.42c0-4.25-.48-5.83-3.47-5.83a11,11,0,0,0-4.53,1.19V410Z"/><path class="cls-11" d="M601.94,387.45h2.41v2.8h-2.41Zm0,6.43h2.41V410h-2.41Z"/><path class="cls-11" d="M612.2,396v7.69c0,3.5.22,4.5,2.31,4.5.9,0,2.86-.19,2.86-.19l.17,2a27.81,27.81,0,0,1-3.29.36c-3.31,0-4.43-1.26-4.43-5.89V396h-2.29v-2.09h2.29V389h2.38v4.92h5.11V396Z"/><path class="cls-11" d="M620.27,387.45h2.41v2.8h-2.41Zm0,6.43h2.41V410h-2.41Z"/><path class="cls-11" d="M639.18,407.87l.07,1.9a56.65,56.65,0,0,1-6.27.51c-4.8,0-6.37-2.79-6.37-8.26,0-6.11,2.63-8.46,6.72-8.46,4.28,0,6.46,2.25,6.46,7.53l-.13,1.83H629.05c0,3.44,1.06,5.24,4.21,5.24C635.68,408.16,639.18,407.87,639.18,407.87Zm-1.8-6.88c0-4-1.22-5.4-4-5.4s-4.28,1.51-4.31,5.4Z"/><path class="cls-11" d="M654.24,396.23a52.12,52.12,0,0,0-5.63-.52c-2,0-3.51.55-3.51,2.45,0,1.51.77,1.93,4.18,2.51,4,.67,5.54,1.48,5.54,4.6,0,3.76-2.39,5-6.24,5a45.67,45.67,0,0,1-5.67-.61l.13-2.09a53.3,53.3,0,0,0,5.31.55c2.64,0,4-.58,4-2.77,0-1.67-.83-2.09-4.34-2.63s-5.37-1.26-5.37-4.48c0-3.53,2.86-4.69,5.79-4.69a41.21,41.21,0,0,1,5.82.61Z"/><path class="cls-11" d="M678.65,401.73c0,5.85-1.45,8.55-6.88,8.55s-6.89-2.7-6.89-8.55c0-5.53,1.8-8.17,6.89-8.17S678.65,396.2,678.65,401.73Zm-2.48,0c0-4.47-1-6.08-4.4-6.08s-4.41,1.61-4.41,6.08.61,6.46,4.41,6.46S676.17,406.3,676.17,401.73Z"/><path class="cls-11" d="M685.66,410h-2.41V396h-2v-2.09h2v-1.45c0-4.63,1.19-5.88,4.34-5.88,1.1,0,3.25.22,3.25.22l0,2s-1.8-.07-2.77-.07c-1.8,0-2.38.77-2.38,3.76v1.42h4.67V396h-4.67Z"/><path class="cls-11" d="M703.19,402.47V410h-2.48V387.7h8.14c4.86,0,7.11,2.35,7.11,7.18s-2.25,7.59-7.11,7.59Zm5.63-2.19c3.25,0,4.6-2,4.6-5.4s-1.35-5-4.6-5h-5.63v10.39Z"/><path class="cls-11" d="M719.37,393.88h2.38v2.19a18.15,18.15,0,0,1,5.89-2.54V396a23.21,23.21,0,0,0-5.86,2.19V410h-2.41Z"/><path class="cls-11" d="M741.85,407c.07.93.84,1.29,1.87,1.42l-.1,1.89a5,5,0,0,1-3.83-1.28,16.47,16.47,0,0,1-5.79,1.28c-2.92,0-4.53-1.67-4.53-4.92,0-3.08,1.61-4.44,4.92-4.76l5.05-.48v-1.38c0-2.25-1-3.06-2.89-3.06-2.26,0-6.08.42-6.08.42l-.1-1.83a38.86,38.86,0,0,1,6.3-.71c3.64,0,5.18,1.67,5.18,5.18Zm-7.17-4.57c-2,.2-2.73,1.13-2.73,2.9s.8,3,2.44,3a17,17,0,0,0,5.05-1V402Z"/><path class="cls-11" d="M757,394l-.09,2s-2.58-.29-3.8-.29c-3.7,0-4.7,1.61-4.7,5.92,0,4.76.75,6.5,4.73,6.5,1.23,0,3.8-.29,3.8-.29l.09,2a42.67,42.67,0,0,1-4.47.45c-5.11,0-6.62-2.34-6.62-8.65,0-5.82,1.9-8.07,6.69-8.07A37.39,37.39,0,0,1,757,394Z"/><path class="cls-11" d="M763.85,396v7.69c0,3.5.23,4.5,2.32,4.5.9,0,2.86-.19,2.86-.19l.16,2a27.55,27.55,0,0,1-3.28.36c-3.31,0-4.44-1.26-4.44-5.89V396h-2.28v-2.09h2.28V389h2.38v4.92H769V396Z"/><path class="cls-11" d="M771.93,387.45h2.41v2.8h-2.41Zm0,6.43h2.41V410h-2.41Z"/><path class="cls-11" d="M789.36,394l-.1,2s-2.57-.29-3.79-.29c-3.7,0-4.7,1.61-4.7,5.92,0,4.76.74,6.5,4.73,6.5,1.22,0,3.8-.29,3.8-.29l.09,2a42.67,42.67,0,0,1-4.47.45c-5.11,0-6.62-2.34-6.62-8.65,0-5.82,1.89-8.07,6.69-8.07A37.39,37.39,0,0,1,789.36,394Z"/><path class="cls-11" d="M804.67,407.87l.07,1.9a56.68,56.68,0,0,1-6.28.51c-4.79,0-6.37-2.79-6.37-8.26,0-6.11,2.64-8.46,6.73-8.46,4.27,0,6.46,2.25,6.46,7.53l-.13,1.83H794.54c0,3.44,1.06,5.24,4.21,5.24C801.16,408.16,804.67,407.87,804.67,407.87Zm-1.8-6.88c0-4-1.22-5.4-4-5.4s-4.28,1.51-4.31,5.4Z"/><rect class="cls-11" x="332.93" y="374.49" width="471.87" height="1"/></svg>