<svg id="Layer_1" data-name="Layer 1" xmlns="http://www.w3.org/2000/svg" viewBox="0 0 893.58 408.22"><defs><style>.cls-1{fill:#c2cccb;}.cls-2{fill:#9bbb4f;}.cls-3{fill:#00b3be;}.cls-4{fill:#ef3e3a;}.cls-5{fill:#6155a4;}.cls-6{fill:#231f20;}.cls-7{fill:#fff;}.cls-8{fill:#cf232c;}.cls-9{fill:#eb9522;}.cls-10{fill:#766f65;}.cls-11{fill:#434343;}</style></defs><title>Artboard 1 copy</title><rect class="cls-1" x="282.7" y="176.66" width="3" height="59.6" transform="translate(-56.59 121.28) rotate(-21.96)"/><rect class="cls-1" x="241.42" y="148.18" width="3" height="60.29" transform="matrix(0.02, -1, 1, 0.02, 60.56, 418.22)"/><rect class="cls-1" x="150.42" y="184.93" width="64.45" height="3" transform="translate(-43.14 55.53) rotate(-15.48)"/><rect class="cls-1" x="102.21" y="185.45" width="3" height="74.08" transform="translate(-122.53 127.24) rotate(-42.17)"/><rect class="cls-1" x="73.03" y="141.79" width="3" height="53.59" transform="translate(-26.2 14.22) rotate(-9.28)"/><rect class="cls-1" x="140.84" y="134.88" width="3" height="62.58" transform="translate(-49.78 61.46) rotate(-20.82)"/><rect class="cls-1" x="70.09" y="137.93" width="61.2" height="3" transform="translate(-11.95 9.46) rotate(-5.08)"/><rect class="cls-1" x="114.35" y="157.69" width="3" height="75.23" transform="translate(-79.82 310.53) rotate(-89.82)"/><rect class="cls-1" x="54.04" y="115.74" width="54.54" height="3" transform="translate(-58.87 143.77) rotate(-65.97)"/><rect class="cls-1" x="92.17" y="87.18" width="52.08" height="3" transform="translate(-11.25 17.42) rotate(-8.05)"/><rect class="cls-1" x="136.55" y="61.85" width="78.39" height="3" transform="translate(-4.79 111.39) rotate(-34.72)"/><rect class="cls-1" x="168.68" y="69.37" width="60.43" height="3" transform="translate(75.7 242.35) rotate(-73.92)"/><rect class="cls-1" x="246.26" y="13.34" width="3" height="86.05" transform="translate(111.04 270.54) rotate(-70.27)"/><rect class="cls-1" x="285.41" y="80.65" width="3" height="79.41" transform="translate(116.32 380.56) rotate(-79.51)"/><rect class="cls-1" x="216.88" y="76.29" width="3" height="60.45" transform="translate(66.65 296.28) rotate(-77.36)"/><rect class="cls-1" x="165.7" y="68.12" width="3" height="49.17" transform="translate(26.48 222.11) rotate(-71.61)"/><rect class="cls-1" x="111.08" y="109.52" width="53.46" height="3" transform="translate(-3.79 217.17) rotate(-75.71)"/><rect class="cls-1" x="126.06" y="117.19" width="69.63" height="3" transform="translate(-38.34 101.89) rotate(-31.6)"/><rect class="cls-1" x="200.35" y="99" width="3" height="80.6" transform="translate(-32.04 65.52) rotate(-17.1)"/><rect class="cls-1" x="194.2" y="143.97" width="73.16" height="3" transform="translate(-5.65 281.57) rotate(-62.15)"/><rect class="cls-1" x="235.53" y="92" width="62.42" height="3" transform="translate(15.13 222.3) rotate(-46.42)"/><rect class="cls-1" x="258.52" y="111.45" width="3" height="69.9" transform="translate(-35.83 107.51) rotate(-21.89)"/><rect class="cls-1" x="258.52" y="110.52" width="3" height="69.9" transform="translate(-35.49 107.44) rotate(-21.89)"/><rect class="cls-1" x="285.01" y="95.86" width="3" height="108.08" transform="translate(-18.52 257.2) rotate(-47)"/><rect class="cls-1" x="306.29" y="64.57" width="3" height="66.65" transform="translate(1.02 198.96) rotate(-35.88)"/><rect class="cls-1" x="324.49" y="127.58" width="3" height="59.2" transform="translate(-4.95 10.72) rotate(-1.87)"/><rect class="cls-1" x="282.48" y="208.93" width="56.41" height="3" transform="translate(-34.88 356.69) rotate(-57.05)"/><polygon class="cls-2" points="175.24 378.3 160.24 378.3 160.24 286.88 147.78 276.65 157.3 265.06 175.24 279.79 175.24 378.3"/><polygon class="cls-3" points="198.03 378.3 183.03 378.3 183.03 254.34 168.77 235.17 180.81 226.22 198.03 249.38 198.03 378.3"/><polygon class="cls-4" points="220.28 378.3 205.28 378.3 205.28 241.36 248.9 208.72 257.89 220.73 220.28 248.87 220.28 378.3"/><polygon class="cls-5" points="243.07 378.3 228.07 378.3 228.07 289.44 259.57 257.94 270.17 268.54 243.07 295.65 243.07 378.3"/><circle class="cls-6" cx="153.46" cy="195.42" r="18.83"/><path class="cls-7" d="M153.46,177.59a17.83,17.83,0,1,1-17.83,17.83,17.83,17.83,0,0,1,17.83-17.83m0-2a19.83,19.83,0,1,0,19.83,19.83,19.86,19.86,0,0,0-19.83-19.83Z"/><path class="cls-6" d="M327,200a13.22,13.22,0,1,1,13.21-13.21A13.23,13.23,0,0,1,327,200Z"/><path class="cls-7" d="M327,174.54a12.22,12.22,0,1,1-12.22,12.22A12.21,12.21,0,0,1,327,174.54m0-2a14.22,14.22,0,1,0,14.21,14.22A14.24,14.24,0,0,0,327,172.54Z"/><path class="cls-6" d="M70.21,158.14a16,16,0,1,1,16-16A16,16,0,0,1,70.21,158.14Z"/><path class="cls-7" d="M70.21,127.15a15,15,0,1,1-15,15,15,15,0,0,1,15-15m0-2a17,17,0,1,0,17,17,17,17,0,0,0-17-17Z"/><path class="cls-3" d="M190.53,119.37a18.91,18.91,0,1,1,18.9-18.91A18.93,18.93,0,0,1,190.53,119.37Z"/><path class="cls-7" d="M190.53,82.55a17.91,17.91,0,1,1-17.91,17.91,17.9,17.9,0,0,1,17.91-17.91m0-2a19.91,19.91,0,1,0,19.9,19.91,19.93,19.93,0,0,0-19.9-19.91Z"/><path class="cls-8" d="M246.64,123.36a10.23,10.23,0,1,1,10.22-10.23A10.24,10.24,0,0,1,246.64,123.36Z"/><path class="cls-7" d="M246.64,103.91a9.23,9.23,0,1,1-9.23,9.22,9.22,9.22,0,0,1,9.23-9.22m0-2a11.23,11.23,0,1,0,11.22,11.22,11.24,11.24,0,0,0-11.22-11.22Z"/><path class="cls-5" d="M326,148.52a20.93,20.93,0,1,1,20.93-20.93A21,21,0,0,1,326,148.52Z"/><path class="cls-7" d="M326,107.66A19.93,19.93,0,1,1,306,127.59,19.93,19.93,0,0,1,326,107.66m0-2a21.93,21.93,0,1,0,21.93,21.93A22,22,0,0,0,326,105.66Z"/><path class="cls-9" d="M207.26,63.48A21.64,21.64,0,1,1,228.9,41.84,21.66,21.66,0,0,1,207.26,63.48Z"/><path class="cls-7" d="M207.26,21.21a20.63,20.63,0,1,1-20.63,20.63,20.63,20.63,0,0,1,20.63-20.63m0-2A22.63,22.63,0,1,0,229.9,41.84a22.65,22.65,0,0,0-22.64-22.63Z"/><path class="cls-4" d="M288.26,85.46A14.57,14.57,0,1,1,302.83,70.9,14.58,14.58,0,0,1,288.26,85.46Z"/><path class="cls-7" d="M288.26,57.33A13.57,13.57,0,1,1,274.69,70.9a13.57,13.57,0,0,1,13.57-13.57m0-2A15.57,15.57,0,1,0,303.83,70.9a15.59,15.59,0,0,0-15.57-15.57Z"/><path class="cls-4" d="M295.34,254.63a20.54,20.54,0,1,1,20.54-20.53A20.55,20.55,0,0,1,295.34,254.63Z"/><path class="cls-7" d="M295.35,214.56a19.54,19.54,0,1,1-19.54,19.54,19.54,19.54,0,0,1,19.54-19.54m0-2a21.54,21.54,0,1,0,21.53,21.54,21.56,21.56,0,0,0-21.53-21.54Z"/><path class="cls-10" d="M271.62,190.56A12.4,12.4,0,1,1,284,178.17,12.41,12.41,0,0,1,271.62,190.56Z"/><path class="cls-7" d="M271.62,166.77a11.4,11.4,0,1,1-11.4,11.4,11.4,11.4,0,0,1,11.4-11.4m0-2A13.4,13.4,0,1,0,285,178.17a13.41,13.41,0,0,0-13.39-13.4Z"/><path class="cls-4" d="M131.17,148.27a11.56,11.56,0,1,1,11.56-11.55A11.57,11.57,0,0,1,131.17,148.27Z"/><path class="cls-7" d="M131.17,126.16a10.56,10.56,0,1,1-10.56,10.56,10.56,10.56,0,0,1,10.56-10.56m0-2a12.56,12.56,0,1,0,12.56,12.56,12.58,12.58,0,0,0-12.56-12.56Z"/><path class="cls-5" d="M143.53,95.9a10.23,10.23,0,1,1,10.22-10.23A10.24,10.24,0,0,1,143.53,95.9Z"/><path class="cls-7" d="M143.53,76.45a9.23,9.23,0,1,1-9.23,9.22,9.22,9.22,0,0,1,9.23-9.22m0-2a11.23,11.23,0,1,0,11.22,11.22,11.24,11.24,0,0,0-11.22-11.22Z"/><path class="cls-5" d="M128.58,262.71a12.78,12.78,0,1,1,12.78-12.77A12.79,12.79,0,0,1,128.58,262.71Z"/><path class="cls-7" d="M128.58,238.16a11.78,11.78,0,1,1-11.77,11.78,11.77,11.77,0,0,1,11.77-11.78m0-2a13.78,13.78,0,1,0,13.78,13.78,13.79,13.79,0,0,0-13.78-13.78Z"/><path class="cls-8" d="M91.68,107.48a15.15,15.15,0,1,1,15.15-15.15A15.16,15.16,0,0,1,91.68,107.48Z"/><path class="cls-7" d="M91.68,78.18A14.15,14.15,0,1,1,77.54,92.33,14.14,14.14,0,0,1,91.68,78.18m0-2a16.15,16.15,0,1,0,16.15,16.15A16.16,16.16,0,0,0,91.68,76.18Z"/><path class="cls-9" d="M77.6,211.07a15.65,15.65,0,1,1,15.65-15.65A15.67,15.67,0,0,1,77.6,211.07Z"/><path class="cls-7" d="M77.6,180.77a14.65,14.65,0,1,1-14.66,14.65A14.65,14.65,0,0,1,77.6,180.77m0-2a16.65,16.65,0,1,0,16.65,16.65A16.67,16.67,0,0,0,77.6,178.77Z"/><path class="cls-2" d="M213.7,200.91a23.09,23.09,0,1,1,23.09-23.09A23.12,23.12,0,0,1,213.7,200.91Z"/><path class="cls-7" d="M213.7,155.73a22.09,22.09,0,1,1-22.09,22.09,22.09,22.09,0,0,1,22.09-22.09m0-2a24.09,24.09,0,1,0,24.09,24.09,24.11,24.11,0,0,0-24.09-24.09Z"/><path class="cls-11" d="M378.48,298.15V255.24h15.31c12.46,0,15.87,8.68,15.87,20.84s-3.22,22.07-15.87,22.07Zm15.31-38.69H383.25v34.47h10.54c8.93,0,11-8.56,11-17.85S402.72,259.46,393.79,259.46Z"/><path class="cls-11" d="M417.66,254.75h4.65v5.39h-4.65Zm0,12.4h4.65v31h-4.65Z"/><path class="cls-11" d="M429.87,303.35c0-3.59,1.68-5.27,4.9-7.68a5.06,5.06,0,0,1-1.73-4.28c0-1.18,2.1-4.9,2.1-4.9-2.6-1.18-4.89-3.66-4.89-9.36,0-7.63,4.71-10.6,11.59-10.6a32.34,32.34,0,0,1,6.45.8l9.17-.24v4l-5.89-.12c1.18,1.18,2.05,2.91,2.05,6.2,0,8.06-4,10.48-12,10.48a26.89,26.89,0,0,1-3-.25,18.49,18.49,0,0,0-1.12,3.53c0,2.48.5,2.85,7.5,2.85,8.8,0,12,1.74,12,9.12,0,7-5,9.86-13.77,9.86C433.41,312.72,429.87,310.55,429.87,303.35Zm8.06-5.82c-2.6,1.92-3.47,3-3.47,5.45,0,4.28,1.8,5.83,8.81,5.83,6.2,0,9-1.67,9-5.77,0-4.71-2-5.2-7.62-5.2C442.46,297.84,437.93,297.53,437.93,297.53Zm11-20.4c0-4.9-1.92-6.82-7.13-6.82-4.84,0-6.94,1.92-6.94,6.82s2.1,6.76,6.94,6.76C447.05,283.89,449,282,449,277.13Z"/><path class="cls-11" d="M463.11,254.75h4.65v5.39h-4.65Zm0,12.4h4.65v31h-4.65Z"/><path class="cls-11" d="M482.88,271.18V286c0,6.76.44,8.68,4.47,8.68,1.73,0,5.51-.37,5.51-.37l.31,3.85a54.31,54.31,0,0,1-6.32.68c-6.38,0-8.55-2.42-8.55-11.35v-16.3h-4.41v-4h4.41v-9.49h4.58v9.49h9.86v4Z"/><path class="cls-11" d="M520.33,292.38c.12,1.8,1.61,2.48,3.6,2.73l-.19,3.66c-3.29,0-5.52-.62-7.38-2.48a31.69,31.69,0,0,1-11.16,2.48c-5.64,0-8.74-3.23-8.74-9.49,0-5.95,3.1-8.55,9.49-9.18l9.73-.92v-2.67c0-4.34-1.86-5.89-5.58-5.89-4.34,0-11.72.81-11.72.81l-.18-3.54a75.3,75.3,0,0,1,12.15-1.36c7,0,10,3.22,10,10Zm-13.83-8.8c-3.78.37-5.27,2.17-5.27,5.58,0,3.59,1.55,5.7,4.72,5.7a32.92,32.92,0,0,0,9.73-1.92V282.71Z"/><path class="cls-11" d="M529.88,253.63h4.65v44.52h-4.65Z"/><path class="cls-11" d="M584.87,278.74H563.05v19.41h-4.78V255.24h4.78v19.22h21.82V255.24h4.71v42.91h-4.71Z"/><path class="cls-11" d="M623.31,267.15v31h-4.65V296s-4.65,2.79-9.18,2.79c-8.68,0-10.47-4-10.47-15.44V267.15h4.65v16.12c0,8.55.74,11.34,6.51,11.34a18.83,18.83,0,0,0,8.49-2.29V267.15Z"/><path class="cls-11" d="M632.24,298.15v-31h4.58v2.17s4.66-2.79,9.06-2.79c4.15,0,6.44.93,8.06,3.16,0,0,5.51-3.16,11-3.16,8.43,0,10.48,4,10.48,15.25v16.37H670.8V281.9c0-8.18-.93-11.22-6.51-11.22a20.43,20.43,0,0,0-8.74,2.3c.56,1.42.8,5.33.8,9v16.12H651.7v-16c0-8.55-.86-11.47-6.51-11.47a18.46,18.46,0,0,0-8.3,2.3v25.17Z"/><path class="cls-11" d="M706,292.38c.13,1.8,1.61,2.48,3.6,2.73l-.19,3.66c-3.28,0-5.51-.62-7.37-2.48a31.69,31.69,0,0,1-11.16,2.48c-5.64,0-8.75-3.23-8.75-9.49,0-5.95,3.11-8.55,9.49-9.18l9.73-.92v-2.67c0-4.34-1.86-5.89-5.58-5.89-4.34,0-11.71.81-11.71.81l-.19-3.54A75.3,75.3,0,0,1,696,266.53c7,0,10,3.22,10,10Zm-13.82-8.8c-3.78.37-5.27,2.17-5.27,5.58,0,3.59,1.55,5.7,4.71,5.7a32.83,32.83,0,0,0,9.73-1.92V282.71Z"/><path class="cls-11" d="M715.13,298.15v-31h4.59v2.17s5-2.79,9.61-2.79c8.55,0,10.48,4.21,10.48,15.25v16.37h-4.59V281.9c0-8.18-.93-11.22-6.7-11.22a21.19,21.19,0,0,0-8.74,2.3v25.17Z"/><path class="cls-11" d="M748.42,254.75h4.65v5.39h-4.65Zm0,12.4h4.65v31h-4.65Z"/><path class="cls-11" d="M768.2,271.18V286c0,6.76.43,8.68,4.46,8.68,1.74,0,5.52-.37,5.52-.37l.31,3.85a54.31,54.31,0,0,1-6.32.68c-6.39,0-8.56-2.42-8.56-11.35v-16.3h-4.4v-4h4.4v-9.49h4.59v9.49h9.86v4Z"/><path class="cls-11" d="M783.76,254.75h4.65v5.39h-4.65Zm0,12.4h4.65v31h-4.65Z"/><path class="cls-11" d="M820.22,294.12l.12,3.65a107.3,107.3,0,0,1-12.09,1c-9.24,0-12.27-5.4-12.27-15.94,0-11.78,5.08-16.3,12.95-16.3,8.25,0,12.46,4.34,12.46,14.51l-.24,3.53H800.69c0,6.63,2,10.1,8.12,10.1C813.46,294.67,820.22,294.12,820.22,294.12Zm-3.48-13.27c0-7.69-2.35-10.42-7.81-10.42-5.27,0-8.24,2.92-8.3,10.42Z"/><path class="cls-11" d="M849.23,271.67a101.64,101.64,0,0,0-10.85-1c-3.84,0-6.75,1.06-6.75,4.71,0,2.92,1.48,3.72,8.06,4.84,7.75,1.3,10.66,2.85,10.66,8.86,0,7.26-4.59,9.68-12,9.68a87.28,87.28,0,0,1-10.91-1.18l.25-4s7.07,1.05,10.23,1.05c5.08,0,7.81-1.11,7.81-5.33,0-3.22-1.61-4-8.37-5.08-7-1.12-10.35-2.42-10.35-8.62,0-6.82,5.51-9.05,11.16-9.05a79.31,79.31,0,0,1,11.22,1.18Z"/><path class="cls-11" d="M383.25,356.12v16.43h-4.77V329.64h15.87c9,0,13.7,4,13.7,13,0,6.33-2.48,10.73-7.87,12.46l8.24,17.43h-5.27l-7.75-16.43Zm11.1-22.26h-11.1v18h11.16c6.45,0,8.74-3.84,8.74-9.24C403.15,336.77,400.36,333.86,394.35,333.86Z"/><path class="cls-11" d="M438.18,368.52l.13,3.65a107.3,107.3,0,0,1-12.09,1c-9.24,0-12.28-5.4-12.28-15.94,0-11.78,5.09-16.3,13-16.3,8.24,0,12.46,4.34,12.46,14.51l-.25,3.53H418.65c0,6.63,2.05,10.1,8.12,10.1C431.43,369.07,438.18,368.52,438.18,368.52Zm-3.47-13.27c0-7.69-2.36-10.42-7.81-10.42-5.27,0-8.25,2.92-8.31,10.42Z"/><path class="cls-11" d="M467.2,346.07a101.64,101.64,0,0,0-10.85-1c-3.84,0-6.76,1.06-6.76,4.71,0,2.92,1.49,3.72,8.06,4.84,7.75,1.3,10.66,2.85,10.66,8.86,0,7.26-4.58,9.68-12,9.68A87.28,87.28,0,0,1,445.38,372l.24-4s7.07,1.05,10.23,1.05c5.09,0,7.81-1.11,7.81-5.33,0-3.22-1.61-4-8.37-5.08-7-1.12-10.35-2.42-10.35-8.62,0-6.82,5.52-9.05,11.16-9.05a79.1,79.1,0,0,1,11.22,1.18Z"/><path class="cls-11" d="M498.32,368.52l.13,3.65a107.3,107.3,0,0,1-12.09,1c-9.24,0-12.28-5.4-12.28-15.94,0-11.78,5.08-16.3,13-16.3,8.24,0,12.46,4.34,12.46,14.51l-.25,3.53H478.79c0,6.63,2,10.1,8.12,10.1C491.56,369.07,498.32,368.52,498.32,368.52Zm-3.47-13.27c0-7.69-2.36-10.42-7.81-10.42-5.27,0-8.25,2.92-8.31,10.42Z"/><path class="cls-11" d="M528.64,366.78c.12,1.8,1.61,2.48,3.59,2.73l-.18,3.66c-3.29,0-5.52-.62-7.38-2.48a31.69,31.69,0,0,1-11.16,2.48c-5.64,0-8.74-3.23-8.74-9.49,0-5.95,3.1-8.56,9.49-9.18l9.73-.92v-2.67c0-4.34-1.86-5.89-5.58-5.89-4.34,0-11.72.81-11.72.81l-.18-3.54a75.3,75.3,0,0,1,12.15-1.36c7,0,10,3.22,10,10ZM514.81,358c-3.78.37-5.27,2.17-5.27,5.58,0,3.59,1.55,5.7,4.72,5.7a32.92,32.92,0,0,0,9.73-1.92V357.11Z"/><path class="cls-11" d="M537.82,341.55h4.58v4.21a35,35,0,0,1,11.35-4.89v4.71a45.08,45.08,0,0,0-11.28,4.21v22.76h-4.65Z"/><path class="cls-11" d="M578.67,341.86l-.18,3.78s-5-.56-7.32-.56c-7.13,0-9,3.1-9,11.41,0,9.17,1.43,12.52,9.11,12.52,2.36,0,7.32-.56,7.32-.56l.18,3.85a81.92,81.92,0,0,1-8.61.87c-9.86,0-12.77-4.53-12.77-16.68,0-11.22,3.65-15.56,12.89-15.56A72,72,0,0,1,578.67,341.86Z"/><path class="cls-11" d="M585.68,372.55V328h4.65v15.25a26.26,26.26,0,0,1,9.55-2.35c8.49,0,10.47,4.21,10.47,15.25v16.37H605.7V356.3c0-8.18-.93-11.22-6.63-11.22a25.49,25.49,0,0,0-8.74,1.86v25.61Z"/><path class="cls-11" d="M633.42,329.64h4.77v42.91h-4.77Z"/><path class="cls-11" d="M647.86,372.55v-31h4.59v2.17s5-2.79,9.61-2.79c8.55,0,10.48,4.21,10.48,15.25v16.37H668V356.3c0-8.18-.93-11.22-6.7-11.22a21.19,21.19,0,0,0-8.74,2.3v25.17Z"/><path class="cls-11" d="M701.74,346.07a101.64,101.64,0,0,0-10.85-1c-3.84,0-6.76,1.06-6.76,4.71,0,2.92,1.49,3.72,8.06,4.84,7.75,1.3,10.66,2.85,10.66,8.86,0,7.26-4.58,9.68-12,9.68A87.28,87.28,0,0,1,679.92,372l.24-4s7.07,1.05,10.23,1.05c5.09,0,7.81-1.11,7.81-5.33,0-3.22-1.61-4-8.36-5.08-7-1.12-10.36-2.42-10.36-8.62,0-6.82,5.52-9.05,11.16-9.05a79.1,79.1,0,0,1,11.22,1.18Z"/><path class="cls-11" d="M716.19,345.58v14.81c0,6.76.43,8.68,4.46,8.68,1.74,0,5.52-.37,5.52-.37l.31,3.85a54.57,54.57,0,0,1-6.33.68c-6.38,0-8.55-2.42-8.55-11.35v-16.3h-4.4v-4h4.4v-9.49h4.59v9.49H726v4Z"/><path class="cls-11" d="M731.75,329.15h4.65v5.39h-4.65Zm0,12.4h4.65v31h-4.65Z"/><path class="cls-11" d="M751.52,345.58v14.81c0,6.76.44,8.68,4.47,8.68,1.74,0,5.52-.37,5.52-.37l.31,3.85a54.57,54.57,0,0,1-6.33.68c-6.38,0-8.55-2.42-8.55-11.35v-16.3h-4.4v-4h4.4v-9.49h4.58v9.49h9.86v4Z"/><path class="cls-11" d="M791.08,341.55v31h-4.65v-2.17s-4.65,2.79-9.18,2.79c-8.67,0-10.47-4-10.47-15.44V341.55h4.65v16.12c0,8.55.74,11.34,6.51,11.34a18.83,18.83,0,0,0,8.49-2.29V341.55Z"/><path class="cls-11" d="M806.21,345.58v14.81c0,6.76.43,8.68,4.46,8.68,1.74,0,5.52-.37,5.52-.37l.31,3.85a54.31,54.31,0,0,1-6.32.68c-6.39,0-8.56-2.42-8.56-11.35v-16.3h-4.4v-4h4.4v-9.49h4.59v9.49h9.86v4Z"/><path class="cls-11" d="M844.65,368.52l.12,3.65a107.3,107.3,0,0,1-12.09,1c-9.24,0-12.27-5.4-12.27-15.94,0-11.78,5.08-16.3,13-16.3,8.25,0,12.47,4.34,12.47,14.51l-.25,3.53H825.12c0,6.63,2,10.1,8.12,10.1C837.89,369.07,844.65,368.52,844.65,368.52Zm-3.47-13.27c0-7.69-2.36-10.42-7.82-10.42-5.27,0-8.24,2.92-8.3,10.42Z"/></svg>