<svg id="Layer_1" data-name="Layer 1" xmlns="http://www.w3.org/2000/svg" viewBox="0 0 5168.7 450"><defs><style>.cls-1{fill:#c2cccb;}.cls-2{fill:#9bbb4f;}.cls-3{fill:#00b3be;}.cls-4{fill:#ef3e3a;}.cls-5{fill:#6155a4;}.cls-6{fill:#231f20;}.cls-7{fill:#fff;}.cls-8{fill:#cf232c;}.cls-9{fill:#eb9522;}.cls-10{fill:#766f65;}.cls-11{fill:#434343;}</style></defs><title>Artboard 8 copy</title><rect class="cls-1" x="318.25" y="198.87" width="3" height="70.6" transform="translate(-64.02 135.2) rotate(-21.76)"/><rect class="cls-1" x="269.78" y="165.4" width="3" height="70.78" transform="translate(65.94 468.65) rotate(-89.03)"/><rect class="cls-1" x="162.66" y="208.91" width="75.73" height="3" transform="translate(-49.33 61.9) rotate(-15.65)"/><rect class="cls-1" x="106.36" y="209.45" width="3" height="87.48" transform="translate(-141.46 136.66) rotate(-41.88)"/><rect class="cls-1" x="72.09" y="157.46" width="3" height="63.57" transform="translate(-29.25 14.17) rotate(-9.18)"/><rect class="cls-1" x="151.7" y="149.3" width="3" height="74.15" transform="translate(-55.83 65.91) rotate(-20.63)"/><rect class="cls-1" x="68.37" y="153.15" width="71.86" height="3" transform="translate(-13.44 9.97) rotate(-5.14)"/><rect class="cls-1" x="120.6" y="176.78" width="3" height="88.32" transform="translate(-99.22 342.33) rotate(-89.82)"/><rect class="cls-1" x="49.26" y="126.82" width="64.6" height="3" transform="translate(-68.76 151.14) rotate(-66.19)"/><rect class="cls-1" x="94.29" y="92.93" width="61.16" height="3" transform="translate(-12.12 18.65) rotate(-8.15)"/><rect class="cls-1" x="146.25" y="62.89" width="92.35" height="3" transform="translate(-2.14 121.98) rotate(-34.99)"/><rect class="cls-1" x="183.78" y="71.81" width="71.64" height="3" transform="matrix(0.27, -0.96, 0.96, 0.27, 88.84, 264.37)"/><rect class="cls-1" x="275.47" y="5.53" width="3" height="101.15" transform="translate(129.83 297.38) rotate(-70.07)"/><rect class="cls-1" x="321.43" y="85.39" width="3" height="93.27" transform="translate(133.76 425.17) rotate(-79.4)"/><rect class="cls-1" x="240.97" y="80.1" width="3" height="71" transform="translate(76.13 326.52) rotate(-77.23)"/><rect class="cls-1" x="180.89" y="70.32" width="3" height="57.78" transform="translate(30.25 240.5) rotate(-71.43)"/><rect class="cls-1" x="116.2" y="119.45" width="63.38" height="3" transform="translate(-5.54 234.78) rotate(-75.85)"/><rect class="cls-1" x="133.97" y="128.55" width="81.98" height="3" transform="translate(-42.28 111.94) rotate(-31.86)"/><rect class="cls-1" x="221.57" y="106.73" width="3" height="95.54" transform="translate(-35.33 71.68) rotate(-16.94)"/><rect class="cls-1" x="213.74" y="160.32" width="86.59" height="3" transform="translate(-5.44 314.66) rotate(-62.4)"/><rect class="cls-1" x="262.41" y="98.66" width="73.69" height="3" transform="translate(21.17 249.35) rotate(-46.72)"/><rect class="cls-1" x="289.87" y="121.51" width="3" height="82.81" transform="translate(-39.58 119.19) rotate(-21.68)"/><rect class="cls-1" x="289.87" y="120.42" width="3" height="82.81" transform="translate(-39.17 119.11) rotate(-21.68)"/><rect class="cls-1" x="320.97" y="103.32" width="3" height="127.51" transform="translate(-20.28 287.16) rotate(-46.7)"/><rect class="cls-1" x="345.95" y="65.98" width="3" height="78.79" transform="translate(3.58 221.92) rotate(-35.59)"/><rect class="cls-1" x="367.32" y="140.58" width="3" height="70.23" transform="matrix(1, -0.03, 0.03, 1, -5.48, 12)"/><rect class="cls-1" x="317.49" y="237.38" width="66.72" height="3" transform="translate(-39.67 405.18) rotate(-57.31)"/><polygon class="cls-2" points="191.82 438.04 174.21 438.04 174.21 329.58 159.59 317.44 170.77 303.69 191.82 321.17 191.82 438.04"/><polygon class="cls-3" points="218.58 438.04 200.97 438.04 200.97 290.98 184.24 268.24 198.37 257.62 218.58 285.09 218.58 438.04"/><polygon class="cls-4" points="244.7 438.04 227.09 438.04 227.09 275.58 278.31 236.86 288.86 251.11 244.7 284.49 244.7 438.04"/><polygon class="cls-5" points="271.46 438.04 253.85 438.04 253.85 332.62 290.83 295.24 303.29 307.83 271.46 339.99 271.46 438.04"/><ellipse class="cls-6" cx="166.26" cy="221.08" rx="22.11" ry="22.34"/><path class="cls-7" d="M166.26,199.93a21.15,21.15,0,1,1-20.93,21.15,21,21,0,0,1,20.93-21.15m0-2.38a23.53,23.53,0,1,0,23.28,23.53,23.44,23.44,0,0,0-23.28-23.53Z"/><ellipse class="cls-6" cx="369.95" cy="210.8" rx="15.52" ry="15.68"/><path class="cls-7" d="M370,196.3a14.5,14.5,0,1,1-14.34,14.5A14.43,14.43,0,0,1,370,196.3m0-2.37a16.87,16.87,0,1,0,16.69,16.87A16.8,16.8,0,0,0,370,193.93Z"/><path class="cls-6" d="M68.52,176.85a19,19,0,1,1,18.78-19A18.9,18.9,0,0,1,68.52,176.85Z"/><path class="cls-7" d="M68.52,140.08a17.79,17.79,0,1,1-17.61,17.79,17.7,17.7,0,0,1,17.61-17.79m0-2.38a20.17,20.17,0,1,0,20,20.17,20.09,20.09,0,0,0-20-20.17Z"/><ellipse class="cls-3" cx="209.78" cy="108.41" rx="22.2" ry="22.43"/><path class="cls-7" d="M209.78,87.17a21.25,21.25,0,1,1-21,21.24,21.13,21.13,0,0,1,21-21.24m0-2.38a23.62,23.62,0,1,0,23.37,23.62,23.52,23.52,0,0,0-23.37-23.62Z"/><path class="cls-8" d="M275.65,135.58a12.13,12.13,0,1,1,12-12.13A12.08,12.08,0,0,1,275.65,135.58Z"/><path class="cls-7" d="M275.65,112.5a10.95,10.95,0,1,1-10.83,11,10.88,10.88,0,0,1,10.83-11m0-2.37a13.32,13.32,0,1,0,13.18,13.32,13.27,13.27,0,0,0-13.18-13.32Z"/><ellipse class="cls-5" cx="368.77" cy="140.6" rx="24.57" ry="24.83"/><path class="cls-7" d="M368.77,117a23.65,23.65,0,1,1-23.4,23.64A23.52,23.52,0,0,1,368.77,117m0-2.38a26,26,0,1,0,25.75,26,25.92,25.92,0,0,0-25.75-26Z"/><ellipse class="cls-9" cx="229.43" cy="38.87" rx="25.4" ry="25.67"/><path class="cls-7" d="M229.43,14.39A24.48,24.48,0,1,1,205.2,38.87a24.35,24.35,0,0,1,24.23-24.48m0-2.38A26.86,26.86,0,1,0,256,38.87,26.75,26.75,0,0,0,229.43,12Z"/><path class="cls-4" d="M324.52,90.62a17.28,17.28,0,1,1,17.1-17.28A17.21,17.21,0,0,1,324.52,90.62Z"/><path class="cls-7" d="M324.52,57.25a16.1,16.1,0,1,1-15.93,16.09,16,16,0,0,1,15.93-16.09m0-2.38A18.47,18.47,0,1,0,342.8,73.34a18.39,18.39,0,0,0-18.28-18.47Z"/><path class="cls-4" d="M332.84,291.32A24.36,24.36,0,1,1,357,267,24.26,24.26,0,0,1,332.84,291.32Z"/><path class="cls-7" d="M332.84,243.78A23.18,23.18,0,1,1,309.9,267a23.05,23.05,0,0,1,22.94-23.18m0-2.37A25.55,25.55,0,1,0,358.12,267a25.45,25.45,0,0,0-25.28-25.55Z"/><ellipse class="cls-10" cx="304.98" cy="200.61" rx="14.55" ry="14.71"/><path class="cls-7" d="M305,187.09a13.52,13.52,0,1,1-13.38,13.52A13.45,13.45,0,0,1,305,187.09m0-2.37a15.89,15.89,0,1,0,15.73,15.89A15.83,15.83,0,0,0,305,184.72Z"/><path class="cls-4" d="M140.09,165.14a13.71,13.71,0,1,1,13.57-13.71A13.66,13.66,0,0,1,140.09,165.14Z"/><path class="cls-7" d="M140.09,138.91a12.52,12.52,0,1,1-12.39,12.52,12.45,12.45,0,0,1,12.39-12.52m0-2.38a14.9,14.9,0,1,0,14.74,14.9,14.84,14.84,0,0,0-14.74-14.9Z"/><ellipse class="cls-5" cx="154.6" cy="90.87" rx="12" ry="12.13"/><path class="cls-7" d="M154.6,79.92a10.95,10.95,0,1,1-10.83,11,10.89,10.89,0,0,1,10.83-11m0-2.37a13.32,13.32,0,1,0,13.18,13.32A13.27,13.27,0,0,0,154.6,77.55Z"/><path class="cls-5" d="M137.05,300.91a15.16,15.16,0,1,1,15-15.16A15.1,15.1,0,0,1,137.05,300.91Z"/><path class="cls-7" d="M137.05,271.78a14,14,0,1,1-13.82,14,13.9,13.9,0,0,1,13.82-14m0-2.37a16.35,16.35,0,1,0,16.18,16.34,16.28,16.28,0,0,0-16.18-16.34Z"/><ellipse class="cls-8" cx="93.73" cy="98.77" rx="17.79" ry="17.97"/><path class="cls-7" d="M93.73,82A16.79,16.79,0,1,1,77.12,98.77,16.7,16.7,0,0,1,93.73,82m0-2.37a19.16,19.16,0,1,0,19,19.16,19.08,19.08,0,0,0-19-19.16Z"/><ellipse class="cls-9" cx="77.19" cy="221.08" rx="18.38" ry="18.57"/><path class="cls-7" d="M77.19,203.7A17.38,17.38,0,1,1,60,221.08a17.29,17.29,0,0,1,17.2-17.38m0-2.38a19.76,19.76,0,1,0,19.55,19.76,19.68,19.68,0,0,0-19.55-19.76Z"/><path class="cls-2" d="M237,227.59a27.4,27.4,0,1,1,27.11-27.4A27.29,27.29,0,0,1,237,227.59Z"/><path class="cls-7" d="M237,174a26.21,26.21,0,1,1-25.93,26.21A26.08,26.08,0,0,1,237,174m0-2.37a28.59,28.59,0,1,0,28.29,28.58A28.47,28.47,0,0,0,237,171.61Z"/><path class="cls-11" d="M507,319.69V116.07h72.68c59.15,0,75.33,41.2,75.33,98.87,0,58.26-15.3,104.75-75.33,104.75Zm72.68-183.61h-50V299.69h50c42.38,0,52.09-40.61,52.09-84.75S622.05,136.08,579.67,136.08Z"/><path class="cls-7" d="M579.67,320.19H506.49V115.57h73.18c28.23,0,47.94,9.17,60.27,28,10.47,16,15.56,39.36,15.56,71.33C655.5,286.75,631.41,320.19,579.67,320.19Zm-72.18-1h72.18c51.06,0,74.83-33.12,74.83-104.25,0-31.77-5-54.92-15.4-70.79-12.13-18.56-31.56-27.58-59.43-27.58H507.49Zm72.18-19H529.15V135.58h50.52c46.61,0,52.59,42.41,52.59,79.36C632.26,272.3,615.06,300.19,579.67,300.19Zm-49.52-1h49.52c34.71,0,51.59-27.56,51.59-84.25,0-25.37-3.21-43.09-10.09-55.74-8.28-15.22-21.86-22.62-41.5-22.62H530.15Z"/><path class="cls-11" d="M693,113.72H715v25.6H693Zm0,58.85H715V319.69H693Z"/><path class="cls-7" d="M715.52,320.19H692.45V172.07h23.07Zm-22.07-1h21.07V173.07H693.45Zm22.07-179.37H692.45v-26.6h23.07Zm-22.07-1h21.07v-24.6H693.45Z"/><path class="cls-11" d="M750.92,344.41c0-17.07,7.94-25,23.24-36.49-5.29-3.53-8.24-11.18-8.24-20.3,0-5.59,10-23.25,10-23.25-12.36-5.59-23.25-17.36-23.25-44.43,0-36.19,22.37-50.31,55-50.31,14.71,0,30.6,3.82,30.6,3.82l43.55-1.18v18.84l-28-.59c5.6,5.59,9.71,13.83,9.71,29.42,0,38.26-19.12,49.73-56.79,49.73a123.53,123.53,0,0,1-14.41-1.18s-5.3,12.95-5.3,16.78c0,11.77,2.35,13.53,35.6,13.53,41.79,0,56.79,8.24,56.79,43.26,0,33.25-23.83,46.78-65.32,46.78C767.69,388.84,750.92,378.54,750.92,344.41Zm38.25-27.66c-12.36,9.12-16.48,14.42-16.48,25.9,0,20.3,8.53,27.66,41.79,27.66,29.42,0,42.66-7.95,42.66-27.37,0-22.36-9.41-24.72-36.19-24.72C810.65,318.22,789.17,316.75,789.17,316.75Zm52.38-96.81c0-23.24-9.13-32.36-33.84-32.36-23,0-33,9.12-33,32.36s10,32.08,33,32.08C832.42,252,841.55,243.19,841.55,219.94Z"/><path class="cls-7" d="M814.18,389.34c-47.67,0-63.76-11.34-63.76-44.93,0-17.73,9-26.05,22.89-36.47-4.95-3.7-7.89-11.22-7.89-20.32,0-5.2,8.18-20.1,9.81-23-15.51-7.24-23.05-21.86-23.05-44.66,0-33.24,19.2-50.81,55.53-50.81,14.12,0,29.52,3.55,30.65,3.82l44-1.19v19.86L855.1,191c6.23,6.73,9,15.71,9,28.9,0,18.81-4.72,31.76-14.45,39.6-9,7.25-22.61,10.63-42.84,10.63a129.8,129.8,0,0,1-14.1-1.11c-.86,2.13-5.11,12.88-5.11,16.21,0,11.39,2.17,13,35.1,13,22.7,0,36,2.57,44.36,8.59C876,313.31,880,324.15,880,342.06,880,373.88,858.47,389.34,814.18,389.34Zm-6.47-219.21c-17,0-30.3,3.86-39.44,11.47-10,8.33-15.09,21.23-15.09,38.34,0,22.61,7.51,37,23,44l.5.22-.27.48c-.1.18-9.94,17.6-9.94,23,0,9.11,3,16.54,8,19.89l.59.39-.57.42c-16.25,12.19-23,19.9-23,36.09,0,17.32,4.31,28,14,34.6,9.43,6.46,24.48,9.33,48.78,9.33,43.62,0,64.82-15.14,64.82-46.28,0-33.17-12.62-42.76-56.29-42.76-33.65,0-36.1-1.94-36.1-14,0-3.88,5.12-16.43,5.33-17l.16-.37.4.07a123,123,0,0,0,14.32,1.17c40.51,0,56.29-13.8,56.29-49.23,0-13.49-2.94-22.45-9.56-29.07l-.88-.88,28.69.61V172.79L838.26,174h-.07C838,173.9,822.19,170.13,807.71,170.13Zm6.77,200.68c-32.41,0-42.29-6.58-42.29-28.16,0-11.88,4.37-17.21,16.68-26.3l.15-.11h.18c.22,0,21.58,1.47,31.75,1.47,26.63,0,36.69,2.18,36.69,25.22C857.64,362.47,844.73,370.81,814.48,370.81Zm-25.16-53.55c-11.9,8.8-16.13,14-16.13,25.39,0,18.4,6.18,27.16,41.29,27.16,29.55,0,42.16-8,42.16-26.87,0-22.23-9.25-24.22-35.69-24.22C811.26,318.72,791.44,317.41,789.32,317.26Zm18.39-64.74c-23.77,0-33.46-9.44-33.46-32.58s10-32.86,33.46-32.86c24.71,0,34.34,9.21,34.34,32.86S832.74,252.52,807.71,252.52Zm0-64.44c-23.06,0-32.46,9.23-32.46,31.86,0,22.43,9.4,31.58,32.46,31.58,24.3,0,33.34-8.56,33.34-31.58C841.05,196.71,832,188.08,807.71,188.08Z"/><path class="cls-11" d="M908.63,113.72H930.7v25.6H908.63Zm0,58.85H930.7V319.69H908.63Z"/><path class="cls-7" d="M931.2,320.19H908.13V172.07H931.2Zm-22.07-1H930.2V173.07H909.13ZM931.2,139.82H908.13v-26.6H931.2Zm-22.07-1H930.2v-24.6H909.13Z"/><path class="cls-11" d="M1002.49,191.69V262c0,32.07,2.06,41.2,21.19,41.2,8.24,0,26.19-1.77,26.19-1.77l1.47,18.24s-19.72,3.24-30,3.24c-30.3,0-40.6-11.48-40.6-53.85V191.69H959.83V172.57h20.89v-45h21.77v45h46.79v19.12Z"/><path class="cls-7" d="M1021.32,323.43c-31.5,0-41.1-12.7-41.1-54.35V192.19H959.33V172.07h20.89v-45H1003v45h46.79v20.12H1003V262c0,35.91,4.16,40.7,20.69,40.7,8.12,0,26-1.75,26.14-1.77l.5-.05,1.55,19.21-.45.08C1051.22,320.22,1031.54,323.43,1021.32,323.43Zm-61-132.24h20.89v77.89c0,40.89,9.37,53.35,40.1,53.35,9.28,0,26.47-2.68,29.48-3.16L1049.41,302c-3,.28-18.34,1.72-25.73,1.72-20,0-21.69-10.19-21.69-41.7V191.19h46.79V173.07H1002v-45H981.22v45H960.33Z"/><path class="cls-11" d="M1180.22,292.33c.58,8.53,7.65,11.77,17.06,12.95l-.88,17.36c-15.6,0-26.19-2.95-35-11.77,0,0-26.48,11.77-53,11.77-26.78,0-41.49-15.3-41.49-45,0-28.25,14.71-40.61,45-43.55l46.2-4.42V217c0-20.6-8.83-27.95-26.49-27.95-20.59,0-55.61,3.82-55.61,3.82l-.88-16.77s32.37-6.47,57.67-6.47c33.25,0,47.38,15.3,47.38,47.37Zm-65.62-41.79c-17.95,1.77-25,10.3-25,26.49,0,17.06,7.35,27.07,22.36,27.07,21.77,0,46.2-9.12,46.2-9.12V246.43Z"/><path class="cls-7" d="M1196.87,323.14h-.47c-16.5,0-26.71-3.39-35.13-11.68-3.08,1.32-28.11,11.68-52.85,11.68-27.47,0-42-15.74-42-45.52,0-27.41,14-41,45.47-44.05l45.75-4.37V217c0-19.24-7.77-27.45-26-27.45-20.33,0-55.2,3.78-55.55,3.82l-.53.06-.93-17.74.42-.08c.32-.07,32.71-6.48,57.77-6.48,33.11,0,47.88,14.76,47.88,47.87v75.31c.5,7.15,5.78,11.11,16.62,12.47l.46.06Zm-65.21-134.59c18.92,0,27,8.51,27,28.45v13.11L1112,234.56c-31.24,3-44.57,15.91-44.57,43.06,0,29.12,14.17,44.52,41,44.52,26.07,0,52.5-11.61,52.76-11.73l.31-.14.25.24c8.17,8.18,18.1,11.56,34.18,11.63l.84-16.43c-7.12-.94-16.36-3.42-17-13.35V217c0-32.42-14.46-46.87-46.88-46.87-23.41,0-53.25,5.62-57.15,6.38l.83,15.81C1081,191.84,1112.65,188.55,1131.66,188.55ZM1112,304.6c-14.74,0-22.86-9.79-22.86-27.57,0-16.93,7.85-25.25,25.46-27h0l44.1-4.17v49.44l-.33.13C1158.08,295.54,1133.56,304.6,1112,304.6Zm2.7-53.56c-17.22,1.7-24.56,9.47-24.56,26,0,17.38,7.56,26.57,21.86,26.57,20.09,0,42.73-7.9,45.7-9V247l-43,4.07Z"/><path class="cls-11" d="M1225.52,108.42h22.07V319.69h-22.07Z"/><path class="cls-7" d="M1248.09,320.19H1225V107.92h23.07Zm-22.07-1h21.07V108.92H1226Z"/><path class="cls-11" d="M1486.51,227.59H1382.94v92.1h-22.66V116.07h22.66v91.22h103.57V116.07h22.37V319.69h-22.37Z"/><path class="cls-7" d="M1509.38,320.19H1486v-92.1H1383.44v92.1h-23.66V115.57h23.66v91.22H1486V115.57h23.37Zm-22.37-1h21.37V116.57H1487v91.22H1382.44V116.57h-21.66V319.19h21.66v-92.1H1487Z"/><path class="cls-11" d="M1668.94,172.57V319.69h-22.07V309.4s-22.07,13.24-43.55,13.24c-41.19,0-49.73-19.13-49.73-73.27v-76.8h22.07v76.5c0,40.61,3.53,53.85,30.9,53.85,21.77,0,40.31-10.89,40.31-10.89V172.57Z"/><path class="cls-7" d="M1603.32,323.14c-21.23,0-33.41-5-40.73-16.57-6.75-10.69-9.5-27.26-9.5-57.2v-77.3h23.07v77c0,41.33,4,53.35,30.4,53.35,20,0,37.54-9.41,39.81-10.68V172.07h23.07V320.19h-23.07v-9.93C1642.29,312.56,1622.47,323.14,1603.32,323.14Zm-49.23-150.07v76.3c0,57.12,10.58,72.77,49.23,72.77,21.1,0,43.07-13,43.29-13.17l.76-.46v10.68h21.07V173.07h-21.07V292.32l-.25.15c-.18.1-18.9,10.95-40.56,10.95-28.69,0-31.4-14.9-31.4-54.35v-76Z"/><path class="cls-11" d="M1711.3,319.69V172.57h21.78v10.3s22.07-13.24,43-13.24c19.71,0,30.6,4.41,38.25,15,0,0,26.19-15,52.38-15,40,0,49.73,19.12,49.73,72.38v77.68h-22.07V242.6c0-38.84-4.42-53.26-30.9-53.26-21.77,0-41.49,10.89-41.49,10.89,2.65,6.77,3.83,25.3,3.83,43v76.5H1803.7V243.78c0-40.61-4.12-54.44-30.9-54.44-20.89,0-39.43,10.89-39.43,10.89V319.69Z"/><path class="cls-7" d="M1916.9,320.19h-23.07V242.6c0-44.79-8-52.76-30.4-52.76-19.76,0-38,9.14-40.86,10.62,2.72,7.59,3.7,26.94,3.7,42.73v77H1803.2V243.78c0-41.13-4.19-53.94-30.4-53.94-19.22,0-36.66,9.41-38.93,10.68V320.19H1710.8V172.07h22.78V182c4.07-2.29,23.83-12.87,42.46-12.87,19.43,0,30.6,4.31,38.4,14.85,3.37-1.85,27.94-14.85,52.23-14.85,20.47,0,32.9,5.07,40.29,16.44,7,10.73,9.94,27.61,9.94,56.44Zm-22.07-1h21.07V242c0-28.62-2.93-45.34-9.78-55.89-7.18-11.06-19.35-16-39.45-16-25.76,0-51.87,14.79-52.13,14.94l-.39.22-.26-.36c-7.6-10.52-18.56-14.8-37.85-14.8-20.51,0-42.48,13-42.7,13.17l-.76.45V173.07H1711.8V319.19h21.07V199.94l.25-.14c.19-.11,18.9-11,39.68-11,26.86,0,31.4,13.72,31.4,54.94v75.41h21.07v-76c0-16-1-35.64-3.79-42.78l-.16-.41.38-.21c.2-.11,20.08-10.95,41.73-10.95,26.66,0,31.4,14.09,31.4,53.76Z"/><path class="cls-11" d="M2061.16,292.33c.59,8.53,7.65,11.77,17.07,12.95l-.88,17.36c-15.6,0-26.19-2.95-35-11.77,0,0-26.48,11.77-53,11.77-26.77,0-41.48-15.3-41.48-45,0-28.25,14.71-40.61,45-43.55l46.19-4.42V217c0-20.6-8.82-27.95-26.48-27.95-20.6,0-55.61,3.82-55.61,3.82l-.89-16.77s32.37-6.47,57.68-6.47c33.25,0,47.37,15.3,47.37,47.37Zm-65.62-41.79c-18,1.77-25,10.3-25,26.49,0,17.06,7.36,27.07,22.37,27.07,21.77,0,46.19-9.12,46.19-9.12V246.43Z"/><path class="cls-7" d="M2077.82,323.14h-.47c-16.5,0-26.71-3.39-35.13-11.68-3.08,1.32-28.12,11.68-52.86,11.68-27.46,0-42-15.74-42-45.52,0-27.41,14-41,45.47-44.05l45.74-4.37V217c0-19.24-7.77-27.45-26-27.45-20.33,0-55.21,3.78-55.56,3.82l-.52.06-.94-17.74.43-.08c.32-.07,32.7-6.48,57.77-6.48,33.11,0,47.87,14.76,47.87,47.87v75.31c.5,7.15,5.79,11.11,16.63,12.47l.46.06Zm-65.21-134.59c18.91,0,27,8.51,27,28.45v13.11l-46.65,4.45c-31.24,3-44.56,15.91-44.56,43.06,0,29.12,14.17,44.52,41,44.52,26.07,0,52.5-11.61,52.77-11.73l.31-.14.24.24c8.18,8.18,18.11,11.56,34.19,11.63l.84-16.43c-7.13-.94-16.36-3.42-17.05-13.35V217c0-32.42-14.45-46.87-46.87-46.87-23.41,0-53.25,5.62-57.15,6.38l.83,15.81C1961.93,191.84,1993.59,188.55,2012.61,188.55ZM1992.9,304.6c-14.75,0-22.87-9.79-22.87-27.57,0-16.93,7.86-25.25,25.47-27h0l44.09-4.17v49.44l-.32.13C2039,295.54,2014.51,304.6,1992.9,304.6Zm2.69-53.56c-17.21,1.7-24.56,9.47-24.56,26,0,17.38,7.56,26.57,21.87,26.57,20.08,0,42.73-7.9,45.69-9V247l-43,4.07Z"/><path class="cls-11" d="M2104.7,319.69V172.57h21.78v10.3s23.83-13.24,45.61-13.24c40.6,0,49.73,20,49.73,72.38v77.68H2200V242.6c0-38.84-4.41-53.26-31.78-53.26-21.18,0-41.49,10.89-41.49,10.89V319.69Z"/><path class="cls-7" d="M2222.32,320.19h-22.78V242.6c0-18.33-.94-32.32-5.57-41-4.42-8.27-12.11-11.8-25.71-11.8-19.52,0-38.54,9.43-41,10.69V320.19H2104.2V172.07H2127v10c4.21-2.21,25.6-12.9,45.11-12.9,20.62,0,33.12,5.17,40.51,16.78,6.81,10.69,9.72,27.47,9.72,56.1Zm-21.78-1h20.78V242c0-28.43-2.86-45-9.56-55.56-7.19-11.29-19.43-16.32-39.67-16.32-21.4,0-45.13,13-45.37,13.17l-.74.42V173.07H2105.2V319.19h21.07V199.93l.27-.14c.2-.11,20.65-10.95,41.72-10.95,27.41,0,32.28,14.09,32.28,53.76Z"/><path class="cls-11" d="M2262.71,113.72h22.07v25.6h-22.07Zm0,58.85h22.07V319.69h-22.07Z"/><path class="cls-7" d="M2285.28,320.19h-23.07V172.07h23.07Zm-22.07-1h21.07V173.07h-21.07Zm22.07-179.37h-23.07v-26.6h23.07Zm-22.07-1h21.07v-24.6h-21.07Z"/><path class="cls-11" d="M2356.57,191.69V262c0,32.07,2.06,41.2,21.19,41.2,8.24,0,26.19-1.77,26.19-1.77l1.47,18.24s-19.72,3.24-30,3.24c-30.3,0-40.6-11.48-40.6-53.85V191.69h-20.89V172.57h20.89v-45h21.77v45h46.79v19.12Z"/><path class="cls-7" d="M2375.4,323.43c-31.5,0-41.1-12.7-41.1-54.35V192.19h-20.89V172.07h20.89v-45h22.77v45h46.79v20.12h-46.79V262c0,35.91,4.16,40.7,20.69,40.7,8.12,0,26-1.75,26.14-1.77l.5-.05,1.55,19.21-.45.08C2405.3,320.22,2385.63,323.43,2375.4,323.43Zm-61-132.24h20.89v77.89c0,40.89,9.37,53.35,40.1,53.35,9.28,0,26.47-2.68,29.48-3.16L2403.49,302c-3,.28-18.34,1.72-25.73,1.72-20,0-21.69-10.19-21.69-41.7V191.19h46.79V173.07h-46.79v-45H2335.3v45h-20.89Z"/><path class="cls-11" d="M2430.43,113.72h22.06v25.6h-22.06Zm0,58.85h22.06V319.69h-22.06Z"/><path class="cls-7" d="M2453,320.19h-23.06V172.07H2453Zm-22.06-1H2452V173.07h-21.06ZM2453,139.82h-23.06v-26.6H2453Zm-22.06-1H2452v-24.6h-21.06Z"/><path class="cls-11" d="M2603.44,300.57l.59,17.36s-33.54,4.71-57.38,4.71c-43.84,0-58.26-25.6-58.26-75.63,0-55.9,24.13-77.38,61.5-77.38,39.13,0,59.14,20.59,59.14,68.85l-1.17,16.77h-97.11c0,31.49,9.71,48,38.55,48C2571.37,303.22,2603.44,300.57,2603.44,300.57Zm-16.48-63c0-36.49-11.18-49.44-37.07-49.44-25,0-39.14,13.83-39.43,49.44Z"/><path class="cls-7" d="M2546.65,323.14c-21.63,0-36.67-6.3-46-19.26-8.72-12.15-12.78-30.22-12.78-56.87,0-51.68,20.86-77.88,62-77.88,40.69,0,59.64,22,59.64,69.35l-1.21,17.27h-97.07c.12,32.92,11.51,47,38.05,47,21.79,0,53.78-2.62,54.1-2.65l.52,0,.63,18.33-.45.06C2603.76,318.47,2570.25,323.14,2546.65,323.14Zm3.24-153c-19.36,0-34.3,5.9-44.39,17.55-11,12.73-16.61,32.69-16.61,59.33,0,53.36,16.73,75.13,57.76,75.13,22,0,52.81-4.09,56.87-4.65l-.56-16.38c-4.25.34-33.36,2.61-53.66,2.61-27.37,0-39.05-14.5-39.05-48.47v-.5h97.14l1.14-16.3C2608.53,191.85,2589.9,170.13,2549.89,170.13Zm37.57,68H2510v-.51c.28-34.06,13-49.93,39.93-49.93s37.57,14,37.57,49.94Zm-76.5-1h75.5c-.09-34.85-10.38-48.44-36.57-48.44S2511.36,204.06,2511,237.1Z"/><path class="cls-11" d="M2741.14,194.05s-32.66-4.71-51.49-4.71c-18.24,0-32.07,5-32.07,22.36,0,13.83,7.06,17.66,38.25,23,36.78,6.17,50.61,13.53,50.61,42.07,0,34.43-21.77,45.91-57.08,45.91-18.84,0-51.79-5.59-51.79-5.59l1.18-19.13s33.54,5,48.55,5c24.12,0,37.07-5.3,37.07-25.3,0-15.31-7.65-19.13-39.72-24.13-33.25-5.3-49.14-11.48-49.14-40.9,0-32.37,26.19-43,53-43,22.07,0,53.26,5.59,53.26,5.59Z"/><path class="cls-7" d="M2689.36,323.14c-18.66,0-51.55-5.55-51.88-5.6l-.44-.08,1.24-20.12.54.08c.33.06,33.68,5,48.48,5,22.58,0,36.57-4.15,36.57-24.8,0-14.56-6.61-18.54-39.3-23.64-35-5.57-49.56-12.55-49.56-41.39,0-15.11,5.6-26.56,16.66-34,9.12-6.16,21.84-9.42,36.8-9.42,21.86,0,53,5.54,53.35,5.59l.43.08-.62,19.82-.56-.08c-.32,0-32.84-4.7-51.42-4.7-21.54,0-31.57,6.95-31.57,21.86,0,13.34,6.36,17.12,37.83,22.46,17.45,2.93,30.81,6.22,39.32,12.75,8.1,6.21,11.71,15.41,11.71,29.82C2746.94,308.39,2728.64,323.14,2689.36,323.14Zm-51.26-6.51c4,.66,33.86,5.51,51.26,5.51,18.72,0,32.29-3.26,41.49-9.95,10.15-7.39,15.09-19,15.09-35.46,0-28.14-13.15-35.36-50.19-41.58-31.81-5.4-38.67-9.57-38.67-23.45,0-15.38,10.65-22.86,32.57-22.86,17.31,0,46.62,4,51,4.64l.56-17.85c-3.81-.66-32.36-5.5-52.75-5.5-15.77,0-52.46,4.13-52.46,42.46,0,28.11,14.36,34.93,48.72,40.4,31.59,4.93,40.14,8.55,40.14,24.63,0,21.41-15,25.8-37.57,25.8-13.83,0-43.7-4.29-48.09-4.93Z"/><path class="cls-11" d="M2871.49,241.72v78h-22.66V116.07h75.33c42.66,0,65,18.83,65,61.8,0,30-11.77,50.9-37.37,59.14L2991,319.69h-25l-36.78-78Zm52.67-105.64h-52.67v85.63h53c30.6,0,41.49-18.25,41.49-43.84C2965.94,149.91,2952.7,136.08,2924.16,136.08Z"/><path class="cls-7" d="M2991.74,320.19h-26.12l-36.78-78H2872v78h-23.66V115.57h75.83c44.09,0,65.53,20.38,65.53,62.3,0,31.27-12.51,51.27-37.18,59.44Zm-25.48-1h23.9l-39-82.48.54-.18c24.57-7.9,37-27.64,37-58.66,0-21.24-5.35-36.49-16.36-46.64-10.68-9.86-26.44-14.66-48.17-14.66h-74.83V319.19H2871v-78h58.49Zm-41.81-97H2871V135.58h53.17c28.45,0,42.28,13.83,42.28,42.29C2966.44,207.29,2952.31,222.21,2924.45,222.21Zm-52.46-1h52.46c27.2,0,41-14.58,41-43.34,0-14.05-3.28-24.2-10-31s-17.05-10.26-31.24-10.26H2872Z"/><path class="cls-11" d="M3132.19,300.57l.59,17.36s-33.54,4.71-57.38,4.71c-43.84,0-58.26-25.6-58.26-75.63,0-55.9,24.13-77.38,61.5-77.38,39.13,0,59.14,20.59,59.14,68.85l-1.17,16.77H3039.5c0,31.49,9.71,48,38.55,48C3100.12,303.22,3132.19,300.57,3132.19,300.57Zm-16.48-63c0-36.49-11.18-49.44-37.07-49.44-25,0-39.14,13.83-39.43,49.44Z"/><path class="cls-7" d="M3075.4,323.14c-21.63,0-36.67-6.3-46-19.26-8.72-12.15-12.78-30.22-12.78-56.87,0-51.68,20.86-77.88,62-77.88,40.69,0,59.64,22,59.64,69.35l-1.21,17.27H3040c.12,32.92,11.51,47,38.05,47,21.79,0,53.78-2.62,54.1-2.65l.52,0,.62,18.33-.44.06C3132.51,318.47,3099,323.14,3075.4,323.14Zm3.24-153c-19.37,0-34.3,5.9-44.39,17.55-11,12.73-16.61,32.69-16.61,59.33,0,53.36,16.73,75.13,57.76,75.13,22,0,52.81-4.09,56.86-4.65l-.55-16.38c-4.25.34-33.36,2.61-53.66,2.61-27.37,0-39.05-14.5-39.05-48.47v-.5h97.14l1.14-16.3C3137.28,191.85,3118.65,170.13,3078.64,170.13Zm37.57,68H3038.7v-.51c.28-34.06,13-49.93,39.93-49.93s37.57,14,37.57,49.94Zm-76.5-1h75.5c-.09-34.85-10.38-48.44-36.57-48.44S3040.11,204.06,3039.71,237.1Z"/><path class="cls-11" d="M3269.89,194.05s-32.66-4.71-51.49-4.71c-18.24,0-32.07,5-32.07,22.36,0,13.83,7.06,17.66,38.25,23,36.78,6.17,50.61,13.53,50.61,42.07,0,34.43-21.77,45.91-57.08,45.91-18.84,0-51.79-5.59-51.79-5.59l1.17-19.13s33.55,5,48.56,5c24.12,0,37.07-5.3,37.07-25.3,0-15.31-7.65-19.13-39.72-24.13-33.25-5.3-49.14-11.48-49.14-40.9,0-32.37,26.19-43,53-43,22.07,0,53.26,5.59,53.26,5.59Z"/><path class="cls-7" d="M3218.11,323.14c-18.66,0-51.55-5.55-51.88-5.6l-.44-.08,1.24-20.12.54.08c.33.06,33.68,5,48.48,5,22.58,0,36.57-4.15,36.57-24.8,0-14.56-6.61-18.54-39.3-23.64-35-5.57-49.56-12.55-49.56-41.39,0-15.11,5.6-26.56,16.66-34,9.12-6.16,21.84-9.42,36.8-9.42,21.86,0,53,5.54,53.35,5.59l.43.08-.62,19.82-.56-.08c-.32,0-32.84-4.7-51.42-4.7-21.54,0-31.57,6.95-31.57,21.86,0,13.34,6.36,17.12,37.83,22.46,17.45,2.93,30.81,6.22,39.32,12.75,8.1,6.21,11.71,15.41,11.71,29.82C3275.69,308.39,3257.39,323.14,3218.11,323.14Zm-51.27-6.51c4,.66,33.87,5.51,51.27,5.51,18.72,0,32.29-3.26,41.49-9.95,10.15-7.39,15.09-19,15.09-35.46,0-28.14-13.15-35.36-50.19-41.58-31.81-5.4-38.67-9.57-38.67-23.45,0-15.38,10.65-22.86,32.57-22.86,17.31,0,46.62,4,51,4.64l.56-17.85c-3.82-.66-32.36-5.5-52.75-5.5-15.77,0-52.46,4.13-52.46,42.46,0,28.11,14.36,34.93,48.72,40.4,31.59,4.93,40.14,8.55,40.14,24.63,0,21.41-15,25.8-37.57,25.8-13.83,0-43.7-4.29-48.09-4.93Z"/><path class="cls-11" d="M3417.6,300.57l.59,17.36s-33.54,4.71-57.38,4.71c-43.84,0-58.26-25.6-58.26-75.63,0-55.9,24.13-77.38,61.5-77.38,39.13,0,59.14,20.59,59.14,68.85L3422,255.25h-97.11c0,31.49,9.71,48,38.55,48C3385.53,303.22,3417.6,300.57,3417.6,300.57Zm-16.47-63c0-36.49-11.19-49.44-37.08-49.44-25,0-39.14,13.83-39.43,49.44Z"/><path class="cls-7" d="M3360.81,323.14c-21.63,0-36.67-6.3-46-19.26-8.72-12.15-12.78-30.22-12.78-56.87,0-51.68,20.86-77.88,62-77.88,40.69,0,59.64,22,59.64,69.35l-1.21,17.27h-97.06c.11,32.92,11.51,47,38,47,21.8,0,53.78-2.62,54.1-2.65l.53,0,.62,18.33-.45.06C3417.93,318.47,3384.41,323.14,3360.81,323.14Zm3.24-153c-19.36,0-34.3,5.9-44.39,17.55-11,12.73-16.61,32.69-16.61,59.33,0,53.36,16.74,75.13,57.76,75.13,22.05,0,52.81-4.09,56.87-4.65l-.56-16.38c-4.25.34-33.36,2.61-53.66,2.61-27.37,0-39.05-14.5-39.05-48.47v-.5h97.14l1.14-16.3C3422.69,191.85,3404.06,170.13,3364.05,170.13Zm37.58,68h-77.51v-.51c.28-34.06,13-49.93,39.93-49.93s37.58,14,37.58,49.94Zm-76.51-1h75.5c-.09-34.85-10.38-48.44-36.57-48.44S3325.52,204.06,3325.12,237.1Z"/><path class="cls-11" d="M3561.48,292.33c.59,8.53,7.66,11.77,17.07,12.95l-.88,17.36c-15.6,0-26.19-2.95-35-11.77,0,0-26.48,11.77-53,11.77-26.78,0-41.49-15.3-41.49-45,0-28.25,14.71-40.61,45-43.55l46.2-4.42V217c0-20.6-8.83-27.95-26.49-27.95-20.59,0-55.61,3.82-55.61,3.82l-.88-16.77s32.36-6.47,57.67-6.47c33.25,0,47.37,15.3,47.37,47.37Zm-65.61-41.79c-17.95,1.77-25,10.3-25,26.49,0,17.06,7.35,27.07,22.36,27.07,21.77,0,46.2-9.12,46.2-9.12V246.43Z"/><path class="cls-7" d="M3578.14,323.14h-.47c-16.5,0-26.71-3.39-35.13-11.68-3.08,1.32-28.11,11.68-52.85,11.68-27.47,0-42-15.74-42-45.52,0-27.41,14-41,45.47-44.05l45.75-4.37V217c0-19.24-7.77-27.45-26-27.45-20.33,0-55.21,3.78-55.56,3.82l-.52.06-.93-17.74.42-.08c.32-.07,32.71-6.48,57.77-6.48,33.11,0,47.87,14.76,47.87,47.87v75.31c.51,7.15,5.79,11.11,16.63,12.47l.46.06Zm-65.21-134.59c18.92,0,27,8.51,27,28.45v13.11l-46.65,4.45c-31.24,3-44.57,15.91-44.57,43.06,0,29.12,14.17,44.52,41,44.52,26.07,0,52.5-11.61,52.76-11.73l.31-.14.25.24c8.17,8.18,18.1,11.56,34.18,11.63l.84-16.43c-7.12-.94-16.36-3.42-17-13.35V217c0-32.42-14.45-46.87-46.87-46.87-23.41,0-53.25,5.62-57.15,6.38l.83,15.81C3462.25,191.84,3493.92,188.55,3512.93,188.55ZM3493.22,304.6c-14.74,0-22.86-9.79-22.86-27.57,0-16.93,7.85-25.25,25.46-27h0l44.1-4.17v49.44l-.33.13C3539.35,295.54,3514.83,304.6,3493.22,304.6Zm2.7-53.56c-17.22,1.7-24.56,9.47-24.56,26,0,17.38,7.56,26.57,21.86,26.57,20.09,0,42.73-7.9,45.7-9V247l-43,4.07Z"/><path class="cls-11" d="M3605,172.57h21.77v20s25.6-17.66,53.85-23.25v22.36c-27.66,5.6-53.55,20-53.55,20v108H3605Z"/><path class="cls-7" d="M3627.6,320.19h-23.07V172.07h22.77v19.57c4.53-3,28-17.79,53.25-22.8l.6-.12V192.1l-.4.09c-25.81,5.21-50.38,18.3-53.15,19.81Zm-22.07-1h21.07V211.41l.25-.14c.26-.15,26-14.38,53.3-20V169.94c-27.59,5.64-52.81,22.87-53.06,23.05l-.79.54V173.07h-20.77Z"/><path class="cls-11" d="M3798.94,174l-.89,18s-23.54-2.65-34.72-2.65c-33.84,0-43,14.71-43,54.14,0,43.55,6.77,59.44,43.26,59.44,11.18,0,34.72-2.65,34.72-2.65l.88,18.25s-27.37,4.12-40.9,4.12c-46.79,0-60.62-21.48-60.62-79.16,0-53.26,17.36-73.85,61.21-73.85C3772.45,169.63,3798.94,174,3798.94,174Z"/><path class="cls-7" d="M3758.33,323.14c-45.69,0-61.12-20.1-61.12-79.66,0-53.51,17.3-74.35,61.71-74.35,13.42,0,39.83,4.37,40.1,4.42l.44.07-.93,18.93-.53-.06c-.24,0-23.64-2.65-34.67-2.65-32.14,0-42.46,13-42.46,53.64,0,43.5,6.46,58.94,42.76,58.94,11,0,34.43-2.62,34.66-2.64l.53-.06.93,19.22-.45.07C3799,319.05,3771.75,323.14,3758.33,323.14Zm.59-153c-43.69,0-60.71,20.56-60.71,73.35,0,30.29,3.91,49.07,12.67,60.91,9.08,12.27,23.71,17.75,47.45,17.75,12.4,0,36.78-3.52,40.38-4.05l-.84-17.26c-3.56.39-24.09,2.59-34.24,2.59-37.68,0-43.76-17.67-43.76-59.94,0-41.36,10.56-54.64,43.46-54.64,10.15,0,30.69,2.2,34.25,2.59l.83-17C3794.9,173.89,3771.31,170.13,3758.92,170.13Z"/><path class="cls-11" d="M3832.18,319.69V108.42h22.07v72.39s23.54-11.18,45.31-11.18c40.31,0,49.73,20,49.73,72.38v77.68h-22.07V242.6c0-38.84-4.41-53.26-31.48-53.26-20.89,0-41.49,8.83-41.49,8.83V319.69Z"/><path class="cls-7" d="M3949.79,320.19h-23.07V242.6c0-18.33-.94-32.3-5.53-41-4.39-8.27-12-11.8-25.45-11.8-19.19,0-38.37,7.58-41,8.66V320.19h-23.07V107.92h23.07V180c4.12-1.85,25.29-10.9,44.81-10.9,42.71,0,50.23,23.5,50.23,72.88Zm-22.07-1h21.07V242c0-28.36-2.89-45-9.67-55.56-7.22-11.29-19.42-16.32-39.56-16.32-21.41,0-44.86,11-45.1,11.13l-.71.34V108.92h-21.07V319.19h21.07V197.84l.3-.13c.21-.09,20.93-8.87,41.69-8.87,27.15,0,32,14.09,32,53.76Z"/><path class="cls-11" d="M4058.74,116.07h22.66V319.69h-22.66Z"/><path class="cls-7" d="M4081.9,320.19h-23.66V115.57h23.66Zm-22.66-1h21.66V116.57h-21.66Z"/><path class="cls-11" d="M4127.29,319.69V172.57h21.78v10.3s23.83-13.24,45.61-13.24c40.6,0,49.73,20,49.73,72.38v77.68h-21.78V242.6c0-38.84-4.41-53.26-31.78-53.26-21.18,0-41.49,10.89-41.49,10.89V319.69Z"/><path class="cls-7" d="M4244.91,320.19h-22.78V242.6c0-18.33-.95-32.32-5.57-41-4.42-8.27-12.11-11.8-25.71-11.8-19.52,0-38.54,9.43-41,10.69V320.19h-23.07V172.07h22.78v10c4.22-2.21,25.6-12.9,45.11-12.9,20.62,0,33.12,5.17,40.51,16.78,6.81,10.69,9.72,27.47,9.72,56.1Zm-21.78-1h20.78V242c0-28.43-2.86-45-9.56-55.56-7.19-11.29-19.43-16.32-39.67-16.32-21.39,0-45.13,13-45.37,13.17l-.74.42V173.07h-20.78V319.19h21.07V199.93l.27-.14c.2-.11,20.65-10.95,41.72-10.95,27.4,0,32.28,14.09,32.28,53.76Z"/><path class="cls-11" d="M4383,194.05s-32.66-4.71-51.49-4.71c-18.25,0-32.08,5-32.08,22.36,0,13.83,7.06,17.66,38.25,23,36.79,6.17,50.62,13.53,50.62,42.07,0,34.43-21.78,45.91-57.09,45.91-18.83,0-51.79-5.59-51.79-5.59l1.18-19.13s33.54,5,48.55,5c24.13,0,37.08-5.3,37.08-25.3,0-15.31-7.65-19.13-39.73-24.13-33.25-5.3-49.14-11.48-49.14-40.9,0-32.37,26.19-43,53-43,22.07,0,53.26,5.59,53.26,5.59Z"/><path class="cls-7" d="M4331.2,323.14c-18.66,0-51.54-5.55-51.87-5.6l-.44-.08,1.24-20.12.53.08c.34.06,33.68,5,48.48,5,22.58,0,36.58-4.15,36.58-24.8,0-14.56-6.61-18.54-39.3-23.64-35-5.57-49.57-12.55-49.57-41.39,0-15.11,5.61-26.56,16.66-34,9.12-6.16,21.85-9.42,36.81-9.42,21.86,0,53,5.54,53.35,5.59l.42.08-.62,19.82-.55-.08c-.33,0-32.84-4.7-51.42-4.7-21.54,0-31.58,6.95-31.58,21.86,0,13.34,6.37,17.12,37.84,22.46,17.44,2.93,30.81,6.22,39.32,12.75,8.1,6.21,11.71,15.41,11.71,29.82C4388.79,308.39,4370.49,323.14,4331.2,323.14Zm-51.26-6.51c4,.66,33.87,5.51,51.26,5.51,18.72,0,32.29-3.26,41.49-9.95,10.16-7.39,15.1-19,15.1-35.46,0-28.14-13.16-35.36-50.2-41.58-31.8-5.4-38.67-9.57-38.67-23.45,0-15.38,10.66-22.86,32.58-22.86,17.31,0,46.62,4,51,4.64l.55-17.85c-3.81-.66-32.36-5.5-52.74-5.5-15.78,0-52.47,4.13-52.47,42.46,0,28.11,14.37,34.93,48.72,40.4,31.59,4.93,40.15,8.55,40.15,24.63,0,21.41-15,25.8-37.58,25.8-13.83,0-43.7-4.29-48.08-4.93Z"/><path class="cls-11" d="M4451.54,191.69V262c0,32.07,2.07,41.2,21.19,41.2,8.24,0,26.19-1.77,26.19-1.77l1.47,18.24s-19.71,3.24-30,3.24c-30.31,0-40.61-11.48-40.61-53.85V191.69h-20.89V172.57h20.89v-45h21.77v45h46.79v19.12Z"/><path class="cls-7" d="M4470.38,323.43c-31.51,0-41.11-12.7-41.11-54.35V192.19h-20.89V172.07h20.89v-45H4452v45h46.79v20.12H4452V262c0,35.91,4.16,40.7,20.69,40.7,8.12,0,26-1.75,26.14-1.77l.51-.05,1.55,19.21-.46.08C4500.27,320.22,4480.6,323.43,4470.38,323.43Zm-61-132.24h20.89v77.89c0,40.89,9.37,53.35,40.11,53.35,9.27,0,26.46-2.68,29.47-3.16L4498.46,302c-3,.28-18.33,1.72-25.73,1.72-20,0-21.69-10.19-21.69-41.7V191.19h46.79V173.07H4451v-45h-20.77v45h-20.89Z"/><path class="cls-11" d="M4525.4,113.72h22.07v25.6H4525.4Zm0,58.85h22.07V319.69H4525.4Z"/><path class="cls-7" d="M4548,320.19H4524.9V172.07H4548Zm-22.07-1H4547V173.07H4525.9ZM4548,139.82H4524.9v-26.6H4548Zm-22.07-1H4547v-24.6H4525.9Z"/><path class="cls-11" d="M4619.26,191.69V262c0,32.07,2.06,41.2,21.19,41.2,8.24,0,26.19-1.77,26.19-1.77l1.47,18.24s-19.72,3.24-30,3.24c-30.3,0-40.6-11.48-40.6-53.85V191.69H4576.6V172.57h20.89v-45h21.77v45h46.79v19.12Z"/><path class="cls-7" d="M4638.09,323.43c-31.5,0-41.1-12.7-41.1-54.35V192.19H4576.1V172.07H4597v-45h22.77v45h46.79v20.12h-46.79V262c0,35.91,4.16,40.7,20.69,40.7,8.12,0,26-1.75,26.14-1.77l.5-.05,1.55,19.21-.45.08C4668,320.22,4648.31,323.43,4638.09,323.43Zm-61-132.24H4598v77.89c0,40.89,9.37,53.35,40.1,53.35,9.28,0,26.47-2.68,29.48-3.16L4666.18,302c-3,.28-18.34,1.72-25.73,1.72-20,0-21.69-10.19-21.69-41.7V191.19h46.79V173.07h-46.79v-45H4598v45H4577.1Z"/><path class="cls-11" d="M4807,172.57V319.69h-22.07V309.4s-22.07,13.24-43.55,13.24c-41.19,0-49.73-19.13-49.73-73.27v-76.8h22.07v76.5c0,40.61,3.53,53.85,30.9,53.85,21.77,0,40.31-10.89,40.31-10.89V172.57Z"/><path class="cls-7" d="M4741.37,323.14c-21.23,0-33.41-5-40.73-16.57-6.75-10.69-9.5-27.26-9.5-57.2v-77.3h23.07v77c0,41.33,4,53.35,30.4,53.35,20,0,37.54-9.41,39.81-10.68V172.07h23.07V320.19h-23.07v-9.93C4780.35,312.56,4760.52,323.14,4741.37,323.14Zm-49.23-150.07v76.3c0,57.12,10.59,72.77,49.23,72.77,21.1,0,43.08-13,43.29-13.17l.76-.46v10.68h21.07V173.07h-21.07V292.32l-.24.15c-.19.1-18.91,10.95-40.57,10.95-28.69,0-31.4-14.9-31.4-54.35v-76Z"/><path class="cls-11" d="M4878.78,191.69V262c0,32.07,2.06,41.2,21.19,41.2,8.24,0,26.19-1.77,26.19-1.77l1.47,18.24s-19.72,3.24-30,3.24c-30.31,0-40.6-11.48-40.6-53.85V191.69h-20.9V172.57H4857v-45h21.77v45h46.79v19.12Z"/><path class="cls-7" d="M4897.61,323.43c-31.5,0-41.1-12.7-41.1-54.35V192.19h-20.9V172.07h20.9v-45h22.77v45h46.79v20.12h-46.79V262c0,35.91,4.16,40.7,20.69,40.7,8.12,0,26-1.75,26.14-1.77l.5-.05,1.55,19.21-.45.08C4927.51,320.22,4907.83,323.43,4897.61,323.43Zm-61-132.24h20.9v77.89c0,40.89,9.37,53.35,40.1,53.35,9.28,0,26.47-2.68,29.48-3.16L4925.7,302c-3,.28-18.34,1.72-25.73,1.72-20,0-21.69-10.19-21.69-41.7V191.19h46.79V173.07h-46.79v-45h-20.77v45h-20.9Z"/><path class="cls-11" d="M5061.21,300.57l.59,17.36s-33.54,4.71-57.38,4.71c-43.84,0-58.26-25.6-58.26-75.63,0-55.9,24.13-77.38,61.5-77.38,39.13,0,59.14,20.59,59.14,68.85l-1.17,16.77h-97.11c0,31.49,9.71,48,38.55,48C5029.14,303.22,5061.21,300.57,5061.21,300.57Zm-16.47-63c0-36.49-11.19-49.44-37.08-49.44-25,0-39.14,13.83-39.43,49.44Z"/><path class="cls-7" d="M5004.42,323.14c-21.63,0-36.67-6.3-46-19.26-8.72-12.15-12.78-30.22-12.78-56.87,0-51.68,20.86-77.88,62-77.88,40.69,0,59.64,22,59.64,69.35l-1.21,17.27H4969c.11,32.92,11.51,47,38,47,21.8,0,53.78-2.62,54.1-2.65l.52,0,.63,18.33-.45.06C5061.54,318.47,5028,323.14,5004.42,323.14Zm3.24-153c-19.36,0-34.3,5.9-44.39,17.55-11,12.73-16.61,32.69-16.61,59.33,0,53.36,16.74,75.13,57.76,75.13,22.05,0,52.81-4.09,56.87-4.65l-.56-16.38c-4.25.34-33.36,2.61-53.66,2.61-27.37,0-39-14.5-39-48.47v-.5h97.14l1.15-16.3C5066.3,191.85,5047.67,170.13,5007.66,170.13Zm37.58,68h-77.51v-.51c.28-34.06,13-49.93,39.93-49.93s37.58,14,37.58,49.94Zm-76.51-1h75.5c-.09-34.85-10.38-48.44-36.57-48.44S4969.13,204.06,4968.73,237.1Z"/></svg>